<svg width="188" height="122" viewBox="0 0 188 122" fill="none" xmlns="http://www.w3.org/2000/svg">
<g clip-path="url(#clip0_156_939)">
<path d="M6.16735 93.3472C7.09085 83.8271 12.6725 74.324 21.5535 71C18.2718 80.8602 18.5492 91.575 22.3366 101.249C23.8106 104.974 25.8342 108.962 24.6369 112.788C23.8919 115.168 21.9671 117.024 19.7926 118.211C17.618 119.398 15.1862 120 12.7847 120.59L12.3196 121C8.25998 112.358 5.24386 102.867 6.16735 93.3472Z" fill="#F0F0F0"/>
<path d="M21.9443 71.3773C16.7247 77.3626 13.4396 85.0066 12.8652 92.843C12.741 94.5372 12.7668 96.2663 13.1917 97.9224C13.6187 99.5335 14.482 101.004 15.6919 102.182C16.7973 103.301 18.0614 104.323 18.8674 105.684C19.7169 107.119 19.7924 108.772 19.2791 110.332C18.651 112.241 17.3544 113.816 16.0313 115.314C14.5623 116.978 13.0093 118.683 12.4241 120.854C12.3532 121.117 11.9373 120.994 12.0081 120.732C13.0262 116.955 16.7143 114.731 18.4098 111.31C19.2009 109.714 19.5017 107.876 18.6757 106.233C17.9534 104.796 16.6507 103.742 15.5214 102.617C14.3356 101.437 13.4157 100.132 12.9171 98.5414C12.4071 96.9145 12.3117 95.1827 12.3908 93.4929C12.5994 89.6622 13.4268 85.8872 14.8425 82.3062C16.4349 78.2106 18.7367 74.4097 21.6484 71.0681C21.8287 70.8614 22.1234 71.172 21.9443 71.3774L21.9443 71.3773Z" fill="white"/>
<path d="M12.715 89.9948C11.3302 89.713 10.0964 88.9754 9.23402 87.9136C8.37167 86.8518 7.93692 85.5349 8.0074 84.1982C8.0108 84.1437 8.03646 84.0926 8.07896 84.0557C8.12147 84.0187 8.17751 83.9988 8.23527 84.0001C8.29304 84.0014 8.34801 84.0238 8.3886 84.0626C8.4292 84.1015 8.45225 84.1537 8.45289 84.2083C8.38483 85.4529 8.78993 86.6795 9.59509 87.6667C10.4002 88.6539 11.5524 89.3367 12.8437 89.5918C13.1242 89.6476 12.994 90.0502 12.715 89.9948Z" fill="white"/>
<path d="M15.0974 101.593C17.3185 100.116 18.928 97.8147 19.6051 95.1472C19.672 94.8828 20.0591 95.0058 19.9923 95.2698C19.2828 98.0443 17.6031 100.436 15.2886 101.967C15.0679 102.113 14.8779 101.738 15.0974 101.593Z" fill="white"/>
<path d="M16.3004 78.2764C16.8391 78.499 17.4287 78.5934 18.0163 78.5513C18.6039 78.5092 19.1711 78.3319 19.6669 78.0352C19.9206 77.8823 20.1407 78.2681 19.8886 78.42C19.3392 78.7454 18.7126 78.9406 18.0635 78.9884C17.4144 79.0363 16.7626 78.9354 16.165 78.6945C16.1066 78.6762 16.0579 78.6379 16.0288 78.5873C15.9997 78.5368 15.9923 78.4778 16.0082 78.4224C16.0264 78.3671 16.0673 78.3208 16.122 78.2934C16.1767 78.2661 16.2408 78.26 16.3004 78.2764H16.3004Z" fill="white"/>
<path d="M50 87.8447C49.8585 87.9404 49.717 88.0362 49.5754 88.1355C47.6795 89.4325 45.8939 90.879 44.2362 92.4604C44.106 92.5807 43.976 92.7045 43.8496 92.8282C39.8971 96.6803 36.7061 101.221 34.4387 106.218C33.5383 108.208 32.7931 110.262 32.2095 112.363C31.4038 115.264 30.7649 118.473 29.0813 120.872C28.9085 121.125 28.72 121.366 28.5169 121.595L12.7385 122C12.7021 121.983 12.6657 121.97 12.6292 121.953L12 121.998C12.0224 121.887 12.0481 121.773 12.0705 121.663C12.0832 121.599 12.0994 121.535 12.1121 121.47C12.1217 121.428 12.1315 121.385 12.1377 121.346C12.1408 121.331 12.1441 121.317 12.1474 121.307C12.1535 121.267 12.1635 121.232 12.1698 121.196C12.3113 120.558 12.4577 119.92 12.6089 119.282C12.6088 119.279 12.6088 119.279 12.6122 119.275C13.7768 114.416 15.364 109.609 17.6425 105.193C17.7111 105.06 17.7794 104.924 17.8552 104.791C18.8934 102.805 20.0949 100.907 21.4476 99.1144C22.1915 98.1351 22.9853 97.1935 23.826 96.2932C26.0028 93.9711 28.5375 92.0002 31.3369 90.4527C36.9182 87.3688 43.44 86.0748 49.5355 87.7149C49.6914 87.7569 49.844 87.7991 50 87.8447Z" fill="#F0F0F0"/>
<path d="M49.8213 87.4207C42.1041 89.1262 34.893 93.2585 29.6857 99.1094C28.5598 100.374 27.5301 101.754 26.857 103.306C26.2128 104.824 25.9952 106.483 26.2268 108.111C26.4116 109.634 26.7805 111.17 26.5844 112.71C26.3777 114.333 25.4332 115.681 24.0843 116.615C22.4341 117.759 20.463 118.252 18.5184 118.67C16.3593 119.133 14.1092 119.581 12.3334 120.955C12.1183 121.122 11.8672 120.785 12.082 120.618C15.1714 118.227 19.4068 118.604 22.8104 116.885C24.3986 116.082 25.7497 114.806 26.1012 113.033C26.4086 111.481 26.0295 109.897 25.8288 108.357C25.6181 106.74 25.6908 105.178 26.2664 103.636C26.8552 102.057 27.8321 100.636 28.9199 99.348C31.4091 96.4462 34.3483 93.9459 37.6301 91.9388C41.3625 89.6277 45.4709 87.9593 49.7776 87.0057C50.0441 86.9468 50.0861 87.3622 49.8213 87.4207H49.8213Z" fill="white"/>
<path d="M31.5579 96.929C30.565 95.9784 30.0129 94.7669 30.0002 93.5106C29.9875 92.2544 30.515 91.0354 31.4885 90.0712C31.6863 89.8767 32.061 90.1218 31.8629 90.3166C30.9544 91.213 30.4632 92.3486 30.4779 93.5184C30.4926 94.6882 31.0123 95.815 31.9432 96.6957C32.1452 96.8872 31.7587 97.1195 31.5579 96.929Z" fill="white"/>
<path d="M26.2327 108.508C28.9063 108.749 31.5642 107.871 33.6764 106.049C33.8856 105.868 34.129 106.235 33.9202 106.416C31.7189 108.307 28.9513 109.215 26.1696 108.957C25.9045 108.932 25.969 108.483 26.2327 108.508H26.2327Z" fill="white"/>
<path d="M41.365 90.0803C41.6134 90.5132 41.9689 90.8796 42.3997 91.1466C42.8304 91.4136 43.3228 91.5728 43.8328 91.6099C44.0943 91.6282 44.0304 92.0175 43.7705 91.9994C43.2073 91.9559 42.6637 91.7794 42.1871 91.4854C41.7106 91.1915 41.3156 90.789 41.0367 90.313C41.0065 90.2703 40.9943 90.2181 41.0025 90.1669C41.0106 90.1158 41.0386 90.0695 41.0807 90.0377C41.1243 90.007 41.1787 89.9944 41.2319 90.0023C41.2852 90.0103 41.333 90.0383 41.365 90.0803Z" fill="white"/>
<path d="M140.845 8C140.623 7.3298 137.848 5.0516 139.549 4.66868L140.943 6.57585L147.355 0L148 0.661378L140.845 8Z" fill="#9FBDFF"/>
<path d="M140.845 31C140.623 30.3298 137.848 28.0516 139.549 27.6687L140.943 29.5759L147.355 23L148 23.6614L140.845 31Z" fill="#9FBDFF"/>
<path d="M140.845 54C140.623 53.3298 137.848 51.0516 139.549 50.6687L140.943 52.5759L147.355 46L148 46.6614L140.845 54Z" fill="#9FBDFF"/>
<path d="M135 36C136.105 36 137 35.1046 137 34C137 32.8954 136.105 32 135 32C133.895 32 133 32.8954 133 34C133 35.1046 133.895 36 135 36Z" fill="#3F3D56"/>
<path d="M135 13C136.105 13 137 12.1046 137 11C137 9.89543 136.105 9 135 9C133.895 9 133 9.89543 133 11C133 12.1046 133.895 13 135 13Z" fill="#3F3D56"/>
<path d="M188 6H155V6.41609H188V6Z" fill="#3F3D56"/>
<path d="M136 60C137.105 60 138 59.1046 138 58C138 56.8954 137.105 56 136 56C134.895 56 134 56.8954 134 58C134 59.1046 134.895 60 136 60Z" fill="#3F3D56"/>
<path d="M188 29H155V29.4161H188V29Z" fill="#3F3D56"/>
<path d="M188 52H155V52.4161H188V52Z" fill="#3F3D56"/>
<path d="M146 58H136V47H142.8V47.4314H136.4V57.5686H145.6V52.6078H146V58Z" fill="#3F3D56"/>
<path d="M146 35H136V24H142.8V24.4314H136.4V34.5686H145.6V29.6078H146V35Z" fill="#3F3D56"/>
<path d="M146 11H136V0H142.8V0.431373H136.4V10.5686H145.6V5.60784H146V11Z" fill="#3F3D56"/>
<path d="M78.0614 38.037C78.0614 38.037 75.3063 50 78.6736 50C82.0409 50 90 36.463 90 36.463L87.2449 33L82.2999 40.0606L82.0409 36.463L78.0614 38.037Z" fill="#A0616A"/>
<path d="M89.5 36C90.8807 36 92 34.8807 92 33.5C92 32.1193 90.8807 31 89.5 31C88.1193 31 87 32.1193 87 33.5C87 34.8807 88.1193 36 89.5 36Z" fill="#A0616A"/>
<path d="M76.0008 118L79.3882 118L81 104L76 104L76.0008 118Z" fill="#A0616A"/>
<path d="M76.0002 122L87 122V121.859C86.9999 120.713 86.5488 119.614 85.7459 118.804C84.943 117.994 83.854 117.538 82.7186 117.538H82.7183L80.709 116L76.9602 117.539L76 117.539L76.0002 122Z" fill="#2F2E41"/>
<path d="M37 113.396L40.2345 115L48 103.367L43.2261 101L37 113.396Z" fill="#A0616A"/>
<path d="M35 117.015L44.5049 122L44.5649 121.874C45.0545 120.842 45.1344 119.649 44.7868 118.556C44.4393 117.463 43.6929 116.56 42.7118 116.045L42.7116 116.045L41.6328 113.75L37.736 113.435L36.9063 113L35 117.015Z" fill="#2F2E41"/>
<path d="M52.8763 58.8654C52.8763 58.8654 51.4536 76.279 51.1481 80.0104C50.9386 82.3495 50.4251 84.6499 49.6208 86.8514C49.6208 86.8514 49.0099 88.0952 49.0099 89.339L42.086 102.148C42.086 102.148 39.9702 103.732 40.2756 104.975C40.5811 106.219 39 106.965 39 106.965L46.2915 108.396C46.2915 108.396 45.986 107.463 46.9024 107.152C47.8188 106.841 48.5483 104.144 48.5483 104.144L58.7847 87.1623L66.1159 71.6147C66.1159 71.6147 70.3924 85.6076 71.3087 87.1623C71.3087 87.1623 74.6689 104.576 75.2798 106.13C75.8907 107.685 76.1962 107.685 75.8907 108.307C75.5852 108.929 75.5852 109.551 75.8907 109.862C76.1962 110.173 82 109.862 82 109.862L80.4727 87.7842L77.7235 61.3533L63.6721 57L52.8763 58.8654Z" fill="#2F2E41"/>
<path d="M66.5 18C70.0899 18 73 15.0899 73 11.5C73 7.91015 70.0899 5 66.5 5C62.9101 5 60 7.91015 60 11.5C60 15.0899 62.9101 18 66.5 18Z" fill="#A0616A"/>
<path d="M78 27.0429L70.2955 22.3712C70.2955 22.3712 70.0819 19.4703 67.8867 19.3338C66.7846 19.2652 65.1308 19.1604 62.6488 19.0003C62.1243 18.9665 61.7704 21.8384 61.1693 21.7994L53.0366 23.9585L54.2693 44.9322C54.2693 44.9322 52.4202 53.26 53.0366 54.8022C53.6529 56.3444 51.4956 56.9613 52.112 57.2697C52.7284 57.5781 52.112 59.7372 52.112 59.7372C52.112 59.7372 64.1314 65.9059 77.3836 61.2794L76.1508 57.2697C76.3186 56.7455 76.3501 56.1872 76.2422 55.6475C76.1344 55.1078 75.8908 54.6046 75.5345 54.1853C75.5345 54.1853 76.7672 52.3347 75.2263 50.7925C75.2263 50.7925 75.8426 48.0166 74.3017 46.7828L73.9935 42.4647L74.9181 40.3057L78 27.0429Z" fill="#E6E6E6"/>
<path d="M61.3015 15L61.1207 14.575C61.0974 14.52 58.8103 9.04702 60.8376 5.67113C61.776 4.10826 63.4824 3.22589 65.9092 3.04874C69.7064 2.77081 72.3052 3.68259 73.6356 5.75683C73.8587 6.10838 73.9841 6.51426 73.9986 6.93182C74.0131 7.34938 73.9162 7.76317 73.7181 8.12971C73.5199 8.49624 73.2279 8.80198 72.8727 9.01475C72.5175 9.22753 72.1122 9.3395 71.6994 9.33889H71.6484L70.9507 8.42187L70.9101 8.51106C70.6575 9.06424 70.0774 9.36708 69.3979 9.30075C69.2823 9.29235 69.1799 9.39332 69.0977 9.60943C69.07 9.70397 69.0177 9.78921 68.9463 9.85623C68.8749 9.92324 68.7869 9.96955 68.6917 9.99029C68.1897 10.0892 67.474 9.4491 67.1537 9.13007C67.1413 9.20349 67.1136 9.27338 67.0722 9.335C67.0309 9.39662 66.9769 9.44853 66.9141 9.48724C66.5765 9.68439 66.0512 9.42686 65.9004 9.34484C64.6992 9.60318 63.9216 9.53409 63.5885 9.1397C63.3626 10.7571 62.8779 13.6684 62.2967 13.8298C62.2359 13.8439 62.1723 13.8379 62.1152 13.8126C62.0581 13.7874 62.0105 13.7442 61.9795 13.6894C61.8395 13.5055 61.7144 13.4139 61.6363 13.4396C61.4473 13.5005 61.3357 14.1308 61.3197 14.5375L61.3015 15Z" fill="#2F2E41"/>
<path d="M74.6757 27.5123L77.6414 27C79.7777 29.1823 81.233 32.0088 81.8108 35.0981C82.7027 40.1553 83 41.1036 83 41.1036L75.8649 43L72 35.0981L74.6757 27.5123Z" fill="#E6E6E6"/>
<path d="M61.0917 34.0913L59 58L107.813 62.2767L109.905 38.3681L61.0917 34.0913Z" fill="white"/>
<path d="M66.1571 35.9703C65.011 35.0544 63.5559 34.9882 63 35.0014C63.1696 35.5937 63.6966 37.1129 64.8427 38.0291C65.9916 38.9473 67.445 39.0115 68 38.9987C67.8305 38.4066 67.3034 36.8867 66.1571 35.9703Z" fill="#9FBDFF"/>
<path d="M71.424 51.6003L63.8451 51.0053C63.6211 50.9877 63.3959 51.0142 63.1823 51.0832C62.9686 51.1523 62.7707 51.2625 62.5999 51.4077C62.429 51.5529 62.2886 51.7301 62.1866 51.9293C62.0846 52.1285 62.023 52.3457 62.0053 52.5686C61.9876 52.7915 62.0142 53.0156 62.0836 53.2283C62.153 53.4409 62.2638 53.6379 62.4096 53.8079C62.5555 53.978 62.7336 54.1177 62.9337 54.2193C63.1338 54.3208 63.3521 54.3821 63.576 54.3997L71.1549 54.9947C71.6072 55.0302 72.0551 54.8855 72.4001 54.5923C72.7451 54.2991 72.959 53.8815 72.9947 53.4314C73.0304 52.9813 72.8849 52.5355 72.5904 52.1921C72.2958 51.8487 71.8762 51.6358 71.424 51.6003Z" fill="#9FBDFF"/>
<path d="M107.432 35.5123L63.8518 32.0122C63.3449 31.9715 62.8351 32.0329 62.3515 32.1929C61.8679 32.3528 61.42 32.6082 61.0334 32.9443C60.6467 33.2805 60.3289 33.6909 60.0981 34.1521C59.8672 34.6133 59.7279 35.1163 59.688 35.6323L58.0119 57.2469C57.9314 58.2893 58.2608 59.3217 58.9277 60.1169C59.5947 60.9122 60.5445 61.4053 61.5685 61.4877L105.149 64.9878C105.656 65.0285 106.165 64.9671 106.649 64.8071C107.133 64.6472 107.58 64.3918 107.967 64.0557C108.354 63.7195 108.672 63.3091 108.902 62.8479C109.133 62.3867 109.273 61.8837 109.313 61.3677L110.905 40.8239L110.937 40.4042L110.988 39.7511C111.028 39.2351 110.968 38.7161 110.811 38.2238C110.653 37.7315 110.403 37.2755 110.072 36.8819C109.742 36.4883 109.339 36.1647 108.886 35.9297C108.433 35.6947 107.939 35.5529 107.432 35.5123ZM106.145 54.3181L105.869 57.879C105.819 58.508 105.525 59.091 105.054 59.5006C104.582 59.9102 103.971 60.1131 103.353 60.0649L97.5224 59.5972C96.9046 59.5459 96.332 59.2475 95.9296 58.7675C95.5272 58.2875 95.3279 57.6649 95.3753 57.0357L95.6514 53.4747C95.7021 52.8459 95.9952 52.263 96.4667 51.8534C96.9381 51.4439 97.5496 51.2409 98.1676 51.2888L103.996 51.757C104.614 51.8086 105.186 52.1069 105.589 52.5866C105.992 53.0664 106.192 53.6888 106.145 54.3181ZM60.7321 52.4613C60.7774 51.885 61.0453 51.3506 61.4771 50.9752C61.9089 50.5999 62.4693 50.4142 63.0354 50.4589L70.8081 51.0835C71.0888 51.1056 71.3626 51.1838 71.6137 51.3136C71.8648 51.4434 72.0883 51.6224 72.2714 51.8402C72.4545 52.058 72.5937 52.3104 72.6809 52.5829C72.7682 52.8555 72.8018 53.1429 72.7799 53.4287C72.758 53.7146 72.681 53.9932 72.5533 54.2487C72.4256 54.5042 72.2496 54.7316 72.0355 54.9178C71.8215 55.1041 71.5734 55.2456 71.3056 55.3342C71.0378 55.4228 70.7554 55.4568 70.4747 55.4343L70.4707 55.4353L62.698 54.8107C62.4173 54.7881 62.1437 54.7094 61.8929 54.579C61.6422 54.4487 61.4191 54.2693 61.2365 54.0511C61.0539 53.8328 60.9153 53.5801 60.8288 53.3073C60.7423 53.0345 60.7094 52.747 60.7321 52.4613ZM62.3961 34.8487L62.343 34.6274L62.5666 34.6065C62.654 34.5969 64.7216 34.408 66.331 35.5784C67.9405 36.7488 68.434 38.8022 68.4555 38.8881L68.5066 39.11L68.2835 39.1329C67.9669 39.1569 67.6488 39.1547 67.3325 39.1265C66.3263 39.0665 65.3544 38.7324 64.5185 38.159C62.9091 36.9886 62.4155 34.9351 62.3961 34.8487Z" fill="#9FBDFF"/>
<path d="M100.355 56.2575L97.7558 56.0026C97.5704 55.9848 97.3869 56.0592 97.2456 56.2095C97.1044 56.3598 97.0168 56.5736 97.0022 56.804C96.9876 57.0345 97.0471 57.2628 97.1677 57.4387C97.2883 57.6147 97.4601 57.7239 97.6454 57.7425L100.244 57.9974C100.43 58.0152 100.613 57.9408 100.754 57.7905C100.896 57.6403 100.983 57.4264 100.998 57.196C101.012 56.9655 100.953 56.7372 100.832 56.5613C100.712 56.3853 100.54 56.2761 100.355 56.2575Z" fill="#9FBDFF"/>
<path d="M105.355 57.2574L102.756 57.0025C102.57 56.9849 102.387 57.0594 102.246 57.2097C102.104 57.36 102.017 57.5737 102.002 57.8041C101.988 58.0345 102.047 58.2626 102.168 58.4386C102.288 58.6145 102.46 58.7238 102.645 58.7426L105.245 58.9975C105.43 59.0151 105.613 58.9406 105.754 58.7903C105.896 58.64 105.983 58.4263 105.998 58.1959C106.012 57.9656 105.953 57.7374 105.832 57.5615C105.712 57.3855 105.54 57.2762 105.355 57.2574Z" fill="#9FBDFF"/>
<path d="M100.354 54.2574L97.7554 54.0025C97.5701 53.9849 97.3867 54.0594 97.2455 54.2097C97.1043 54.3599 97.0168 54.5737 97.0022 54.8041C96.9876 55.0344 97.047 55.2626 97.1675 55.4385C97.2881 55.6144 97.4598 55.7238 97.645 55.7425L100.244 55.9974C100.429 56.0152 100.613 55.9408 100.754 55.7905C100.896 55.6402 100.983 55.4264 100.998 55.1959C101.012 54.9655 100.953 54.7372 100.832 54.5612C100.712 54.3853 100.54 54.276 100.354 54.2574Z" fill="#9FBDFF"/>
<path d="M105.355 55.2575L102.756 55.0026C102.57 54.9848 102.387 55.0592 102.246 55.2095C102.104 55.3598 102.017 55.5736 102.002 55.804C101.988 56.0345 102.047 56.2628 102.168 56.4387C102.288 56.6147 102.46 56.7239 102.645 56.7425L105.244 56.9974C105.43 57.0152 105.613 56.9408 105.754 56.7905C105.896 56.6403 105.983 56.4264 105.998 56.196C106.012 55.9655 105.953 55.7372 105.832 55.5613C105.712 55.3853 105.54 55.2761 105.355 55.2575Z" fill="#9FBDFF"/>
<path d="M100.355 53.2575L97.7559 53.0026C97.5705 52.9848 97.387 53.0592 97.2457 53.2095C97.1044 53.3598 97.0168 53.5736 97.0022 53.8041C96.9876 54.0345 97.0471 54.2628 97.1677 54.4388C97.2883 54.6147 97.4602 54.724 97.6455 54.7426L100.245 54.9975C100.43 55.0151 100.613 54.9406 100.755 54.7903C100.896 54.6401 100.983 54.4263 100.998 54.1959C101.012 53.9656 100.953 53.7374 100.832 53.5615C100.712 53.3855 100.54 53.2762 100.355 53.2575Z" fill="#9FBDFF"/>
<path d="M105.355 53.2574L102.756 53.0025C102.57 52.9849 102.387 53.0594 102.246 53.2097C102.104 53.36 102.017 53.5737 102.002 53.8041C101.988 54.0345 102.047 54.2626 102.168 54.4386C102.288 54.6145 102.46 54.7238 102.645 54.7426L105.244 54.9975C105.43 55.0151 105.613 54.9406 105.754 54.7903C105.896 54.64 105.983 54.4263 105.998 54.1959C106.012 53.9655 105.953 53.7374 105.832 53.5614C105.712 53.3855 105.54 53.2762 105.355 53.2574Z" fill="#9FBDFF"/>
<path d="M59.029 42.5848L59 43L109.875 46.5639L109.904 46.1487L59.029 42.5848Z" fill="white"/>
<path d="M112 40.5962L111.968 41L110.168 40.8632L91 39.4042L91.0346 39L110.201 40.4594L112 40.5962Z" fill="#3F3D56"/>
<path d="M49.0614 36.037C49.0614 36.037 46.3063 48 49.6736 48C53.0409 48 61 34.463 61 34.463L58.2449 31L53.2999 38.0606L53.0409 34.463L49.0614 36.037Z" fill="#A0616A"/>
<path d="M59.5 35C60.8807 35 62 33.8807 62 32.5C62 31.1193 60.8807 30 59.5 30C58.1193 30 57 31.1193 57 32.5C57 33.8807 58.1193 35 59.5 35Z" fill="#A0616A"/>
<path d="M56 25.8876L54.08 24C54.08 24 50.24 26.2022 49.92 28.4045C49.6 30.6067 48 37.5281 48 37.5281L53.92 38L55.84 35.1685L56 25.8876Z" fill="#E6E6E6"/>
</g>
<defs>
<clipPath id="clip0_156_939">
<rect width="188" height="122" fill="white"/>
</clipPath>
</defs>
</svg>
