<svg width="337" height="238" viewBox="0 0 337 238" fill="none" xmlns="http://www.w3.org/2000/svg">
<g clip-path="url(#clip0_0_566)">
<path d="M337 131.037C337 131.268 336.808 131.455 336.571 131.455H0V130.618H336.571C336.808 130.618 337 130.805 337 131.037Z" fill="#E6E6E6"/>
<path d="M110.666 29.3698C117.691 29.3698 123.385 23.8112 123.385 16.9544C123.385 10.0977 117.691 4.53912 110.666 4.53912C103.641 4.53912 97.9468 10.0977 97.9468 16.9544C97.9468 23.8112 103.641 29.3698 110.666 29.3698Z" fill="#FFB6B6"/>
<path d="M117.406 31.9894L100.664 36.6585L98.2726 41.9113L92.8912 67.0077V106.695C92.8912 106.695 86.314 120.702 89.9016 132.959C93.7364 146.06 107.242 130.597 117.406 132.361C127.571 134.126 143.715 135.877 143.715 135.877L134.148 93.2715L131.757 41.3276L117.406 31.9894H117.406Z" fill="#E6E6E6"/>
<path d="M114.247 21.0201L111.661 19.7581C111.661 19.7581 111.014 14.0787 109.721 12.8166C108.428 11.5546 108.428 10.9235 108.428 10.9235L110.368 8.39937C110.368 8.39937 100.67 13.4477 98.731 10.2925C96.7915 7.13729 99.3775 5.87522 99.3775 5.87522L96.145 3.35106C96.145 3.35106 100.024 5.87522 100.67 3.9821C101.317 2.08898 105.196 0.804545 105.196 0.804545C105.196 0.804545 113.666 2.6753 112.987 0.804545C112.307 -1.06621 114.893 0.826907 115.54 1.45794C116.186 2.08898 122.005 8.39937 122.651 7.76833C123.298 7.13729 126.53 9.03041 125.884 9.66145C125.237 10.2925 125.237 10.9235 125.884 11.5546C126.53 12.1856 130.409 19.127 127.177 21.6512C123.944 24.1753 119.419 27.3305 120.065 29.8547C120.712 32.3788 120.065 21.6512 114.247 21.0202L114.247 21.0201Z" fill="#2F2E41"/>
<path d="M51.5465 52.2786C48.2819 49.5317 47.0878 45.6609 48.8791 43.6332C50.6704 41.6055 54.7683 42.189 58.0337 44.9374C59.3535 46.0177 60.3891 47.3909 61.0537 48.9421L74.7354 60.7515L68.921 66.9003L56.0506 54.6055C54.3804 54.1921 52.836 53.3942 51.5465 52.2786L51.5465 52.2786Z" fill="#FFB6B6"/>
<path d="M98.4161 42.112L107.428 41.3123L115.332 78.1051C116.838 85.1158 112.13 91.9604 104.912 93.2537L98.4161 94.4176L57.0154 58.8368L63.064 48.9945L93.5951 67.6885L98.4161 42.112V42.112Z" fill="#E6E6E6"/>
<path d="M78.2962 205.734C78.2962 205.734 71.1481 218.692 71.6587 218.193C72.1692 217.695 80.849 220.685 80.849 220.685L85.9548 207.727L78.2962 205.734Z" fill="#FFB6B6"/>
<path d="M67.7458 115.032C67.7458 115.032 64.0867 129.309 64.4558 128.703C64.825 128.098 73.9918 128.91 73.9918 128.91L75.6715 115.124L67.7458 115.032H67.7458Z" fill="#FFB6B6"/>
<path d="M131.396 112.632C115.242 114.847 100.651 112.916 88.7628 103.817C88.7628 103.817 80.083 132.224 95.9109 135.214C111.739 138.205 129.354 133.065 131.396 128.081C133.438 123.098 131.396 112.632 131.396 112.632Z" fill="#2F2E41"/>
<path d="M101.272 121.603L83.657 162.126L75.4878 208.973L86.2099 211.465L105.389 168.356L131.396 127.085L101.272 121.603Z" fill="#2F2E41"/>
<path d="M98.9743 110.047C98.9743 110.047 94.8897 79.1476 87.2311 77.1541C83.4974 76.1823 80.0065 76.2764 77.409 76.6282C74.7909 76.9827 72.7039 78.9352 72.2461 81.4761L65.2864 120.107H75.128L78.296 109.642L86.7205 124.001L98.9743 110.047V110.047Z" fill="#2F2E41"/>
<path d="M73.9562 124.998L64.2251 124.001L62.7235 129.483C62.7235 129.483 46.8957 143.437 55.0649 144.434C63.2341 145.431 70.8927 139.949 70.8927 139.949L82.1304 133.656C82.1304 133.656 77.7855 122.35 74.722 122.35C71.6586 122.35 73.9562 124.998 73.9562 124.998Z" fill="#2F2E41"/>
<path d="M79.0619 218.442L69.3308 217.446L67.8292 222.928C67.8292 222.928 52.0014 236.882 60.1706 237.879C68.3398 238.876 75.9984 233.394 75.9984 233.394L87.2361 227.101C87.2361 227.101 86.4652 215.296 83.4018 215.296C80.3383 215.296 79.0619 218.442 79.0619 218.442Z" fill="#2F2E41"/>
<path d="M128.334 142.997C127.16 146.925 124.133 149.518 121.572 148.788C119.011 148.059 117.887 144.284 119.061 140.355C119.508 138.779 120.336 137.331 121.474 136.131L126.66 119.55L134.58 122.092L128.626 138.168C128.925 139.777 128.825 141.433 128.334 142.997Z" fill="#FFB6B6"/>
<path d="M133.815 41.3998L129.686 40.263V40.263C125.792 47.8255 124.117 56.2921 124.848 64.726L126.886 88.2592L120.161 129.623L133.342 132.951L143.729 81.0419L133.815 41.3998V41.3998Z" fill="#E6E6E6"/>
<path d="M53.4203 106.071C53.2395 105.531 51.8689 105.769 51.7373 105.286C51.6061 104.804 52.9213 104.401 53.9301 103.044C54.112 102.799 55.2583 101.258 54.8186 100.609C53.9853 99.3801 48.1872 102.441 46.7955 100.723C46.49 100.346 46.3643 99.6992 45.4544 98.4947C45.0924 98.0156 44.8602 97.7842 44.5827 97.7911C44.189 97.8008 44.0481 98.2816 43.4293 99.1525C42.5013 100.459 42.1664 100.295 41.5551 101.365C41.1012 102.159 41.0474 102.667 40.7202 102.697C40.257 102.739 40.0657 101.75 39.4998 101.712C38.9223 101.672 38.3445 102.65 38.058 103.413C37.5205 104.846 37.8533 105.941 37.9271 107.033C38.0073 108.219 37.819 109.955 36.4987 112.184L24.0449 131.552C26.7195 127.603 34.3116 116.837 37.3704 112.888C38.2534 111.747 39.2023 110.603 40.6629 110.387C42.0691 110.18 43.78 110.859 46.1681 110.82C46.447 110.815 47.2232 110.792 47.412 110.391C47.5681 110.059 47.1805 109.77 47.3215 109.458C47.5106 109.04 48.3615 109.219 49.521 108.941C50.3386 108.745 50.8941 108.421 51.3717 108.143C51.5158 108.059 53.6611 106.79 53.4204 106.071H53.4203L53.4203 106.071Z" fill="#F2F2F2"/>
<path d="M20.8016 110.593C20.4778 110.524 20.2019 111.249 19.921 111.173C19.6411 111.097 19.8176 110.35 19.4265 109.475C19.356 109.318 18.9116 108.324 18.4586 108.347C17.6002 108.392 17.4665 112.053 16.2011 112.224C15.9235 112.261 15.5618 112.135 14.6936 112.223C14.3482 112.258 14.1649 112.303 14.0882 112.438C13.9795 112.629 14.1806 112.836 14.44 113.383C14.829 114.205 14.6499 114.318 15.0116 114.919C15.2801 115.366 15.5198 115.538 15.4404 115.704C15.3281 115.938 14.7755 115.744 14.5929 116.004C14.4066 116.27 14.7313 116.828 15.0326 117.186C15.598 117.857 16.2447 118.013 16.8148 118.293C17.4344 118.597 18.2532 119.188 18.9928 120.464L25.138 132.018C23.9244 129.597 20.7013 122.854 19.5981 120.249C19.2796 119.497 18.9778 118.712 19.291 117.95C19.5924 117.217 20.4275 116.593 21.0967 115.437C21.1749 115.302 21.3875 114.924 21.2401 114.718C21.1182 114.547 20.8612 114.65 20.745 114.492C20.5891 114.281 20.9248 113.925 21.1196 113.289C21.2569 112.841 21.2544 112.481 21.2521 112.172C21.2515 112.079 21.2326 110.685 20.8016 110.593V110.593L20.8016 110.593Z" fill="#F2F2F2"/>
<path d="M26.9324 113.412L27.1255 111.672L27.244 111.562C27.7921 111.057 28.135 110.521 28.2636 109.969C28.2841 109.882 28.3 109.793 28.3162 109.703C28.3803 109.345 28.46 108.9 28.8125 108.438C29.0098 108.18 29.5317 107.598 30.07 107.802C30.2152 107.855 30.3133 107.947 30.3814 108.044C30.3985 108.027 30.416 108.011 30.4348 107.992C30.6673 107.772 30.8299 107.691 30.9866 107.613C31.107 107.553 31.2313 107.492 31.4417 107.327C31.534 107.255 31.6079 107.19 31.6702 107.136C31.8591 106.971 32.1006 106.779 32.4316 106.855C32.7823 106.949 32.9026 107.275 32.9824 107.491C33.1249 107.877 33.1688 108.142 33.1978 108.318C33.2083 108.383 33.2204 108.455 33.2296 108.478C33.3064 108.667 34.2702 108.716 34.6328 108.737C35.448 108.78 36.1534 108.817 36.323 109.362C36.4447 109.752 36.1911 110.177 35.5473 110.659C35.3468 110.809 35.1463 110.913 34.9716 110.99C35.0791 111.089 35.1646 111.224 35.1699 111.408C35.1817 111.842 34.7249 112.176 33.8123 112.401C33.5855 112.457 33.2805 112.532 32.8813 112.513C32.6934 112.504 32.5287 112.476 32.3883 112.45C32.3674 112.528 32.329 112.609 32.2598 112.686C32.0567 112.913 31.7286 112.971 31.2834 112.843C30.7919 112.709 30.4035 112.527 30.0608 112.367C29.7614 112.228 29.5033 112.109 29.2867 112.077C28.8839 112.022 28.5083 112.264 28.0588 112.587L26.9324 113.412H26.9324L26.9324 113.412Z" fill="#F2F2F2"/>
<path d="M30.1471 103.497L28.3731 103.756L28.2346 103.672C27.5945 103.283 26.9767 103.095 26.3977 103.114C26.3056 103.117 26.2138 103.124 26.1202 103.132C25.7492 103.162 25.2881 103.2 24.7407 102.984C24.4355 102.863 23.7264 102.518 23.7913 101.958C23.8072 101.807 23.8734 101.691 23.9527 101.602C23.9316 101.591 23.9104 101.578 23.8876 101.565C23.61 101.402 23.4887 101.269 23.3718 101.14C23.282 101.042 23.1894 100.94 22.9733 100.783C22.8785 100.714 22.7955 100.661 22.7258 100.616C22.5147 100.479 22.2624 100.3 22.2542 99.9684C22.2579 99.6134 22.5511 99.417 22.7451 99.2868C23.0912 99.0545 23.3429 98.9457 23.5098 98.8737C23.5709 98.8475 23.6395 98.8177 23.6605 98.8031C23.8282 98.6827 23.6321 97.7603 23.5604 97.4127C23.3964 96.6321 23.2545 95.9566 23.7514 95.6583C24.1068 95.4445 24.5924 95.5762 25.2336 96.0617C25.4331 96.213 25.5866 96.376 25.7076 96.5213C25.7786 96.3947 25.8905 96.2797 26.0711 96.2282C26.4989 96.1068 26.9453 96.4534 27.3997 97.258C27.5132 97.4578 27.6647 97.7269 27.7472 98.1085C27.7859 98.2883 27.7998 98.4509 27.8094 98.5901C27.8921 98.5901 27.9822 98.6058 28.0761 98.6515C28.3526 98.7858 28.493 99.0808 28.4791 99.5337C28.4713 100.032 28.3896 100.445 28.3182 100.809C28.2561 101.127 28.2036 101.4 28.2264 101.613C28.2741 102.007 28.6099 102.301 29.0441 102.643L30.1472 103.497H30.1471L30.1471 103.497Z" fill="#F2F2F2"/>
<path d="M30.3862 98.2972L30.5794 96.5564L30.6979 96.447C31.246 95.9414 31.5889 95.4057 31.7175 94.8544C31.738 94.7667 31.7538 94.678 31.77 94.5878C31.8342 94.2298 31.9138 93.7849 32.2663 93.3228C32.4636 93.0653 32.9855 92.4833 33.5238 92.6866C33.6691 92.7398 33.7672 92.8317 33.8353 92.9292C33.8524 92.9122 33.8699 92.8954 33.8886 92.8771C34.1211 92.6565 34.2838 92.5757 34.4405 92.4979C34.5609 92.4381 34.6852 92.3765 34.8956 92.2122C34.9879 92.1402 35.0618 92.0754 35.124 92.0209C35.3129 91.8563 35.5545 91.6636 35.8854 91.7399C36.2362 91.8335 36.3565 92.1601 36.4363 92.3763C36.5788 92.762 36.6227 93.0273 36.6517 93.2032C36.6621 93.2674 36.6743 93.3398 36.6834 93.3633C36.7602 93.5522 37.724 93.601 38.0867 93.6215C38.9019 93.6646 39.6072 93.702 39.7769 94.2468C39.8986 94.6366 39.6449 95.0617 39.0011 95.544C38.8006 95.694 38.6001 95.7975 38.4255 95.8749C38.5329 95.974 38.6185 96.1089 38.6237 96.2925C38.6355 96.7272 38.1788 97.0608 37.2662 97.2856C37.0394 97.3421 36.7344 97.4169 36.3352 97.398C36.1472 97.389 35.9826 97.3609 35.8422 97.3346C35.8212 97.4127 35.7828 97.4939 35.7136 97.5709C35.5105 97.7978 35.1825 97.8555 34.7373 97.7276C34.2457 97.5939 33.8573 97.4121 33.5146 97.2523C33.2153 97.1131 32.9572 96.994 32.7406 96.9615C32.3378 96.9065 31.9622 97.1493 31.5126 97.4724L30.3862 98.2972H30.3862L30.3862 98.2972Z" fill="#F2F2F2"/>
<path d="M24.6337 131.651L24.32 131.348L24.3257 130.918L24.32 131.348L23.884 131.303C23.8861 131.263 23.8833 131.17 23.8801 131.023C23.8633 130.223 23.8112 127.785 24.1589 124.041C24.4017 121.427 24.8074 118.773 25.3647 116.153C25.923 113.528 26.5024 111.575 26.9677 110.006C27.3189 108.822 27.6734 107.699 28.0194 106.606C28.9429 103.683 29.8148 100.923 30.3548 97.7747C30.4757 97.0719 30.7266 95.6088 30.2128 93.882C29.9147 92.8805 29.4043 91.9379 28.6953 91.081L29.3815 90.5401C30.164 91.4869 30.7284 92.5309 31.0595 93.6428C31.6291 95.5574 31.3557 97.1516 31.2243 97.9175C30.6748 101.122 29.7941 103.908 28.8616 106.859C28.5173 107.948 28.164 109.066 27.8143 110.245C27.3532 111.8 26.779 113.736 26.228 116.327C25.677 118.916 25.2765 121.537 25.0364 124.118C24.6933 127.816 24.7449 130.217 24.7617 131.005C24.7704 131.426 24.7723 131.515 24.6337 131.651L24.6337 131.651Z" fill="#F2F2F2"/>
<path d="M26.8126 92.0718C26.7773 92.0641 26.7418 92.0555 26.7063 92.0452C25.9825 91.8471 25.4019 91.2714 24.9802 90.3342C24.7828 89.8935 24.7362 89.4297 24.6433 88.5048C24.6287 88.3621 24.5643 87.6405 24.6435 86.6841C24.695 86.0592 24.7638 85.8082 24.938 85.6111C25.1315 85.3915 25.3922 85.2658 25.6677 85.2026C25.6751 85.1199 25.7029 85.039 25.7579 84.9623C25.9845 84.644 26.3638 84.7748 26.5696 84.8429C26.6733 84.8792 26.8026 84.9254 26.9479 84.9493C27.1763 84.9879 27.3127 84.9487 27.5192 84.8904C27.7168 84.8344 27.9624 84.7647 28.3019 84.7707C28.9719 84.7796 29.4678 85.0736 29.6314 85.1703C30.4927 85.6754 30.79 86.4814 31.1342 87.4145C31.2026 87.6016 31.4295 88.2777 31.4823 89.1483C31.5205 89.7764 31.4362 90.0335 31.3395 90.2174C31.142 90.5953 30.8396 90.7705 30.0891 91.1391C29.305 91.5254 28.9116 91.7187 28.589 91.818C27.8384 92.048 27.3671 92.1925 26.8126 92.0718V92.0718Z" fill="#F2F2F2"/>
<path d="M228.091 19.2089C228.091 19.2089 232.96 21.9963 231.363 24.7527C229.766 27.5092 227.54 31.2639 229.05 32.4464C230.56 33.6289 233.054 38.8425 233.054 38.8425C233.054 38.8425 243.697 37.3915 242.698 45.4614C241.699 53.5312 236.699 54.6314 240.984 58.1816C245.27 61.7318 236.53 65.9777 236.53 65.9777C236.53 65.9777 230.497 64.1424 229.12 58.4989C227.744 52.8553 230.347 62.8141 229.474 63.5282C228.601 64.2422 225.211 68.949 222.812 62.6911C220.412 56.4332 222.788 54.0069 219.618 50.3136C216.448 46.6203 214.293 40.6465 214.387 39.6023C214.482 38.558 210.761 29.0292 216.488 25.313C222.215 21.5968 228.091 19.2089 228.091 19.2089V19.2089Z" fill="#2F2E41"/>
<path d="M276.053 106.768C278.88 109.051 282.378 109.479 283.867 107.722C285.356 105.966 284.271 102.691 281.442 100.407C280.325 99.4796 278.997 98.8266 277.568 98.5029L265.465 88.974L261.005 94.6134L273.41 103.408C274.004 104.718 274.91 105.87 276.053 106.768Z" fill="#FFB6B6"/>
<path d="M239.777 54.7998C239.777 54.7998 230.279 48.5994 227.169 51.6398C224.058 54.6801 224.801 62.274 224.801 62.274L249.71 90.6094L269.461 102.864L274.757 94.7693L258.152 80.3061L239.777 54.7998V54.7998Z" fill="#3F3D56"/>
<path d="M225.854 41.3687L229.301 53.3257H210.385L216.614 38.5929L225.854 41.3687Z" fill="#FFB6B6"/>
<path opacity="0.1" d="M225.854 41.3687L229.301 53.3257H210.385L216.614 38.5929L225.854 41.3687Z" fill="black"/>
<path d="M184.604 129.651C184.359 133.225 186.051 136.245 188.381 136.396C190.711 136.548 192.797 133.773 193.041 130.198C193.159 128.771 192.924 127.337 192.358 126.017L193.197 110.861L185.902 110.628L185.849 125.594C185.108 126.83 184.681 128.221 184.604 129.651Z" fill="#FFB6B6"/>
<path d="M206.569 70.5351C206.569 70.5351 206.166 59.3885 201.82 58.7042C197.474 58.02 191.599 63.0498 191.599 63.0498L182.622 99.344L183.992 122.149L193.816 121.608L196.122 100.001L206.569 70.5351V70.5351Z" fill="#3F3D56"/>
<path d="M248.703 203.74C248.703 203.74 255.851 216.698 255.34 216.2C254.829 215.701 246.15 218.692 246.15 218.692L241.044 205.734L248.703 203.74Z" fill="#FFB6B6"/>
<path d="M259.253 113.039C259.253 113.039 262.912 127.316 262.543 126.71C262.174 126.104 253.007 126.916 253.007 126.916L251.327 113.13L259.253 113.039Z" fill="#FFB6B6"/>
<path d="M230.832 49.3388H212.986L193.56 62.2964L187.944 107.648L191.008 116.619L196.624 127.085C196.624 127.085 191.008 104.16 204.793 113.13C218.579 122.101 219.6 123.596 219.6 123.596L237.98 114.625L244.873 77.4967L239.767 57.0635L230.832 49.3388Z" fill="#3F3D56"/>
<path d="M195.603 110.638C211.756 112.853 226.347 110.922 238.236 101.823C238.236 101.823 246.916 130.231 231.088 133.221C215.26 136.211 197.645 131.072 195.603 126.088C193.56 121.104 195.603 110.638 195.603 110.638Z" fill="#2F2E41"/>
<path d="M225.727 119.609L243.342 160.133L251.511 206.98L240.789 209.472L221.61 166.363L195.603 125.091L225.727 119.609Z" fill="#2F2E41"/>
<path d="M228.024 108.053C228.024 108.053 232.109 77.1541 239.767 75.1606C243.501 74.1888 246.992 74.283 249.589 74.6347C252.208 74.9893 254.295 76.9417 254.752 79.4826L261.712 118.114H251.87L248.702 107.648L240.278 122.008L228.024 108.053V108.053Z" fill="#2F2E41"/>
<path d="M253.042 123.004L262.773 122.008L264.275 127.49C264.275 127.49 280.103 141.444 271.934 142.441C263.764 143.437 256.106 137.955 256.106 137.955L244.868 131.663C244.868 131.663 249.213 120.357 252.277 120.357C255.34 120.357 253.042 123.004 253.042 123.004Z" fill="#2F2E41"/>
<path d="M247.937 216.449L257.668 215.452L259.169 220.934C259.169 220.934 274.997 234.889 266.828 235.885C258.659 236.882 251 231.4 251 231.4L239.762 225.108C239.762 225.108 240.533 213.303 243.597 213.303C246.66 213.303 247.937 216.449 247.937 216.449Z" fill="#2F2E41"/>
<path d="M221.36 43.9671C227.651 43.9671 232.751 38.9889 232.751 32.8481C232.751 26.7073 227.651 21.7291 221.36 21.7291C215.069 21.7291 209.969 26.7073 209.969 32.8481C209.969 38.9889 215.069 43.9671 221.36 43.9671Z" fill="#FFB6B6"/>
<path d="M225.727 20.4319C225.727 20.4319 227.626 25.6208 224.588 26.7327C221.55 27.8446 217.373 29.3271 217.753 31.1803C218.133 33.0334 216.614 38.5929 216.614 38.5929C216.614 38.5929 225.727 44.1524 219.652 49.7119C213.576 55.2714 209.02 52.9804 209.969 58.3882C210.918 63.7959 201.426 61.5721 201.426 61.5721C201.426 61.5721 198.008 56.3833 200.666 51.1944C203.324 46.0056 198.768 55.2714 197.629 55.2714C196.489 55.2714 190.794 56.7539 193.072 50.4531C195.35 44.1524 198.768 43.7818 198.768 38.9635C198.768 34.1453 201.046 28.2152 201.805 27.4739C202.565 26.7327 205.982 17.0962 212.817 17.8375C219.652 18.5788 225.727 20.4319 225.727 20.4319Z" fill="#2F2E41"/>
<path d="M126.165 203.74C126.165 203.74 119.017 216.698 119.527 216.2C120.038 215.701 128.717 218.692 128.717 218.692L133.823 205.734L126.165 203.74Z" fill="#A0616A"/>
<path d="M179.264 110.638C163.111 112.853 148.52 110.922 136.631 101.823C136.631 101.823 127.951 130.231 143.779 133.221C159.607 136.211 177.222 131.072 179.264 126.088C181.307 121.104 179.264 110.638 179.264 110.638Z" fill="#2F2E41"/>
<path d="M149.14 119.609L131.526 160.133L123.356 206.98L134.079 209.472L153.257 166.363L179.264 125.091L149.14 119.609Z" fill="#2F2E41"/>
<path d="M126.93 216.449L117.199 215.452L115.698 220.934C115.698 220.934 99.8698 234.889 108.039 235.885C116.208 236.882 123.867 231.4 123.867 231.4L135.104 225.108C135.104 225.108 134.334 213.303 131.27 213.303C128.207 213.303 126.93 216.449 126.93 216.449Z" fill="#2F2E41"/>
<path d="M142.305 196.923C142.305 196.923 139.601 211.401 139.929 210.773C140.257 210.146 149.458 210.376 149.458 210.376L150.22 196.513L142.305 196.923Z" fill="#A0616A"/>
<path d="M137.569 109.977L133.622 153.828L140.657 200.85L151.644 199.992L156.262 153.21L167.957 106.12L137.569 109.977Z" fill="#2F2E41"/>
<path d="M147.05 208.781L137.478 210.763L137.783 216.43C137.783 216.43 127.137 234.47 135.223 232.958C143.309 231.446 148.861 223.925 148.861 223.925L157.562 214.556C157.562 214.556 153.098 203.559 150.184 204.482C147.27 205.404 147.05 208.781 147.05 208.781Z" fill="#2F2E41"/>
<path d="M146.776 19.2089C146.776 19.2089 141.907 21.9963 143.504 24.7527C145.101 27.5092 147.327 31.2639 145.817 32.4464C144.306 33.6289 141.813 38.8425 141.813 38.8425C141.813 38.8425 131.17 37.3915 132.169 45.4614C133.168 53.5312 138.168 54.6314 133.883 58.1816C129.597 61.7318 138.337 65.9777 138.337 65.9777C138.337 65.9777 144.37 64.1424 145.747 58.4989C147.123 52.8553 144.519 62.8141 145.393 63.5282C146.266 64.2422 149.656 68.949 152.055 62.6911C154.455 56.4332 152.079 54.0069 155.249 50.3136C158.419 46.6203 160.574 40.6465 160.48 39.6023C160.385 38.558 164.106 29.0292 158.379 25.313C152.652 21.5968 146.776 19.2089 146.776 19.2089V19.2089Z" fill="#2F2E41"/>
<path d="M149.013 41.3687L145.566 53.3257H164.482L158.253 38.5929L149.013 41.3687Z" fill="#A0616A"/>
<path opacity="0.1" d="M149.013 41.3687L145.566 53.3257H164.482L158.253 38.5929L149.013 41.3687Z" fill="black"/>
<path d="M190.263 129.651C190.508 133.225 188.816 136.245 186.486 136.396C184.156 136.548 182.069 133.773 181.826 130.198C181.708 128.771 181.943 127.337 182.509 126.017L181.67 110.861L188.965 110.628L189.018 125.594C189.759 126.83 190.186 128.221 190.263 129.651H190.263Z" fill="#A0616A"/>
<path d="M168.298 70.5351C168.298 70.5351 168.701 59.3885 173.047 58.7042C177.393 58.02 183.268 63.0498 183.268 63.0498L192.245 99.344L190.875 122.149L181.051 121.608L178.745 100.001L168.298 70.5351V70.5351Z" fill="#160AE0"/>
<path d="M144.035 49.3388H161.881L181.307 62.2964L186.923 107.648L183.86 116.619L178.243 127.085C178.243 127.085 183.86 104.16 170.074 113.13C169.936 113.22 169.8 113.309 169.664 113.397C160.79 119.183 149.081 118.589 140.867 111.939L134.334 106.651L137.908 89.2085L135.1 57.0635L144.035 49.3388V49.3388Z" fill="#160AE0"/>
<path d="M99.3793 106.118C96.517 108.36 93.0119 108.735 91.5508 106.957C90.0896 105.178 91.2256 101.92 94.0892 99.6784C95.2205 98.7675 96.5588 98.1343 97.9922 97.8317L110.243 88.4835L114.614 94.1884L102.074 102.798C101.46 104.099 100.536 105.237 99.3793 106.118V106.118Z" fill="#A0616A"/>
<path d="M136.459 54.6943C136.459 54.6943 146.053 48.6356 149.116 51.7217C152.179 54.8078 151.318 62.3899 151.318 62.3899L125.971 90.3525L106.031 102.313L100.861 94.1403L117.69 79.9251L136.459 54.6943Z" fill="#160AE0"/>
<path d="M153.507 43.9671C159.798 43.9671 164.898 38.9889 164.898 32.8481C164.898 26.7073 159.798 21.7291 153.507 21.7291C147.216 21.7291 142.115 26.7073 142.115 32.8481C142.115 38.9889 147.216 43.9671 153.507 43.9671Z" fill="#A0616A"/>
<path d="M147.836 25.3952C147.836 25.3952 146.158 19.9349 148.955 19.9349C151.752 19.9349 162.94 20.4809 164.058 21.5729C165.177 22.665 178.416 33.6251 170.585 42.3616C162.753 51.098 170.585 55.3192 170.585 55.3192C170.585 55.3192 176.365 68.5314 170.771 69.6235C165.177 70.7155 142.231 64.4711 147.836 54.3346C153.918 43.3344 156.748 25.9724 147.836 25.3952L147.836 25.3952Z" fill="#2F2E41"/>
<path d="M334.237 106.57C334.056 106.029 332.685 106.267 332.553 105.784C332.422 105.303 333.738 104.899 334.746 103.542C334.928 103.298 336.074 101.756 335.635 101.108C334.801 99.8785 329.003 102.94 327.612 101.222C327.306 100.845 327.18 100.198 326.271 98.9931C325.909 98.514 325.676 98.2826 325.399 98.2895C325.005 98.2992 324.864 98.78 324.245 99.6508C323.317 100.957 322.983 100.793 322.371 101.863C321.917 102.658 321.864 103.165 321.536 103.195C321.073 103.237 320.882 102.248 320.316 102.21C319.738 102.171 319.161 103.148 318.874 103.912C318.337 105.344 318.67 106.44 318.743 107.531C318.824 108.717 318.635 110.454 317.315 112.682L304.861 132.05C307.536 128.102 315.128 117.335 318.187 113.386C319.07 112.246 320.019 111.101 321.479 110.886C322.885 110.678 324.596 111.357 326.984 111.318C327.263 111.313 328.039 111.291 328.228 110.889C328.384 110.557 327.997 110.269 328.138 109.957C328.327 109.538 329.178 109.718 330.337 109.44C331.155 109.243 331.71 108.92 332.188 108.641C332.332 108.557 334.477 107.289 334.237 106.57V106.57Z" fill="#F2F2F2"/>
<path d="M301.618 111.091C301.294 111.022 301.018 111.747 300.737 111.671C300.457 111.595 300.634 110.848 300.243 109.974C300.172 109.816 299.728 108.822 299.275 108.846C298.416 108.89 298.283 112.551 297.017 112.722C296.74 112.76 296.378 112.633 295.51 112.722C295.164 112.757 294.981 112.801 294.904 112.936C294.796 113.128 294.997 113.334 295.256 113.882C295.645 114.703 295.466 114.816 295.828 115.418C296.096 115.864 296.336 116.037 296.257 116.202C296.144 116.436 295.592 116.242 295.409 116.503C295.223 116.768 295.547 117.327 295.849 117.684C296.414 118.355 297.061 118.512 297.631 118.791C298.251 119.095 299.069 119.686 299.809 120.962L305.954 132.516C304.741 130.096 301.517 123.352 300.414 120.747C300.096 119.995 299.794 119.21 300.107 118.449C300.409 117.715 301.244 117.091 301.913 115.936C301.991 115.801 302.204 115.423 302.056 115.216C301.934 115.046 301.677 115.148 301.561 114.99C301.405 114.779 301.741 114.423 301.936 113.788C302.073 113.339 302.071 112.98 302.068 112.671C302.068 112.577 302.049 111.184 301.618 111.091V111.091V111.091Z" fill="#F2F2F2"/>
<path d="M307.749 113.911L307.942 112.17L308.06 112.061C308.608 111.555 308.951 111.019 309.08 110.468C309.1 110.38 309.116 110.292 309.132 110.201C309.196 109.843 309.276 109.398 309.629 108.936C309.826 108.679 310.348 108.097 310.886 108.3C311.031 108.353 311.129 108.445 311.198 108.543C311.215 108.526 311.232 108.509 311.251 108.491C311.483 108.27 311.646 108.189 311.803 108.111C311.923 108.052 312.047 107.99 312.258 107.826C312.35 107.754 312.424 107.689 312.486 107.634C312.675 107.47 312.917 107.277 313.248 107.353C313.599 107.447 313.719 107.774 313.799 107.99C313.941 108.376 313.985 108.641 314.014 108.817C314.024 108.881 314.037 108.953 314.046 108.977C314.123 109.166 315.086 109.215 315.449 109.235C316.264 109.278 316.97 109.315 317.139 109.86C317.261 110.25 317.007 110.675 316.363 111.157C316.163 111.307 315.962 111.411 315.788 111.488C315.895 111.588 315.981 111.722 315.986 111.906C315.998 112.341 315.541 112.674 314.628 112.899C314.402 112.956 314.097 113.03 313.697 113.012C313.51 113.002 313.345 112.974 313.204 112.948C313.184 113.026 313.145 113.107 313.076 113.184C312.873 113.411 312.545 113.469 312.1 113.341C311.608 113.207 311.22 113.026 310.877 112.866C310.578 112.727 310.319 112.608 310.103 112.575C309.7 112.52 309.324 112.763 308.875 113.086L307.749 113.911H307.749V113.911Z" fill="#F2F2F2"/>
<path d="M310.963 103.996L309.189 104.255L309.051 104.171C308.411 103.781 307.793 103.594 307.214 103.612C307.122 103.615 307.03 103.622 306.936 103.63C306.565 103.66 306.104 103.698 305.557 103.482C305.252 103.361 304.543 103.016 304.607 102.456C304.623 102.306 304.69 102.19 304.769 102.101C304.748 102.089 304.727 102.077 304.704 102.064C304.426 101.9 304.305 101.767 304.188 101.639C304.098 101.54 304.006 101.439 303.789 101.282C303.695 101.213 303.612 101.159 303.542 101.114C303.331 100.978 303.079 100.799 303.07 100.467C303.074 100.112 303.367 99.9154 303.561 99.7852C303.907 99.5528 304.159 99.4441 304.326 99.3721C304.387 99.3459 304.456 99.3161 304.477 99.3015C304.644 99.1811 304.448 98.2587 304.377 97.9111C304.213 97.1305 304.071 96.455 304.568 96.1566C304.923 95.9429 305.409 96.0745 306.05 96.5601C306.249 96.7113 306.403 96.8744 306.524 97.0196C306.595 96.8931 306.707 96.778 306.887 96.7265C307.315 96.6051 307.762 96.9518 308.216 97.7564C308.329 97.9562 308.481 98.2252 308.563 98.6069C308.602 98.7867 308.616 98.9493 308.626 99.0885C308.708 99.0885 308.798 99.1041 308.892 99.1499C309.169 99.2841 309.309 99.5792 309.295 100.032C309.287 100.53 309.206 100.943 309.134 101.307C309.072 101.625 309.02 101.899 309.043 102.112C309.09 102.506 309.426 102.799 309.86 103.141L310.963 103.996H310.963V103.996Z" fill="#F2F2F2"/>
<path d="M311.202 98.7955L311.396 97.0548L311.514 96.9454C312.062 96.4398 312.405 95.9041 312.534 95.3527C312.554 95.2651 312.57 95.1764 312.586 95.0861C312.65 94.7282 312.73 94.2833 313.082 93.8211C313.28 93.5637 313.802 92.9817 314.34 93.185C314.485 93.2381 314.583 93.3301 314.651 93.4275C314.669 93.4106 314.686 93.3938 314.705 93.3755C314.937 93.1549 315.1 93.0741 315.257 92.9963C315.377 92.9364 315.501 92.8748 315.712 92.7106C315.804 92.6386 315.878 92.5738 315.94 92.5193C316.129 92.3547 316.371 92.1619 316.702 92.2383C317.052 92.3319 317.173 92.6585 317.252 92.8747C317.395 93.2604 317.439 93.5256 317.468 93.7015C317.478 93.7658 317.49 93.8382 317.5 93.8617C317.576 94.0506 318.54 94.0994 318.903 94.1198C319.718 94.163 320.423 94.2004 320.593 94.7452C320.715 95.135 320.461 95.5601 319.817 96.0423C319.617 96.1924 319.416 96.2959 319.242 96.3732C319.349 96.4724 319.435 96.6072 319.44 96.7909C319.452 97.2256 318.995 97.5591 318.082 97.784C317.856 97.8405 317.551 97.9153 317.151 97.8964C316.963 97.8873 316.799 97.8592 316.658 97.833C316.637 97.911 316.599 97.9922 316.53 98.0693C316.327 98.2962 315.999 98.3539 315.553 98.226C315.062 98.0923 314.673 97.9105 314.331 97.7506C314.031 97.6114 313.773 97.4924 313.557 97.4599C313.154 97.4049 312.778 97.6477 312.329 97.9707L311.202 98.7955H311.202V98.7955Z" fill="#F2F2F2"/>
<path d="M305.45 132.149L305.136 131.847L305.142 131.417L305.136 131.847L304.7 131.802C304.702 131.762 304.699 131.668 304.696 131.522C304.679 130.721 304.627 128.284 304.975 124.539C305.218 121.925 305.624 119.272 306.181 116.651C306.739 114.027 307.319 112.074 307.784 110.504C308.135 109.32 308.49 108.198 308.836 107.104C309.759 104.182 310.631 101.422 311.171 98.2731C311.292 97.5702 311.543 96.1072 311.029 94.3804C310.731 93.3789 310.22 92.4362 309.511 91.5794L310.198 91.0384C310.98 91.9852 311.545 93.0292 311.876 94.1412C312.445 96.0558 312.172 97.6499 312.041 98.4159C311.491 101.62 310.61 104.407 309.678 107.357C309.333 108.447 308.98 109.565 308.631 110.744C308.169 112.299 307.595 114.235 307.044 116.825C306.493 119.414 306.093 122.035 305.853 124.617C305.509 128.314 305.561 130.715 305.578 131.504C305.587 131.925 305.588 132.013 305.45 132.149V132.149Z" fill="#F2F2F2"/>
<path d="M307.629 92.5701C307.594 92.5625 307.558 92.5539 307.522 92.5435C306.799 92.3455 306.218 91.7698 305.796 90.8326C305.599 90.3919 305.552 89.9281 305.459 89.0031C305.445 88.8605 305.38 88.1389 305.46 87.1825C305.511 86.5575 305.58 86.3065 305.754 86.1095C305.948 85.8899 306.208 85.7641 306.484 85.701C306.491 85.6183 306.519 85.5374 306.574 85.4607C306.801 85.1424 307.18 85.2732 307.386 85.3413C307.49 85.3776 307.619 85.4238 307.764 85.4477C307.992 85.4863 308.129 85.4471 308.335 85.3887C308.533 85.3327 308.779 85.2631 309.118 85.269C309.788 85.278 310.284 85.5719 310.448 85.6686C311.309 86.1738 311.606 86.9797 311.95 87.9129C312.019 88.1 312.246 88.7761 312.299 89.6467C312.337 90.2748 312.252 90.5319 312.156 90.7157C311.958 91.0937 311.656 91.2689 310.905 91.6375C310.121 92.0238 309.728 92.217 309.405 92.3164C308.655 92.5464 308.183 92.6908 307.629 92.5701V92.5701Z" fill="#F2F2F2"/>
<path d="M85.3476 102.013L84.7715 84.2744C84.7622 83.9865 84.8781 83.7062 85.0897 83.5053C85.3014 83.3044 85.5919 83.199 85.8867 83.2163L100.307 84.0605C100.599 84.0774 100.872 84.2134 101.057 84.4334C101.243 84.6534 101.327 84.9413 101.288 85.2235L98.8481 102.854C98.7743 103.388 98.2855 103.777 97.7354 103.742L86.3302 103.006C86.2145 102.998 86.1044 102.973 86.0023 102.933C85.6256 102.784 85.3612 102.431 85.3476 102.013Z" fill="#160AE0"/>
<path d="M84.7894 82.615C84.9912 82.5943 85.2614 82.5688 85.5859 82.5422C85.4991 82.3845 85.4636 82.1981 85.5007 82.0067L85.7582 80.678C85.8251 80.3332 86.1097 80.0688 86.4661 80.0223C88.5894 79.7452 95.8927 78.9933 100.491 81.0297C100.779 81.1572 100.964 81.437 100.973 81.7452L101.015 83.1627C101.021 83.338 100.968 83.5004 100.877 83.6351C101.259 83.7354 101.64 83.8416 102.018 83.9572C102.255 84.0298 102.425 84.2338 102.453 84.4745L102.525 85.0783C102.57 85.4615 102.248 85.7909 101.854 85.7649L84.6138 84.6284C84.2215 84.6025 83.9483 84.2371 84.0427 83.8645L84.2413 83.0806C84.3053 82.8281 84.5244 82.6422 84.7894 82.615V82.615Z" fill="#3F3D56"/>
<path d="M41.9487 51.6773L41.3726 33.9389C41.3632 33.651 41.4792 33.3706 41.6908 33.1698C41.9025 32.9689 42.1929 32.8635 42.4878 32.8807L56.9085 33.725C57.1998 33.7419 57.4732 33.8779 57.6585 34.0979C57.8438 34.3178 57.9277 34.6058 57.8887 34.888L55.4492 52.5186C55.3754 53.052 54.8866 53.4419 54.3365 53.4062L42.9313 52.6701C42.8156 52.6626 42.7054 52.6374 42.6034 52.5971C42.2267 52.4484 41.9623 52.095 41.9487 51.6773V51.6773Z" fill="#160AE0"/>
<path d="M41.3905 32.2795C41.5922 32.2588 41.8625 32.2333 42.1869 32.2067C42.1002 32.049 42.0647 31.8626 42.1018 31.6712L42.3593 30.3425C42.4262 29.9977 42.7108 29.7333 43.0672 29.6868C45.1905 29.4097 52.4938 28.6578 57.0925 30.6943C57.3802 30.8217 57.5653 31.1015 57.5745 31.4097L57.6165 32.8272C57.6217 33.0025 57.5696 33.1649 57.4781 33.2996C57.8604 33.3999 58.2415 33.5061 58.6195 33.6217C58.8564 33.6943 59.0259 33.8983 59.0544 34.139L59.1258 34.7428C59.1712 35.126 58.8494 35.4554 58.4552 35.4294L41.2149 34.2929C40.8226 34.267 40.5493 33.9016 40.6437 33.529L40.8424 32.7451C40.9064 32.4926 41.1254 32.3067 41.3905 32.2795V32.2795Z" fill="#3F3D56"/>
<path d="M268.133 106.498L267.557 88.7597C267.548 88.4718 267.664 88.1915 267.876 87.9907C268.087 87.7897 268.378 87.6844 268.673 87.7016L283.093 88.5458C283.385 88.5627 283.658 88.6987 283.843 88.9188C284.029 89.1387 284.113 89.4267 284.074 89.7089L281.634 107.339C281.56 107.873 281.071 108.263 280.521 108.227L269.116 107.491C269 107.483 268.89 107.458 268.788 107.418C268.412 107.269 268.147 106.916 268.133 106.498Z" fill="#160AE0"/>
<path d="M267.575 87.1003C267.777 87.0796 268.047 87.0541 268.372 87.0275C268.285 86.8699 268.25 86.6834 268.287 86.4921L268.544 85.1634C268.611 84.8185 268.896 84.5542 269.252 84.5077C271.375 84.2305 278.679 83.4786 283.277 85.5151C283.565 85.6425 283.75 85.9223 283.759 86.2306L283.801 87.6481C283.807 87.8233 283.754 87.9858 283.663 88.1204C284.045 88.2208 284.426 88.3269 284.804 88.4426C285.041 88.5151 285.211 88.7192 285.239 88.9599L285.311 89.5637C285.356 89.9468 285.034 90.2762 284.64 90.2502L267.4 89.1137C267.007 89.0879 266.734 88.7224 266.829 88.3498L267.027 87.566C267.091 87.3134 267.31 87.1276 267.575 87.1003V87.1003Z" fill="#3F3D56"/>
</g>
<defs>
<clipPath id="clip0_0_566">
<rect width="337" height="238" fill="white"/>
</clipPath>
</defs>
</svg>
