<svg width="222" height="358" viewBox="0 0 222 358" fill="none" xmlns="http://www.w3.org/2000/svg">
<g clip-path="url(#clip0_1_547)">
<path d="M116.792 293.104L129.169 306.402L136.31 293.98L125.044 282.514L116.792 293.104Z" fill="#FFB8B8"/>
<path d="M129.328 307.198L116.237 293.184L125.044 281.877L136.866 293.98L129.328 307.198ZM117.427 293.105L129.169 305.606L135.755 293.98L125.123 283.151L117.427 293.105Z" fill="black"/>
<path d="M131.788 291.592L134.406 289.521C134.406 289.521 134.565 289.84 138.056 292.627C141.547 295.414 145.355 296.449 145.355 296.449C145.355 296.449 157.019 307.437 156.384 307.437C155.749 307.437 157.812 309.348 148.37 319.381C138.928 329.414 117.665 351.948 116.157 351.948C114.57 351.948 112.587 352.745 111.397 349.082C110.207 345.419 117.823 325.512 118.696 321.69C119.569 317.868 121.552 303.934 121.552 302.023C121.552 302.023 123.853 300.112 125.044 301.386C126.234 302.66 126.71 302.182 126.71 302.182C126.71 302.182 129.963 300.112 131.867 297.802C133.771 295.573 133.692 294.379 133.692 294.379L131.788 291.592Z" fill="black"/>
<path d="M114.65 352.506C113.38 352.506 111.873 352.108 110.921 349.241C110.048 346.693 112.904 337.855 116.078 328.22C117.109 325.274 117.903 322.646 118.141 321.531C119.014 317.55 120.997 303.854 120.997 301.943V301.704L121.156 301.545C121.235 301.465 123.774 299.395 125.282 300.908C125.916 301.545 126.313 301.625 126.313 301.625C126.313 301.625 129.566 299.554 131.391 297.325C132.819 295.653 133.057 294.697 133.057 294.379L130.994 291.432L134.406 288.645L134.644 289.123C134.723 289.282 135.358 289.84 138.214 292.149C141.626 294.856 145.355 295.891 145.355 295.891H145.435L145.514 295.971C156.939 306.8 156.86 307.119 156.701 307.517L156.622 307.835H156.543C156.384 308.871 155.908 311.817 148.608 319.62C117.903 352.267 116.554 352.267 115.999 352.267C115.761 352.267 115.522 352.267 115.284 352.267C115.205 352.506 114.888 352.506 114.65 352.506ZM121.949 302.182C121.87 304.969 119.886 318.266 119.093 321.77C118.855 322.885 117.982 325.353 116.951 328.538C114.729 335.227 110.921 346.534 111.793 348.923C112.746 351.71 114.015 351.63 115.364 351.471C115.602 351.471 115.84 351.471 116.078 351.471C116.633 351.311 121.076 347.728 147.974 319.063C152.813 313.887 155.432 310.065 155.67 307.676C155.67 307.597 155.67 307.437 155.749 307.358C154.718 306.084 148.767 300.43 145.038 296.847C144.324 296.608 140.912 295.573 137.659 292.945C135.596 291.353 134.723 290.477 134.247 290.079L132.343 291.671L134.009 294.14V294.299C134.009 294.458 134.089 295.653 132.105 298.041C130.28 300.271 127.186 302.262 126.868 302.5C126.789 302.58 126.551 302.739 126.154 302.66C125.678 302.58 125.202 302.262 124.647 301.704C123.933 300.908 122.425 301.863 121.949 302.182Z" fill="black"/>
<path d="M152.655 303.536C152.655 303.536 152.099 308.95 144.006 318.187C135.914 327.424 118.3 347.25 111.952 350.515C111.952 350.515 112.984 354.019 116.395 353.7C119.886 353.382 156.463 313.25 156.463 313.25C156.463 313.25 158.685 309.587 158.367 306.96C158.05 304.332 154.083 301.465 152.813 301.386C151.544 301.306 151.068 302.023 151.068 302.023L152.655 303.536Z" fill="white"/>
<path d="M115.999 354.178C113.301 354.178 111.952 351.948 111.555 350.674L111.476 350.276L111.793 350.117C118.3 346.773 137.421 325.035 143.689 317.868C150.671 309.906 152.02 304.73 152.179 303.615L150.592 302.023L150.751 301.704C150.83 301.624 151.385 300.749 152.893 300.908C154.321 300.987 158.526 304.013 158.923 306.88C159.32 309.587 157.098 313.33 156.939 313.489L156.86 313.568C153.131 317.709 119.966 353.859 116.475 354.178C116.316 354.178 116.157 354.178 115.999 354.178ZM112.587 350.754C112.904 351.55 114.015 353.461 116.475 353.222C118.855 352.983 141.547 329.016 156.225 312.931C156.463 312.533 158.367 309.269 158.05 307.039C157.733 304.73 154.004 301.943 152.893 301.863C152.417 301.863 152.099 301.943 151.861 302.023L153.21 303.376V303.615C153.21 303.854 152.575 309.348 144.403 318.585C138.135 325.592 119.569 346.773 112.587 350.754Z" fill="black"/>
<path d="M133.216 330.29C133.216 330.29 132.105 327.025 129.249 328.459C126.392 329.892 120.283 337.775 117.109 339.766C113.936 341.756 112.745 340.721 112.745 340.721C112.745 340.721 110.603 347.091 111.159 348.684C111.714 350.276 111.714 350.276 111.714 350.276C111.714 350.276 112.587 350.993 117.665 346.136C117.744 346.136 129.645 334.669 133.216 330.29Z" fill="black"/>
<path d="M111.952 350.754C111.793 350.754 111.635 350.674 111.476 350.595L111.397 350.515L110.762 348.843C110.127 347.171 112.111 341.199 112.349 340.562L112.587 339.925L113.142 340.403C113.142 340.403 114.253 341.199 116.951 339.447C118.379 338.491 120.6 336.182 122.743 333.953C125.202 331.325 127.582 328.857 129.09 328.06C129.963 327.583 130.836 327.503 131.629 327.822C133.057 328.379 133.612 330.051 133.692 330.131L133.771 330.37L133.612 330.609C130.042 334.988 118.537 346.056 118.061 346.534C115.126 349.321 113.063 350.754 111.952 350.754ZM113.063 341.358C112.269 343.826 111.317 347.569 111.635 348.524L112.111 349.798C112.587 349.719 113.936 349.082 117.347 345.817C117.427 345.737 128.931 334.749 132.66 330.21C132.502 329.812 132.026 329.016 131.232 328.697C130.677 328.459 130.121 328.538 129.487 328.857C128.059 329.573 125.678 332.121 123.377 334.51C121.076 336.899 118.934 339.129 117.427 340.164C115.205 341.597 113.777 341.597 113.063 341.358Z" fill="black"/>
<path d="M143.848 295.971C143.848 295.971 145.196 304.013 139.563 312.693C134.803 320.177 131.629 317.948 130.518 314.126C130.518 314.126 128.535 317.47 131.629 320.974C134.723 324.477 139.484 318.426 141.388 315.4C143.848 311.339 147.418 304.173 145.911 297.006L145.355 296.449L143.848 295.971Z" fill="#F9A826"/>
<path d="M133.771 322.487C132.819 322.487 131.946 322.088 131.232 321.292C127.9 317.629 130.042 313.967 130.042 313.887L130.597 312.931L130.915 313.967C131.47 315.798 132.422 316.913 133.454 317.072C135.041 317.311 137.024 315.639 139.087 312.374C144.482 303.934 143.292 296.051 143.292 295.971L143.134 295.175L145.435 295.971L146.228 296.688V296.847C147.339 302.341 145.831 308.632 141.626 315.559C141.229 316.196 137.58 322.009 134.009 322.327C134.009 322.407 133.93 322.487 133.771 322.487ZM130.518 315.4C130.201 316.594 130.201 318.585 132.026 320.576C132.66 321.213 133.295 321.531 134.089 321.451C136.628 321.213 139.643 317.311 140.991 315.081C145.038 308.472 146.545 302.421 145.514 297.165L145.117 296.767L144.403 296.528C144.562 298.758 144.641 305.526 139.96 312.772C137.58 316.435 135.358 318.187 133.374 317.868C132.184 317.868 131.153 316.913 130.518 315.4Z" fill="black"/>
<path d="M127.662 301.386C127.662 301.386 127.979 298.28 125.282 298.121C122.584 297.962 119.886 300.191 119.886 300.191C119.886 300.191 118.617 317.311 118.22 322.964L116.554 328.14C116.554 328.14 117.823 329.573 120.918 327.981C124.012 326.388 126.789 315.4 127.106 313.728C127.424 312.056 128.138 303.615 127.662 301.386Z" fill="#F9A826"/>
<path d="M118.299 329.175C116.951 329.175 116.316 328.459 116.237 328.459L116.078 328.22L117.823 322.805C118.22 317.152 119.49 300.112 119.49 300.112V299.952L119.648 299.793C119.728 299.713 122.505 297.404 125.361 297.564C126.234 297.643 126.868 297.962 127.344 298.519C128.217 299.554 128.138 300.987 128.138 301.306C128.614 303.774 127.821 312.215 127.583 313.807C127.344 315.32 124.568 326.707 121.156 328.379C119.966 329.016 119.014 329.175 118.299 329.175ZM117.109 327.981C117.506 328.22 118.617 328.618 120.68 327.583C123.457 326.149 126.234 315.798 126.551 313.648C126.868 311.896 127.503 303.536 127.106 301.465V301.386V301.306C127.106 301.306 127.265 299.952 126.551 299.156C126.234 298.758 125.758 298.599 125.202 298.519C123.06 298.36 120.918 299.952 120.283 300.43C120.124 302.341 119.014 317.709 118.617 322.964V323.044L117.109 327.981Z" fill="black"/>
<path d="M118.855 313.807C118.855 313.807 117.427 313.887 117.109 312.533C116.713 311.18 117.585 310.702 118.537 310.383C119.569 310.065 126.71 308.472 128.455 309.348C130.201 310.145 129.804 311.817 128.376 312.294C127.741 312.454 127.344 312.454 125.361 312.533C123.536 312.533 120.997 312.931 118.855 313.807Z" fill="#F9A826"/>
<path d="M118.775 314.285C118.141 314.285 116.951 313.967 116.633 312.613C116.078 310.702 117.665 310.145 118.379 309.906C119.172 309.667 126.63 307.915 128.693 308.87C129.645 309.348 130.201 310.065 130.121 310.941C130.042 311.737 129.407 312.454 128.535 312.693C127.979 312.852 127.583 312.852 126.313 312.931H125.361C123.06 313.011 120.759 313.489 119.014 314.205H118.855C118.855 314.285 118.855 314.285 118.775 314.285ZM126.868 309.587C124.25 309.587 119.648 310.543 118.696 310.861C117.665 311.259 117.268 311.498 117.585 312.454C117.823 313.33 118.537 313.409 118.775 313.409C120.6 312.613 123.06 312.135 125.361 312.056H126.313C127.503 312.056 127.821 311.976 128.297 311.896C128.852 311.737 129.169 311.419 129.169 310.941C129.169 310.543 128.852 310.065 128.297 309.826C127.979 309.587 127.503 309.587 126.868 309.587Z" fill="black"/>
<path d="M118.776 318.266C118.776 318.266 117.506 318.266 117.268 317.072C117.03 315.878 117.744 315.48 118.617 315.241C119.49 315.002 125.361 314.365 126.948 314.922C128.931 315.559 128.059 317.231 127.503 317.391C126.948 317.55 126.789 317.629 125.044 317.55C123.457 317.47 120.759 317.629 118.776 318.266Z" fill="#F9A826"/>
<path d="M118.855 318.744C118.22 318.744 117.109 318.426 116.792 317.152C116.395 315.4 117.823 315.002 118.538 314.763C119.49 314.524 125.361 313.887 127.107 314.444C128.535 314.922 128.693 315.798 128.693 316.196C128.693 316.913 128.217 317.629 127.662 317.789C127.027 317.948 126.71 318.028 125.044 317.948C124.171 317.948 121.077 317.948 118.855 318.744ZM124.885 315.161C122.584 315.161 119.331 315.559 118.776 315.718C117.823 315.957 117.585 316.196 117.744 316.992C117.903 317.709 118.538 317.868 118.696 317.868C120.997 317.152 124.092 317.152 125.044 317.152C126.63 317.152 126.869 317.152 127.345 316.992C127.503 316.913 127.741 316.594 127.741 316.196C127.741 315.718 127.265 315.48 126.868 315.4C126.472 315.161 125.758 315.161 124.885 315.161Z" fill="black"/>
<path d="M118.141 322.327C118.141 322.327 117.347 321.77 117.268 320.576C117.189 319.381 120.68 318.903 123.457 319.302C126.392 319.779 126.71 320.894 126.551 321.69C126.392 322.487 126.154 322.646 125.52 322.487C124.805 322.407 121.076 321.531 118.141 322.327Z" fill="#F9A826"/>
<path d="M125.837 323.124C125.678 323.124 125.52 323.124 125.361 323.044C124.964 322.964 121.156 322.009 118.22 322.805L117.982 322.885L117.823 322.726C117.744 322.726 116.792 322.009 116.713 320.655C116.713 320.416 116.792 320.098 117.109 319.779C118.22 318.824 121.235 318.585 123.457 318.983C125.123 319.222 126.234 319.779 126.71 320.496C127.027 320.894 127.106 321.451 126.948 321.929C126.789 322.487 126.63 323.124 125.837 323.124ZM120.997 321.531C123.139 321.531 125.044 322.009 125.599 322.089C125.837 322.168 125.916 322.089 125.916 322.089C125.916 322.089 125.996 322.009 126.075 321.611C126.154 321.372 126.075 321.133 125.996 320.894C125.758 320.576 125.123 320.018 123.377 319.779C120.997 319.381 118.458 319.779 117.823 320.416C117.744 320.416 117.744 320.496 117.744 320.576C117.744 321.213 118.141 321.611 118.299 321.85C119.172 321.611 120.124 321.531 120.997 321.531Z" fill="black"/>
<path d="M116.474 326.468C116.474 326.468 115.681 325.751 116.316 324.557C116.871 323.522 119.489 322.885 122.108 323.92C124.726 324.955 125.123 326.07 124.885 326.786C124.567 327.503 124.409 327.742 123.774 327.503C123.139 327.264 119.331 325.353 116.474 326.468Z" fill="#F9A826"/>
<path d="M124.25 328.06C124.091 328.06 123.853 327.981 123.615 327.901C123.536 327.901 123.457 327.822 123.298 327.742C122.266 327.264 119.013 325.911 116.713 326.866L116.395 326.946L116.157 326.707C115.84 326.388 115.284 325.433 115.919 324.318C116.633 323.044 119.569 322.407 122.346 323.522C125.599 324.796 125.678 326.229 125.361 327.025C125.123 327.583 124.885 328.06 124.25 328.06ZM118.458 325.672C120.6 325.672 122.663 326.548 123.615 326.946C123.774 327.025 123.853 327.025 123.933 327.105C124.171 327.185 124.25 327.185 124.25 327.185C124.25 327.185 124.329 327.105 124.488 326.707C124.726 325.99 123.853 325.194 122.028 324.477C119.49 323.442 117.189 324.159 116.792 324.875C116.554 325.353 116.633 325.751 116.713 325.99C117.268 325.751 117.903 325.672 118.458 325.672Z" fill="black"/>
<path d="M133.612 294.299L131.708 291.592L135.12 288.884C135.12 288.884 139.246 293.901 141.467 294.936C141.547 294.936 139.801 298.439 133.612 294.299Z" fill="#F9A826"/>
<path d="M138.77 296.767C137.262 296.767 135.437 296.051 133.374 294.697L133.216 294.538L131.073 291.432L135.199 288.088L135.517 288.407C135.596 288.486 139.563 293.343 141.705 294.379L142.102 294.538L141.864 294.936C141.864 295.016 141.309 296.051 139.881 296.449C139.563 296.767 139.166 296.767 138.77 296.767ZM133.93 293.98C136.865 295.891 138.69 295.971 139.642 295.732C140.198 295.573 140.595 295.254 140.833 295.016C138.849 293.821 135.993 290.556 135.041 289.442L132.343 291.592L133.93 293.98Z" fill="black"/>
<path d="M149.719 310.224L152.099 327.025C152.099 327.025 149.005 329.255 144.006 329.414C139.008 329.573 137.58 328.459 137.58 328.459L134.803 308.154L149.719 310.224Z" fill="#FFB8B8"/>
<path d="M142.975 329.892C138.77 329.892 137.421 328.936 137.342 328.857L137.183 328.777L134.327 307.676L150.195 309.826L152.655 327.264L152.417 327.424C152.258 327.503 149.084 329.733 144.086 329.892C143.61 329.892 143.292 329.892 142.975 329.892ZM137.976 328.22C138.452 328.459 140.119 329.096 143.927 328.936C147.894 328.777 150.751 327.264 151.544 326.787L149.243 310.622L135.279 308.711L137.976 328.22Z" fill="black"/>
<path d="M22.5332 72.7784L16.1858 146.512H23.882L28.8806 72.7784H22.5332Z" fill="#F9A826"/>
<path d="M24.358 146.99H15.6304L15.7097 146.512L22.1364 72.3007H29.4359L24.358 146.99ZM16.6618 146.035H23.4059L28.4045 73.2562H23.0092L16.6618 146.035Z" fill="black"/>
<path d="M40.5439 53.0311H102.193C102.193 53.0311 113.222 52.5534 118.617 65.851C124.012 79.1486 133.851 102.001 133.851 102.001H114.015C114.015 102.001 116.951 117.29 120.918 125.411C124.806 133.533 126.789 138.231 126.551 141.416C126.313 144.601 124.091 146.353 124.091 146.353H64.9814L58.7927 123.421L42.3688 132.02C42.3688 132.02 34.5933 112.99 29.5947 98.8959C24.5961 84.802 16.1065 67.762 22.1365 59.5605C27.4524 52.3145 40.5439 53.0311 40.5439 53.0311Z" fill="#133386"/>
<path d="M124.171 146.751H64.5847L58.4754 124.058L42.1308 132.658L41.9721 132.18C41.8928 132.02 34.1172 112.91 29.198 99.0552C28.3252 96.5868 27.3731 94.1184 26.3417 91.4111C21.5811 78.9894 16.6619 66.2491 21.7398 59.242C27.0558 51.9164 39.8299 52.4738 40.544 52.5534H102.193C102.272 52.5534 105.049 52.4738 108.54 53.9867C111.714 55.42 116.157 58.605 119.014 65.6121C124.33 78.7505 134.089 101.524 134.247 101.762L134.565 102.399H114.57C115.126 105.186 117.823 118.006 121.315 125.093C125.361 133.454 127.265 138.072 127.027 141.337C126.789 144.681 124.488 146.512 124.409 146.592L124.171 146.751ZM65.2988 145.875H123.853C124.25 145.477 125.837 143.885 125.996 141.416C126.234 138.391 124.33 133.693 120.442 125.65C116.554 117.608 113.539 102.32 113.539 102.161L113.46 101.603H133.137C131.47 97.7812 123.06 77.9542 118.22 66.0899C115.523 59.4013 111.317 56.3755 108.302 54.9422C104.97 53.4293 102.272 53.5089 102.272 53.5089H40.6233C40.4646 53.5089 27.6905 52.8719 22.6126 59.7994C17.8521 66.4084 22.6126 78.9097 27.2938 91.0926C28.2459 93.6406 29.2774 96.2683 30.1501 98.7367C34.5933 111.397 41.4961 128.278 42.6862 131.304L59.1894 122.625L65.2988 145.875Z" fill="black"/>
<path d="M58.7928 123.421L63.3153 120.713L61.5698 115.538L59.6656 116.175C59.6656 116.175 42.5276 71.1858 40.1474 66.4083C36.7356 59.5604 31.9751 56.6938 31.9751 56.6938" fill="#F9A826"/>
<path d="M59.0308 123.819L58.5548 123.023L62.7599 120.475L61.3318 116.095L59.4276 116.732L59.2689 116.334C59.1102 115.856 42.1309 71.2655 39.7506 66.6472C36.4183 60.0382 31.8164 57.1717 31.7371 57.092L32.2131 56.2958C32.3718 56.455 37.053 59.3216 40.5441 66.1694C42.845 70.7081 58.0787 110.76 59.9036 115.538L61.8078 114.901L63.7914 120.873L59.0308 123.819Z" fill="black"/>
<path d="M61.649 115.538L39.9092 125.81L42.3688 132.02L63.3945 120.713L61.649 115.538Z" fill="#F9A826"/>
<path d="M42.1307 132.657L39.2744 125.491L61.887 114.901L63.8706 120.952L42.1307 132.657ZM40.4645 125.969L42.6068 131.304L62.7598 120.395L61.3316 116.095L40.4645 125.969Z" fill="black"/>
<path d="M77.4383 50.4832C77.4383 50.4832 76.3275 64.0196 75.2167 64.8159C74.1059 65.6122 73.3918 66.488 73.3918 66.488C73.3918 66.488 90.8472 112.432 92.9101 120.952C94.8936 129.472 96.5598 144.363 96.5598 144.363V148.503" fill="#F9A826"/>
<path d="M97.0359 148.424H96.0837V144.283C96.0837 144.203 94.4176 129.313 92.434 120.952C90.4504 112.671 73.1538 67.1251 72.9951 66.6473L72.9158 66.4084L73.0745 66.1695C73.0745 66.0899 73.8679 65.214 74.9787 64.4178C75.5341 63.7808 76.4862 56.8533 76.9622 50.4832L77.9143 50.5628C77.597 54.7033 76.6449 64.4178 75.5341 65.214C74.82 65.6918 74.2646 66.2492 73.9472 66.5677C75.5341 70.7082 91.4025 112.592 93.3861 120.793C95.3697 129.234 97.0359 144.124 97.0359 144.283V148.424Z" fill="black"/>
<path d="M144.879 216.902C144.879 208.541 127.265 154.157 124.012 146.274H62.522L60.8558 149.618C60.8558 149.618 60.6971 153.44 62.522 154.555C64.2675 155.669 61.4905 228.687 63.3154 236.809C65.1403 244.931 112.904 298.917 112.904 298.917C112.904 298.917 123.298 294.617 125.996 286.018L130.439 313.33C130.439 313.33 133.613 315.32 142.658 315.32C151.703 315.32 155.194 311.1 155.194 311.1C155.194 311.1 144.879 225.263 144.879 216.902ZM95.3697 232.907C93.3862 227.572 99.2575 171.913 99.2575 171.913C99.2575 171.913 109.096 211.01 112.032 221.122C114.65 230.12 122.267 266.907 122.267 266.907C122.267 266.907 97.3533 238.242 95.3697 232.907Z" fill="#2F2E41"/>
<path d="M142.658 315.798C133.533 315.798 130.28 313.807 130.122 313.728L129.963 313.648L125.758 287.849C122.346 295.493 113.46 299.236 113.063 299.395L112.746 299.554L112.508 299.315C110.524 297.086 64.6641 245.17 62.8392 236.968C61.8871 232.748 62.1252 212.045 62.4425 191.9C62.6805 175.337 62.9186 156.545 62.2045 154.953C60.3003 153.679 60.3796 149.857 60.3796 149.698V149.618L62.2045 145.875H124.33L124.409 146.194C127.345 153.36 145.276 208.462 145.276 216.982C145.276 225.183 155.432 310.304 155.59 311.18V311.339L155.432 311.498C155.352 311.578 151.861 315.798 142.658 315.798ZM130.836 313.011C131.629 313.409 135.041 314.843 142.658 314.843C150.433 314.843 154.004 311.658 154.638 310.941C153.924 305.128 144.403 225.024 144.403 216.902C144.403 208.94 127.503 156.307 123.695 146.751H62.8392L61.3317 149.777C61.3317 150.812 61.4904 153.44 62.7599 154.157C63.712 154.714 63.712 163.154 63.3946 191.9C63.1566 211.01 62.8392 232.668 63.7913 236.729C65.5369 244.373 109.493 294.379 113.063 298.36C114.729 297.564 123.219 293.343 125.52 285.859L126.075 283.948L130.836 313.011ZM123.06 268.5L121.87 267.146C120.839 265.952 96.9565 238.401 94.8936 233.066C92.8307 227.652 98.5433 174.143 98.7813 171.834L99.0194 169.206L99.6541 171.754C99.7334 172.152 109.493 210.93 112.428 220.963C114.967 229.881 122.584 266.43 122.663 266.748L123.06 268.5ZM99.4954 174.541C97.4325 194.368 94.3382 228.766 95.8457 232.748C97.5912 237.287 116.554 259.502 121.473 265.235C119.886 257.83 113.856 229.005 111.635 221.282C109.096 212.682 101.717 183.379 99.4954 174.541Z" fill="black"/>
<path d="M5.95061 140.062H68.5518C68.5518 140.062 71.3287 191.023 68.8691 203.365C66.4095 215.707 64.5846 215.946 62.6011 216.185C60.6175 216.424 2.14217 216.185 2.14217 216.185C2.14217 216.185 0.634666 214.99 0.396639 212.522C0.158611 210.053 2.85625 202.409 3.80836 196.039C4.91916 189.589 5.95061 140.062 5.95061 140.062Z" fill="#3F3D56"/>
<path d="M45.8599 216.743C28.4839 216.743 3.80843 216.663 2.22158 216.663H2.06289L1.90421 216.584C1.82487 216.504 0.31736 215.23 -9.09343e-06 212.602C-0.158694 211.169 0.555388 208.462 1.42815 205.038C2.14224 202.171 2.93566 198.986 3.41171 196.04C4.36382 189.75 5.39527 140.7 5.39527 140.222V139.744H68.8692V140.222C68.9485 142.292 71.6462 191.422 69.1865 203.605C66.6476 216.265 64.664 216.504 62.5218 216.743C61.9664 216.743 54.9049 216.743 45.8599 216.743ZM2.38026 215.708C22.6126 215.787 61.0143 215.867 62.6011 215.708C64.3467 215.469 66.0922 215.31 68.4725 203.286C70.7734 191.82 68.3931 145.557 68.1551 140.541H6.42672C6.34738 145.875 5.31593 189.988 4.44316 196.04C3.96711 198.986 3.17369 202.251 2.4596 205.118C1.66618 208.382 0.9521 211.169 1.03144 212.364C1.11078 214.275 2.06289 215.389 2.38026 215.708Z" fill="black"/>
<path d="M83.0715 96.5867L84.817 83.8465C84.9757 82.891 85.7691 82.1743 86.7212 82.1743L105.367 82.2539C106.557 82.2539 107.43 83.3687 107.271 84.4835L101.241 118.564C101.082 119.519 100.289 120.156 99.3367 120.156H81.7227C80.5325 120.156 79.6598 119.121 79.8185 117.927L83.0715 96.5867Z" fill="black"/>
<path d="M99.3368 120.634H81.7228C81.0087 120.634 80.3739 120.315 79.8979 119.838C79.4218 119.28 79.2631 118.643 79.3425 117.927L82.5955 96.507L84.2617 83.7668C84.4204 82.5724 85.4518 81.6965 86.642 81.6965L105.287 81.7762C106.002 81.7762 106.636 82.0947 107.112 82.6521C107.588 83.2094 107.747 83.9261 107.668 84.5631L101.638 118.643C101.479 119.838 100.448 120.634 99.3368 120.634ZM86.642 82.5724C85.9279 82.5724 85.2932 83.1298 85.2138 83.8464L83.4683 96.5867L80.2152 118.006C80.1359 118.404 80.2946 118.882 80.5326 119.201C80.7706 119.519 81.2467 119.678 81.6434 119.678H99.2574C99.9715 119.678 100.527 119.201 100.686 118.484L106.716 84.4038C106.795 84.0057 106.636 83.5279 106.398 83.2094C106.16 82.8909 105.684 82.6521 105.287 82.6521L86.642 82.5724Z" fill="black"/>
<path d="M89.657 117.369H102.034C102.034 117.369 104.097 117.688 103.621 115.14C103.145 112.671 99.2574 112.83 99.2574 112.83L89.657 117.369Z" fill="#F9A826"/>
<path d="M102.193 117.847C102.034 117.847 101.955 117.847 101.955 117.847H87.5146L99.2573 112.432C99.416 112.432 103.542 112.273 104.097 115.06C104.256 116.016 104.177 116.732 103.7 117.29C103.224 117.767 102.59 117.847 102.193 117.847ZM91.7198 116.971H102.034C102.114 116.971 102.669 117.051 102.986 116.732C103.304 116.414 103.224 115.777 103.145 115.379C102.748 113.467 99.892 113.467 99.416 113.467L91.7198 116.971Z" fill="black"/>
<path d="M85.4517 119.041C85.4517 119.041 90.0535 116.971 94.1793 115.936C98.3051 114.901 98.8605 113.706 99.8126 112.114C100.765 110.521 101.32 109.566 100.685 108.451C100.051 107.336 98.8605 107.177 98.3845 107.894C97.9084 108.61 86.0864 113.229 86.0864 113.229L85.6897 118.723" fill="#F9A826"/>
<path d="M85.6103 119.519L85.293 118.802H85.1343L85.6103 112.99L85.8484 112.91C91.323 110.76 97.4323 108.292 97.9084 107.734C98.1464 107.336 98.5431 107.097 99.0985 107.097C99.8126 107.097 100.527 107.575 101.003 108.292C101.876 109.645 101.082 110.919 100.13 112.432L99.9713 112.671C99.0192 114.184 98.3051 115.458 94.1793 116.493C90.2122 117.449 85.6897 119.519 85.6103 119.519ZM86.4831 113.627L86.0864 118.245C87.5939 117.608 90.9263 116.254 93.9413 115.538C97.6704 114.582 98.3051 113.547 99.1779 112.114L99.3366 111.875C100.368 110.282 100.685 109.486 100.209 108.77C99.8126 108.212 99.4159 107.973 99.0985 107.973C98.9398 107.973 98.7812 108.053 98.7018 108.212C98.2258 109.008 90.9263 111.875 86.4831 113.627Z" fill="black"/>
<path d="M46.6533 129.313C46.6533 129.313 50.8585 144.283 55.143 147.149C59.4274 150.016 66.6476 148.025 70.6941 142.611C74.7405 137.196 87.5146 115.538 87.5146 115.538C87.5146 115.538 94.1001 112.83 96.2423 110.76C98.3052 108.69 100.368 104.47 101.558 101.683C102.748 98.8162 101.558 97.7811 99.8127 98.02C98.0672 98.3385 92.9893 106.222 92.1165 106.779C91.2437 107.416 81.4053 106.301 81.4053 106.301L83.0715 96.5071C83.0715 96.5071 77.6762 98.5774 75.2959 104.788C74.2645 107.496 72.995 111.556 71.4081 114.343C69.742 117.21 62.3631 126.606 62.3631 126.606L60.4589 122.067L46.6533 129.313Z" fill="#FFB8B8"/>
<path d="M59.7448 148.901C57.9993 148.901 56.3331 148.503 54.9049 147.548C50.5411 144.681 46.4153 130.03 46.2566 129.472L46.1772 129.074L60.6969 121.43L62.4424 125.73C64.1086 123.58 69.5833 116.493 70.9321 114.184C72.1222 112.194 73.0743 109.566 73.8677 107.257C74.1851 106.301 74.5025 105.425 74.8199 104.709C77.2795 98.4182 82.6748 96.2683 82.9128 96.1886L83.7062 95.8701L81.9607 105.983C86.4832 106.46 91.2437 106.779 91.8785 106.54C92.1165 106.381 92.9893 105.186 93.7827 104.151C96.401 100.648 98.4639 97.9404 99.7334 97.7015C100.765 97.5423 101.638 97.7811 102.114 98.4182C102.51 98.9755 102.907 100.011 102.034 102.001C100.685 105.107 98.7019 109.168 96.639 111.238C94.6555 113.229 88.9428 115.617 87.9114 116.095C86.8006 117.927 74.9785 137.913 71.1701 143.089C68.2344 146.672 63.7119 148.901 59.7448 148.901ZM47.2087 129.552C47.8434 131.861 51.6519 144.283 55.381 146.751C59.5068 149.459 66.4889 147.388 70.2973 142.292C74.2645 136.957 86.9592 115.458 87.0386 115.299L87.1179 115.14L87.2766 115.06C87.356 115.06 93.862 112.353 95.8456 110.362C97.8292 108.371 99.8127 104.39 101.082 101.364C101.638 100.17 101.717 99.2144 101.32 98.7367C100.924 98.2589 100.209 98.3385 99.8127 98.4182C98.7813 98.5774 96.0043 102.399 94.4968 104.47C93.3066 106.062 92.7512 106.859 92.3545 107.097C91.4818 107.734 84.3409 107.018 81.3259 106.699L80.8499 106.62L82.4367 97.3034C80.9292 98.0997 77.4382 100.409 75.6926 104.948C75.3753 105.664 75.0579 106.54 74.7405 107.496C73.8677 109.884 72.9156 112.512 71.7255 114.582C70.0593 117.369 62.9978 126.526 62.6805 126.924L62.2044 127.561L60.2209 122.784L47.2087 129.552Z" fill="black"/>
<path d="M114.015 102.001C114.015 102.001 112.904 93.3216 109.651 83.6868C106.398 74.052 104.732 70.7874 104.732 70.7874" fill="#F9A826"/>
<path d="M113.539 102.081C113.539 102.001 112.349 93.3221 109.175 83.8465C106.001 74.4506 104.335 71.0267 104.335 71.0267L105.129 70.6285C105.208 70.7878 106.795 74.0525 110.048 83.6076C113.222 93.1628 114.412 101.922 114.412 102.001L113.539 102.081Z" fill="black"/>
<path d="M75.2166 64.8158C75.2166 64.8158 78.3109 62.8251 81.2466 64.8158C84.1822 66.8064 87.1973 72.7784 87.1973 72.7784C87.1973 72.7784 90.609 64.1788 88.8634 56.6939C87.1179 49.209 77.2001 47.5369 77.2001 47.5369L77.3588 50.483L75.2166 64.8158Z" fill="#133386"/>
<path d="M87.3559 73.8932L86.8799 73.0173C86.8799 72.9377 83.8648 67.2046 81.0879 65.2936C78.4696 63.4621 75.6926 65.2139 75.5339 65.2936L74.6611 65.8509L77.0414 50.5627L76.8034 46.9795L77.3588 47.0591C77.7555 47.1387 87.5939 48.8905 89.4188 56.5347C91.1643 64.0992 87.9113 72.5396 87.7526 72.8581L87.3559 73.8932ZM78.3902 63.4621C79.3423 63.4621 80.4531 63.701 81.5639 64.4177C83.8649 66.0102 86.1658 69.8323 87.1972 71.584C87.9907 69.1156 89.8155 62.5863 88.4667 56.7735C87.0385 50.7219 79.8184 48.572 77.7555 48.0943L77.9142 50.4831L75.8513 63.9399C76.486 63.701 77.3588 63.4621 78.3902 63.4621Z" fill="black"/>
<path d="M56.4919 49.448V34.8763H77.6763V50.0053C77.6763 50.0053 76.0895 63.7807 75.2167 64.8158C74.344 65.851 73.3919 66.488 73.3919 66.488C73.3919 66.488 65.8543 64.7362 60.1417 57.7291C54.429 50.722 56.4919 49.448 56.4919 49.448Z" fill="#F9A826"/>
<path d="M73.4711 66.9657L73.3124 66.8861C72.9951 66.8065 65.5369 65.0547 59.8242 57.968C56.8886 54.3848 55.4604 51.5978 55.6984 49.9257C55.7778 49.5276 55.9364 49.2887 56.0158 49.1294V34.3986H78.1523V50.0053C77.7556 53.3496 76.4861 64.0196 75.6134 65.1343C74.7406 66.2491 73.7091 66.8861 73.6298 66.8861L73.4711 66.9657ZM56.7299 49.7664C56.6505 49.8461 55.5397 51.359 60.459 57.4106C65.5369 63.6214 72.0429 65.6121 73.2331 65.9306C73.5504 65.6917 74.1852 65.2139 74.8199 64.4973C75.3753 63.7807 76.4861 55.4995 77.2002 49.9257V35.3541H56.9679V49.6868L56.7299 49.7664Z" fill="black"/>
<path d="M73.3918 66.488C73.3918 66.488 70.2975 64.8954 68.4726 63.1436C66.6477 61.3919 56.4126 49.3683 56.4126 49.3683L50.1445 53.4292C50.1445 53.4292 51.8107 61.6307 57.206 68.0009C60.9351 72.3803 69.266 77.556 69.266 77.556C69.266 77.556 68.79 70.5489 70.4562 68.1601C72.2811 65.8509 73.3918 66.488 73.3918 66.488Z" fill="#F9A826"/>
<path d="M69.9008 78.5116L69.1073 78.0338C68.79 77.7949 60.6971 72.7785 56.968 68.3194C51.4933 61.9493 49.8271 53.907 49.7478 53.5089L49.6685 53.1904L56.4919 48.7313L56.7299 49.0498C56.8093 49.2091 66.9651 61.0734 68.7106 62.7456C70.3768 64.4177 73.3125 65.851 73.4712 66.0102L73.0745 66.8065C73.0745 66.8065 72.2017 66.488 70.7735 68.399C69.1867 70.6286 69.6627 77.3968 69.6627 77.4764L69.9008 78.5116ZM50.7793 53.6682C51.176 55.1811 53.0008 62.1882 57.682 67.762C60.697 71.2656 66.7271 75.4062 68.8693 76.7598C68.79 74.7691 68.79 69.9119 70.2181 68.0009C70.8529 67.0454 71.4876 66.5676 72.043 66.2491C70.9322 65.6121 69.4247 64.577 68.2346 63.5418C66.5684 61.9493 58.0787 51.996 56.4126 50.085L50.7793 53.6682Z" fill="black"/>
<path d="M96.9954 139.839L96.1753 140.324L100.407 147.526L101.228 147.041L96.9954 139.839Z" fill="black"/>
<path d="M117.189 128.437C117.189 128.437 117.347 138.948 110.603 147.229L117.189 128.437Z" fill="#F9A826"/>
<path d="M110.921 147.627L110.207 147.07C116.792 139.027 116.713 128.676 116.713 128.517H117.665C117.665 128.596 117.744 139.266 110.921 147.627Z" fill="black"/>
<path d="M88.7048 122.863C88.7048 122.863 97.2738 122.943 102.748 127.482L88.7048 122.863Z" fill="#F9A826"/>
<path d="M102.431 127.8C97.1151 123.421 88.7048 123.262 88.6255 123.262V122.306C88.9429 122.306 97.4325 122.465 102.986 127.004L102.431 127.8Z" fill="black"/>
<path d="M114.015 72.7781C114.015 72.7781 112.984 78.0334 109.413 82.9702L114.015 72.7781Z" fill="#F9A826"/>
<path d="M109.73 83.2096L109.016 82.6522C112.507 77.8746 113.539 72.6989 113.539 72.6193L114.491 72.7785C114.412 73.097 113.38 78.2727 109.73 83.2096Z" fill="black"/>
<path d="M46.6533 70.3893C46.6533 70.3893 48.0815 78.0334 47.2881 83.5276L46.6533 70.3893Z" fill="#F9A826"/>
<path d="M47.7641 83.5281L46.812 83.3688C47.6054 78.0338 46.1772 70.4694 46.1772 70.3897L47.1294 70.2305C47.2087 70.549 48.5575 78.0339 47.7641 83.5281Z" fill="black"/>
<path d="M63.3945 48.174C63.3945 48.174 68.6311 58.3661 76.01 60.1179L77.2001 53.3497C77.2001 53.4293 69.7419 51.5979 63.3945 48.174Z" fill="#FFB8B8"/>
<path d="M58.7135 41.6445C58.7135 41.6445 60.8557 46.8998 68.2346 50.7219C78.2317 55.7383 79.5805 54.0662 82.3575 53.1107C85.1345 52.1552 87.6735 46.9795 88.4669 42.2019C89.2603 37.4243 87.9908 31.7708 87.9908 31.2931C87.9908 30.8153 88.7049 29.0635 88.7843 26.3562C88.8636 23.6489 88.4669 18.7121 85.5312 13.0586C82.5956 7.40516 76.0101 4.85712 71.0909 4.22011C66.1717 3.5831 57.3647 5.096 52.9215 12.1031C48.4783 19.1102 51.7314 31.6912 51.5727 32.806C51.4933 33.9207 58.7135 41.6445 58.7135 41.6445Z" fill="#FFB8B8"/>
<path d="M78.3903 54.6236C76.4068 54.6236 73.3917 53.8273 68.0758 51.12C61.0143 47.5369 58.6341 42.6797 58.3167 41.8834C55.5397 38.9372 51.0172 33.8411 51.1759 32.7264C51.1759 32.5671 51.0965 31.8505 50.9378 31.1338C50.3031 27.0729 48.8749 17.5974 52.5247 11.7846C57.3646 4.14051 66.8063 3.185 71.0908 3.66275C76.3274 4.29976 82.9128 7.08669 85.9278 12.7402C88.7842 18.314 89.3396 23.1712 89.1809 26.2766C89.1015 28.1877 88.7842 29.6209 88.5461 30.4968C88.4668 30.8153 88.3875 31.1338 88.3875 31.2135C88.3875 31.2931 88.4668 31.532 88.4668 31.8505C88.7842 33.6023 89.5776 38.2206 88.8635 42.2019C88.0701 46.8202 85.4518 52.3941 82.4368 53.5088C82.1194 53.5885 81.8814 53.7477 81.564 53.8273C80.6912 54.2255 79.7391 54.6236 78.3903 54.6236ZM68.9486 4.45902C64.3467 4.45902 57.2059 6.05154 53.3181 12.2624C49.827 17.8362 51.2552 27.0729 51.8106 30.9746C51.9693 32.0894 52.0486 32.5671 52.0486 32.806C52.128 33.5226 55.6984 37.6632 59.0308 41.326L59.1101 41.4853C59.1101 41.5649 61.2524 46.661 68.4725 50.2442C77.2002 54.6236 79.1837 53.8273 81.326 52.9515C81.6433 52.8718 81.8814 52.7126 82.1987 52.6329C84.4997 51.8367 87.118 47.0591 88.0701 42.0426C88.7842 38.2206 87.9907 33.6819 87.6734 32.0097C87.594 31.4523 87.5147 31.2931 87.5147 31.2135C87.5147 30.9746 87.594 30.7357 87.6734 30.2579C87.9114 29.4617 88.2288 28.0284 88.3081 26.2766C88.3875 23.2508 87.9114 18.5529 85.1344 13.2179C82.3574 7.80332 76.01 5.25528 71.0115 4.61827C70.4561 4.53864 69.742 4.45902 68.9486 4.45902Z" fill="black"/>
<path d="M61.8076 23.0916C61.8076 23.0916 58.9512 23.5694 58.4752 26.9933C57.9198 31.1339 60.5381 32.0894 62.2836 32.8061V37.5836C62.2836 37.5836 59.9033 37.9021 59.1893 38.5392C58.4752 39.1762 58.7132 41.5649 58.7132 41.5649L56.4916 45.7851C56.4916 45.7851 55.5395 42.4408 52.6038 37.9021C49.6682 33.4431 48.5574 31.532 48.3194 24.1268C48.0813 16.6419 49.2715 12.2625 51.8104 8.04226C53.9527 4.5387 59.0306 2.14991 66.8855 0.637015C74.7404 -0.875885 84.4995 4.93684 86.8797 7.00712C89.26 8.99778 90.0534 14.4124 90.0534 14.4124C89.498 15.3679 87.0384 16.3234 87.0384 16.3234L85.5309 12.9791C85.5309 12.9791 82.5159 19.827 76.0098 22.5343C69.5038 25.2416 65.854 24.286 65.854 24.286C65.854 24.286 62.9977 26.1971 61.8076 23.0916Z" fill="black"/>
<path d="M56.333 47.059L56.0157 45.9442C56.0157 45.9442 55.0636 42.5999 52.2072 38.2204C49.1922 33.5225 48.0814 31.5318 47.8434 24.2062C47.6054 17.1991 48.6368 12.5011 51.4138 7.8828C53.556 4.29961 58.634 1.8312 66.8062 0.318297C74.7405 -1.1946 84.6583 4.61812 87.1972 6.76803C89.6568 8.91794 90.5296 14.2529 90.5296 14.4122V14.5714L90.4503 14.7307C89.8155 15.7658 87.4352 16.7213 87.1972 16.8009L86.8005 16.9602L85.531 14.0937C84.4202 16.0843 81.4052 20.7823 76.1686 23.0118C70.3766 25.4802 66.8062 25.0025 65.9335 24.8432C65.5367 25.0821 64.3466 25.6395 63.2358 25.2413C62.5217 25.0025 61.9663 24.5247 61.5696 23.7284C60.8555 23.8877 59.2687 24.684 58.9513 27.0727C58.3959 30.8152 60.6969 31.6911 62.4424 32.4077L62.7598 32.4873V37.9816L62.363 38.0612C61.4903 38.1408 59.9828 38.5389 59.5067 38.9371C59.11 39.2556 59.11 40.6889 59.1894 41.5647V41.724L56.333 47.059ZM69.5832 0.955308C68.7104 0.955308 67.8377 1.03493 67.0443 1.19419C59.11 2.70709 54.2701 5.01625 52.2072 8.36056C49.5096 12.8196 48.5575 17.3583 48.7955 24.1266C49.0335 31.6114 50.2237 33.4429 53.0007 37.663C54.9842 40.6889 56.095 43.2369 56.5711 44.5905L58.2372 41.4851C58.1579 40.8481 58.0786 38.9371 58.872 38.2204C59.5067 37.663 61.0936 37.2649 61.8077 37.1853V33.1243C60.0621 32.4077 57.4438 31.2133 57.9992 26.9135C58.4753 23.1711 61.649 22.6137 61.7283 22.6137L62.125 22.534L62.2837 22.8526C62.6011 23.5692 62.9978 24.0469 63.5532 24.2062C64.5053 24.5247 65.6954 23.8081 65.6954 23.8081L65.8541 23.7284L66.0921 23.8081C66.0921 23.8081 69.6625 24.7636 75.9306 22.0563C82.1986 19.4286 85.2137 12.74 85.2137 12.74L85.6104 11.7845L87.3559 15.6862C88.1493 15.3677 89.2601 14.7307 89.6568 14.3325C89.4981 13.377 88.6254 9.07719 86.6418 7.40504C84.4202 5.57364 76.6447 0.955308 69.5832 0.955308Z" fill="black"/>
<path d="M129.646 101.285L139.96 123.421L157.971 118.006L165.112 135.365C165.112 135.365 142.102 143.566 136.945 144.601C131.788 145.557 128.455 144.442 125.44 140.939C122.346 137.355 112.825 101.364 112.825 101.364H129.646V101.285Z" fill="#FFB8B8"/>
<path d="M133.613 145.398C130.122 145.398 127.503 144.044 125.044 141.177C121.949 137.594 112.746 102.877 112.349 101.364L112.19 100.807H130.042L140.277 122.863L158.288 117.449L165.746 135.604L165.27 135.763C164.318 136.081 142.102 144.044 137.024 145C135.755 145.238 134.644 145.398 133.613 145.398ZM113.38 101.762C116.713 114.343 123.457 137.913 125.758 140.62C128.693 144.044 131.946 145.079 136.866 144.124C141.547 143.248 161.224 136.241 164.556 135.046L157.812 118.564L139.801 123.978L129.487 101.762H113.38Z" fill="black"/>
<path d="M139.96 123.421C139.96 123.421 132.581 123.819 131.391 132.021L139.96 123.421Z" fill="#FFB8B8"/>
<path d="M131.867 132.1L130.915 131.941C132.185 123.421 139.881 122.943 139.96 122.943L140.039 123.899C139.722 123.899 132.978 124.376 131.867 132.1Z" fill="black"/>
<path d="M165.111 111.636H159.954H150.592L155.511 140.859H159.954H165.111H169.475L174.395 111.636H165.111Z" fill="#A0616A"/>
<path d="M169.872 141.337H155.114L150.036 111.158H174.95L169.872 141.337ZM155.908 140.461H169.079L173.839 112.114H151.147L155.908 140.461Z" fill="black"/>
<path d="M175.109 119.997C175.109 119.997 173.998 118.802 171.141 118.006C168.364 117.21 165.27 116.016 164.635 116.493C164.001 116.971 163.048 118.325 164.159 119.121C165.349 119.917 169.872 121.112 170.665 121.589C171.459 122.067 172.808 123.58 173.601 123.5C174.474 123.5 176.616 121.828 175.109 119.997Z" fill="#FFB8B8"/>
<path d="M173.601 123.978C172.887 123.978 172.094 123.341 171.38 122.704C171.062 122.465 170.745 122.147 170.507 121.987C170.189 121.828 169.158 121.43 168.127 121.112C166.54 120.554 164.635 119.997 163.921 119.439C163.287 119.041 163.207 118.484 163.207 118.086C163.207 117.21 163.921 116.334 164.397 116.016C165.111 115.538 166.619 116.016 169.555 116.891C170.189 117.051 170.745 117.29 171.38 117.449C174.315 118.325 175.505 119.519 175.505 119.599C176.299 120.634 176.219 121.51 175.902 122.147C175.505 123.102 174.395 123.899 173.68 123.899C173.68 123.978 173.68 123.978 173.601 123.978ZM165.112 116.812C165.032 116.812 164.953 116.812 164.873 116.891C164.477 117.13 164.08 117.767 164.08 118.165C164.08 118.325 164.08 118.564 164.397 118.723C165.032 119.121 166.857 119.758 168.365 120.236C169.713 120.713 170.586 120.952 170.903 121.191C171.221 121.35 171.538 121.669 171.856 121.987C172.411 122.386 173.204 123.102 173.522 123.023C173.839 123.023 174.633 122.545 174.95 121.828C175.188 121.35 175.109 120.793 174.633 120.315C174.474 120.236 173.363 119.121 170.903 118.404C170.269 118.245 169.713 118.006 169.079 117.847C167.888 117.449 165.905 116.812 165.112 116.812Z" fill="black"/>
<path d="M174.077 122.704C173.68 122.306 170.269 119.678 168.364 119.201C166.46 118.723 163.921 119.36 163.207 119.838C162.493 120.315 161.858 121.908 163.604 122.943C165.27 123.978 167.016 123.501 167.571 123.978C168.126 124.456 172.411 128.437 173.76 127.96C175.108 127.482 176.537 125.013 174.077 122.704Z" fill="#FFB8B8"/>
<path d="M173.522 128.517C172.808 128.517 171.221 127.96 167.333 124.376L167.254 124.297C167.174 124.217 166.698 124.137 166.381 124.137C165.587 124.058 164.477 123.978 163.366 123.341C162.493 122.863 162.017 122.147 162.017 121.271C162.017 120.395 162.493 119.758 162.969 119.44C163.842 118.882 166.46 118.165 168.523 118.723C170.507 119.28 173.998 121.988 174.395 122.386C175.981 123.899 175.981 125.411 175.823 126.128C175.585 127.163 174.791 128.039 173.918 128.358C173.839 128.437 173.68 128.517 173.522 128.517ZM166.936 119.519C165.508 119.519 164.001 119.997 163.525 120.236C163.287 120.395 162.969 120.793 163.049 121.271C163.049 121.749 163.366 122.226 163.921 122.545C164.794 123.102 165.746 123.182 166.54 123.262C167.174 123.341 167.65 123.341 167.968 123.66L168.047 123.739C171.697 127.084 173.363 127.721 173.76 127.561C174.236 127.402 174.871 126.845 175.029 125.969C175.267 125.013 174.871 123.978 173.918 123.102C173.442 122.625 170.11 120.156 168.444 119.678C167.809 119.519 167.333 119.519 166.936 119.519Z" fill="black"/>
<path d="M172.491 126.924C172.094 126.526 168.682 123.899 166.778 123.421C164.874 122.943 162.335 123.58 161.621 124.058C160.907 124.536 160.272 126.128 162.017 127.163C163.684 128.198 165.429 127.721 165.984 128.198C166.461 128.676 170.824 132.658 172.173 132.18C173.522 131.702 174.95 129.234 172.491 126.924Z" fill="#FFB8B8"/>
<path d="M171.935 132.737C171.221 132.737 169.634 132.18 165.746 128.597L165.667 128.517C165.588 128.437 165.112 128.358 164.794 128.358C164.001 128.278 162.89 128.198 161.779 127.561C160.906 127.084 160.43 126.367 160.43 125.491C160.43 124.615 160.906 123.978 161.383 123.66C162.255 123.102 164.874 122.386 166.936 122.943C168.92 123.5 172.411 126.208 172.808 126.606C174.395 128.119 174.395 129.632 174.236 130.348C173.998 131.383 173.205 132.259 172.332 132.578C172.252 132.658 172.173 132.737 171.935 132.737ZM165.35 123.739C163.921 123.739 162.414 124.217 161.938 124.456C161.7 124.615 161.383 125.013 161.462 125.491C161.462 125.969 161.779 126.447 162.335 126.765C163.207 127.323 164.16 127.402 164.953 127.482C165.588 127.561 166.064 127.561 166.381 127.88L166.46 127.96C170.11 131.304 171.776 131.941 172.173 131.782C172.649 131.622 173.284 131.065 173.443 130.189C173.681 129.234 173.284 128.198 172.332 127.323C171.856 126.845 168.523 124.376 166.857 123.899C166.302 123.739 165.826 123.739 165.35 123.739Z" fill="black"/>
<path d="M172.252 132.18C172.252 132.18 171.459 130.269 169.951 129.313C168.444 128.358 164.08 129.074 162.89 129.552C161.7 130.03 160.192 131.622 160.986 132.896C161.779 134.17 163.287 134.25 164.635 134.17C165.984 134.091 167.571 133.613 167.809 133.772C168.047 133.931 169.634 135.763 170.983 135.604C172.332 135.444 172.808 133.294 172.252 132.18Z" fill="#FFB8B8"/>
<path d="M170.745 136.081C169.475 136.081 168.285 134.967 167.73 134.409C167.651 134.33 167.651 134.33 167.571 134.25C167.413 134.25 167.016 134.33 166.619 134.409C166.064 134.489 165.27 134.648 164.556 134.728C163.128 134.807 161.382 134.728 160.51 133.215C160.192 132.737 160.113 132.1 160.351 131.543C160.668 130.428 161.779 129.552 162.652 129.154C163.842 128.676 168.444 127.88 170.189 128.995C171.697 129.95 172.57 131.782 172.649 132.02C173.046 132.817 173.046 134.011 172.57 134.887C172.252 135.604 171.618 136.002 170.983 136.081C170.904 136.081 170.824 136.081 170.745 136.081ZM167.651 133.294C167.809 133.294 167.968 133.294 168.047 133.374C168.127 133.454 168.206 133.533 168.365 133.693C168.841 134.17 170.031 135.285 170.904 135.126C171.38 135.046 171.618 134.728 171.776 134.409C172.094 133.772 172.094 132.896 171.856 132.419V132.339C171.856 132.339 171.062 130.508 169.713 129.711C168.444 128.915 164.239 129.472 163.049 129.95C162.335 130.269 161.541 130.985 161.224 131.702C161.144 132.02 161.144 132.339 161.303 132.578C162.017 133.693 163.287 133.772 164.556 133.613C165.191 133.533 165.905 133.454 166.46 133.294C167.016 133.374 167.413 133.294 167.651 133.294Z" fill="black"/>
<path d="M154.718 136.001L153.845 130.745C153.845 130.745 155.908 125.411 157.019 123.181C158.129 120.951 157.653 118.961 155.908 118.324C154.083 117.687 150.83 124.216 150.037 125.411C150.037 125.411 148.45 128.357 148.212 130.427" fill="#FFB8B8"/>
<path d="M154.242 136.081L153.369 130.746L153.448 130.587C153.528 130.348 155.511 125.252 156.622 123.023C157.177 121.828 157.336 120.714 156.939 119.917C156.701 119.36 156.305 118.962 155.67 118.803C155.194 118.643 154.004 119.201 150.751 125.013C150.592 125.332 150.433 125.571 150.354 125.73C150.354 125.73 148.767 128.597 148.608 130.587L147.656 130.508C147.894 128.358 149.481 125.411 149.56 125.332C149.64 125.173 149.798 124.934 149.957 124.615C152.099 120.793 154.242 117.369 155.987 118.006C156.86 118.325 157.415 118.882 157.733 119.678C158.209 120.714 158.05 122.147 157.336 123.5C156.384 125.491 154.559 130.109 154.242 130.906L155.114 136.002L154.242 136.081Z" fill="black"/>
<path d="M173.839 103.992H151.623V107.257H173.839V103.992Z" fill="#A0616A"/>
<path d="M174.315 107.734H151.227V103.594H174.315V107.734ZM152.099 106.859H173.442V104.47H152.099V106.859Z" fill="black"/>
<path d="M175.823 112.194C175.823 112.194 168.841 114.423 162.573 114.423C154.162 114.423 149.323 112.194 149.323 112.194V108.371C149.323 108.371 152.576 105.903 162.573 105.903C171.221 105.903 175.823 108.371 175.823 108.371V112.194Z" fill="#A0616A"/>
<path d="M162.493 114.821C154.083 114.821 149.243 112.671 149.005 112.512L148.767 112.432V108.133L148.926 107.973C149.084 107.894 152.417 105.425 162.493 105.425C171.142 105.425 175.743 107.814 175.982 107.894L176.22 107.973V112.353L175.902 112.432C175.823 112.592 168.841 114.821 162.493 114.821ZM149.64 111.875C150.751 112.273 155.353 113.945 162.493 113.945C167.968 113.945 173.998 112.273 175.347 111.795V108.61C174.315 108.133 169.872 106.301 162.493 106.301C154.004 106.301 150.433 108.053 149.64 108.531V111.875Z" fill="black"/>
<path d="M125.52 286.097C125.44 285.62 115.522 234.5 112.666 224.148C110.762 217.38 109.492 213.717 109.492 213.637L110.365 213.319C110.365 213.319 111.635 217.061 113.539 223.909C116.475 234.34 126.313 285.46 126.392 285.938L125.52 286.097Z" fill="black"/>
<path d="M11.6635 169.524H64.3468C64.3468 169.524 66.1717 169.923 66.1717 172.63C66.1717 175.337 65.9337 195.164 65.6956 198.19C65.4576 201.216 62.998 211.089 61.7285 211.567C60.459 212.045 7.14094 211.567 7.14094 211.567C7.14094 211.567 5.55409 210.452 6.42686 206.391C7.29963 202.33 8.64845 197.155 9.36253 192.775C9.91792 189.272 9.75924 176.691 9.6799 171.674C9.60055 170.48 10.4733 169.524 11.6635 169.524Z" fill="#F9A826"/>
<path d="M46.1774 212.284C32.0544 212.284 12.6949 212.125 7.14091 212.045H6.98223L6.90288 211.965C6.82354 211.886 5.07801 210.612 5.95078 206.312C6.26814 204.879 6.58551 203.366 6.98223 201.773C7.69631 198.747 8.41039 195.562 8.88644 192.696C9.44184 189.272 9.28316 176.85 9.20381 171.674C9.20381 170.958 9.44184 170.321 9.91789 169.843C10.3939 169.365 11.0287 169.047 11.7428 169.047H64.5055C65.2989 169.206 66.727 170.161 66.727 172.55C66.727 175.258 66.489 195.005 66.251 198.19C66.0923 200.579 63.712 211.328 61.9665 211.965C61.4111 212.284 54.7463 212.284 46.1774 212.284ZM7.2996 211.169C28.4047 211.328 60.221 211.567 61.5698 211.169C62.5219 210.612 64.9815 201.614 65.2195 198.19C65.4576 195.164 65.6956 175.258 65.6956 172.63C65.6956 170.56 64.5055 170.082 64.2674 170.002H11.6634C11.2667 170.002 10.7907 170.161 10.5526 170.48C10.2353 170.798 10.0766 171.197 10.0766 171.595C10.1559 176.77 10.3939 189.272 9.75921 192.855C9.28316 195.801 8.56907 198.907 7.85499 202.012C7.45828 203.605 7.14091 205.117 6.82354 206.551C6.1888 209.656 6.98223 210.851 7.2996 211.169Z" fill="black"/>
<path d="M36.4181 50.6423C36.4181 50.6423 31.5782 51.0405 29.3566 53.0311C27.135 55.0218 26.9763 56.1366 26.9763 56.1366H44.5903C44.5903 56.1366 44.5903 52.0756 36.4181 50.6423Z" fill="#F9A826"/>
<path d="M45.0664 56.6142H26.3416L26.5002 56.0569C26.5002 55.8976 26.8176 54.7828 29.1185 52.7126C31.4195 50.6423 36.2594 50.2441 36.418 50.2441H36.4974H36.5767C44.987 51.6774 45.1457 55.9772 45.1457 56.2161V56.6142H45.0664ZM27.6904 55.6587H44.0349C43.7175 54.6236 42.3687 52.1552 36.418 51.12C35.8626 51.1997 31.6575 51.5978 29.6739 53.3496C28.5631 54.3847 28.0077 55.181 27.6904 55.6587Z" fill="black"/>
<path d="M36.4182 50.6423H45.4632C45.4632 50.6423 53.5562 57.2513 57.9993 77.6357C62.4425 98.02 58.3961 112.432 58.3961 112.432L53.0801 98.5774C53.0801 98.5774 52.7627 84.8817 49.5097 74.2117C46.2567 63.5418 41.9722 55.8977 36.4182 50.6423Z" fill="#133386"/>
<path d="M58.396 113.866L52.5247 98.5774C52.5247 98.4181 52.2073 84.8816 48.9543 74.2913C45.6219 63.5418 41.5754 56.1365 36.1008 50.9608L35.228 50.1646H45.5425L45.7012 50.2442C46.0186 50.4831 53.9528 57.1717 58.396 77.4764C62.7598 97.7811 58.7927 112.353 58.7927 112.512L58.396 113.866ZM53.4768 98.4977L58.2373 110.84C59.1101 106.699 61.0936 94.1183 57.5232 77.7153C53.4768 59.0827 46.336 51.996 45.3045 51.1201H37.6083C42.7656 56.3754 46.6533 63.701 49.827 74.0524C53.0007 84.3242 53.3974 97.3033 53.4768 98.4977Z" fill="black"/>
<path d="M137.024 323.601L133.692 323.999C133.692 323.999 133.851 324.317 133.295 328.776C132.819 333.235 130.836 336.739 130.836 336.739C130.836 336.739 130.439 352.823 130.836 352.346C131.232 351.948 131.232 354.655 144.959 355.053C158.685 355.451 189.549 356.168 190.66 355.053C191.771 353.938 193.754 353.062 192.009 349.638C190.263 346.214 170.824 337.615 167.492 335.465C164.16 333.315 152.893 325.034 151.544 323.601C151.544 323.601 148.608 323.919 148.608 325.591C148.608 327.343 147.974 327.343 147.974 327.343C147.974 327.343 144.165 328.219 141.23 327.98C138.294 327.741 137.58 326.865 137.58 326.865L137.024 323.601Z" fill="black"/>
<path d="M178.203 356.089C171.459 356.089 160.986 355.93 144.959 355.532C134.327 355.213 131.867 353.541 130.994 352.904L130.677 352.824C130.28 352.665 129.963 352.506 130.439 336.74V336.66L130.518 336.581C130.518 336.581 132.422 333.157 132.899 328.857C133.295 325.274 133.295 324.398 133.295 324.238L133.057 323.761L137.421 323.283L138.056 326.786C138.294 326.946 139.167 327.503 141.309 327.662C144.165 327.901 147.894 327.105 147.894 327.025C147.974 326.946 148.132 326.707 148.132 325.751C148.132 323.601 151.385 323.283 151.465 323.283H151.703L151.861 323.442C153.131 324.796 164.239 333.077 167.73 335.227C168.682 335.864 171.142 337.058 173.919 338.412C182.964 342.951 191.215 347.171 192.405 349.56C193.992 352.824 192.564 354.098 191.453 355.054C191.295 355.213 191.136 355.372 190.977 355.532C190.819 355.611 190.342 356.089 178.203 356.089ZM131.232 351.869C131.391 351.948 131.47 352.028 131.55 352.028C133.454 353.461 137.976 354.337 145.038 354.496C184.312 355.532 189.866 354.895 190.422 354.576C190.58 354.417 190.739 354.258 190.898 354.098C191.929 353.222 192.881 352.347 191.612 349.719C190.501 347.41 179.869 342.154 173.522 339.049C170.586 337.616 168.206 336.421 167.254 335.784C164.239 333.873 153.448 325.911 151.385 324C150.751 324.079 149.084 324.477 149.084 325.512C149.084 327.423 148.37 327.662 148.053 327.662C147.656 327.742 144.086 328.538 141.23 328.299C138.214 328.06 137.342 327.105 137.262 327.025L137.183 326.946L136.628 324L134.168 324.238C134.168 324.875 134.089 326.07 133.771 328.697C133.295 332.838 131.629 336.103 131.312 336.74C131.232 342.075 131.074 350.197 131.232 351.869Z" fill="#FFB8B8"/>
<path d="M130.677 346.932C130.677 346.932 134.882 350.356 147.18 351.152C159.399 351.869 185.82 353.382 192.564 351.152C192.564 351.152 194.309 354.337 191.612 356.567C188.914 358.796 134.723 356.567 134.723 356.567C134.723 356.567 130.518 355.611 128.931 353.461C127.344 351.391 128.059 346.534 128.931 345.578C129.804 344.623 130.597 344.782 130.597 344.782V346.932H130.677Z" fill="white"/>
<path d="M175.109 358C159.557 358 138.373 357.124 134.803 357.044H134.723C134.565 356.965 130.359 356.009 128.693 353.78C126.948 351.471 127.741 346.375 128.693 345.339C129.725 344.145 130.677 344.384 130.836 344.384L131.232 344.464V346.773C132.105 347.41 136.707 350.117 147.259 350.754C156.701 351.311 185.502 353.063 192.485 350.754L192.881 350.674L193.04 350.993C193.754 352.187 194.389 355.054 192.008 356.965C190.977 357.681 183.916 358 175.109 358ZM134.882 356.089C156.622 356.965 189.549 357.761 191.374 356.169C193.278 354.576 192.643 352.506 192.326 351.709C184.55 353.859 156.463 352.187 147.101 351.63C134.803 350.913 130.518 347.489 130.359 347.33L130.201 347.171V345.339C129.963 345.419 129.725 345.578 129.407 345.976C128.693 346.852 127.979 351.391 129.407 353.222C130.836 354.974 134.485 355.93 134.882 356.089Z" fill="black"/>
<path d="M163.287 351.948C163.287 351.948 161.779 348.843 164.794 347.887C167.809 346.932 177.727 348.047 181.377 347.25C185.026 346.454 185.106 344.782 185.106 344.782C185.106 344.782 191.136 347.808 191.85 349.321C192.564 350.834 192.564 350.834 192.564 350.834C192.564 350.834 192.485 351.948 185.502 352.108C185.423 352.108 168.92 352.506 163.287 351.948Z" fill="black"/>
<path d="M173.522 352.745C169.555 352.745 165.508 352.665 163.207 352.426H162.969L162.89 352.187C162.89 352.108 162.097 350.515 162.652 349.082C162.969 348.286 163.604 347.728 164.635 347.41C166.302 346.852 169.713 346.932 173.284 347.012C176.378 347.091 179.552 347.171 181.218 346.773C184.392 346.056 184.63 344.702 184.63 344.702L184.709 344.065L185.265 344.304C185.899 344.623 191.453 347.41 192.247 349.002L193.04 350.674V350.834C192.961 351.869 190.342 352.426 185.503 352.585C185.026 352.585 179.314 352.745 173.522 352.745ZM163.604 351.471C169.396 352.028 185.265 351.63 185.423 351.55C190.184 351.391 191.612 350.834 192.009 350.595L191.453 349.321C191.057 348.365 187.724 346.454 185.423 345.26C185.106 345.897 184.154 346.932 181.535 347.569C179.79 347.967 176.616 347.887 173.363 347.808C170.031 347.728 166.54 347.649 165.032 348.126C164.318 348.365 163.842 348.763 163.604 349.241C163.207 350.197 163.445 351.072 163.604 351.471Z" fill="black"/>
<path d="M131.55 335.306C131.55 335.306 136.31 341.915 146.387 344.065C155.035 345.897 155.67 342.075 153.766 338.651C153.766 338.651 157.574 339.606 157.812 344.304C158.05 348.922 150.433 348.126 147.022 347.33C142.42 346.215 134.882 343.667 130.836 337.616V336.819L131.55 335.306Z" fill="#F9A826"/>
<path d="M152.258 348.365C149.799 348.365 147.418 347.808 146.942 347.728C139.087 345.817 133.533 342.473 130.439 337.854L130.36 337.695V336.66L131.47 334.431L131.946 335.068C132.026 335.147 136.707 341.517 146.466 343.667C150.275 344.463 152.814 344.225 153.766 342.951C154.4 342.075 154.242 340.562 153.369 338.89L152.814 337.934L153.845 338.173C153.924 338.173 157.971 339.288 158.209 344.225C158.288 345.419 157.891 346.375 157.019 347.091C155.987 348.047 154.083 348.365 152.258 348.365ZM131.312 337.377C134.327 341.836 139.643 344.941 147.18 346.773C149.719 347.41 154.559 347.967 156.543 346.295C157.177 345.817 157.415 345.1 157.415 344.225C157.257 341.517 155.829 340.164 154.797 339.527C155.352 341.04 155.273 342.473 154.559 343.428C153.369 345.021 150.592 345.419 146.307 344.463C137.897 342.632 133.137 337.854 131.708 336.103L131.391 336.819L131.312 337.377Z" fill="black"/>
<path d="M146.863 327.583C146.863 327.583 144.403 325.592 146.228 323.601C147.974 321.611 151.465 321.292 151.465 321.292C151.465 321.292 164.477 332.52 168.761 336.182L173.601 338.651C173.601 338.651 173.681 340.482 170.428 341.597C167.095 342.712 157.415 336.899 155.987 335.944C154.559 334.908 148.053 329.494 146.863 327.583Z" fill="#F9A826"/>
<path d="M169.396 342.154C165.191 342.154 156.86 337.058 155.67 336.262C154.4 335.386 147.894 329.892 146.466 327.901C146.228 327.662 145.117 326.707 145.038 325.433C144.958 324.716 145.197 324 145.752 323.363C147.656 321.213 151.147 320.894 151.306 320.894H151.465L151.623 321.053C151.623 321.053 164.556 332.201 168.841 335.864L173.918 338.412V338.651C173.918 338.73 173.998 340.88 170.427 342.075C170.189 342.154 169.793 342.154 169.396 342.154ZM151.306 321.77C150.592 321.85 147.973 322.327 146.545 323.92C146.149 324.398 145.99 324.796 145.99 325.353C146.069 326.388 147.101 327.264 147.101 327.264L147.18 327.344C148.37 329.096 154.718 334.51 156.225 335.545C157.971 336.74 167.254 342.154 170.189 341.119C172.411 340.403 172.887 339.367 173.046 338.89L168.364 336.501C164.397 333.077 152.734 323.044 151.306 321.77Z" fill="black"/>
<path d="M158.129 326.866C158.129 326.866 159.161 325.911 158.447 324.716C157.733 323.522 156.86 323.761 155.908 324.238C154.956 324.716 148.688 329.414 148.053 331.166C147.418 332.918 148.767 333.794 149.957 333.077C150.512 332.758 151.385 331.723 152.813 330.37C154.162 329.096 156.304 327.742 158.129 326.866Z" fill="#F9A826"/>
<path d="M149.084 333.794C148.688 333.794 148.37 333.714 148.053 333.475C147.418 332.997 147.26 332.042 147.656 331.007C148.37 329.016 154.797 324.238 155.749 323.761C156.463 323.442 157.891 322.646 158.923 324.398C159.637 325.672 158.923 326.707 158.526 327.185L158.447 327.264C156.463 328.22 154.48 329.573 153.29 330.688C152.734 331.166 152.337 331.644 151.941 332.042C151.227 332.758 150.751 333.157 150.433 333.395C149.878 333.714 149.402 333.794 149.084 333.794ZM157.177 324.238C156.86 324.238 156.543 324.398 156.146 324.637C155.194 325.114 149.084 329.653 148.529 331.325C148.291 331.962 148.37 332.52 148.688 332.758C148.926 332.997 149.402 332.918 149.798 332.679C150.116 332.52 150.592 332.042 151.147 331.405C151.544 331.007 152.02 330.529 152.575 330.051C154.083 328.618 156.305 327.264 157.891 326.468C158.05 326.309 158.526 325.672 158.129 324.875C157.812 324.477 157.495 324.238 157.177 324.238Z" fill="black"/>
<path d="M161.779 330.131C161.779 330.131 162.81 329.175 162.096 327.981C161.382 326.786 160.51 327.025 159.557 327.503C158.605 327.981 152.417 332.042 151.782 333.873C151.147 335.705 152.575 336.581 153.924 335.864C154.479 335.545 154.797 335.227 156.225 333.873C157.653 332.52 159.716 331.007 161.779 330.131Z" fill="#F9A826"/>
<path d="M153.051 336.501C152.575 336.501 152.179 336.342 151.861 336.103C151.227 335.545 151.068 334.67 151.465 333.634C152.179 331.564 158.685 327.424 159.478 327.025C160.192 326.707 161.62 325.911 162.652 327.662C163.366 328.936 162.652 329.972 162.255 330.449L162.096 330.529C160.351 331.246 158.367 332.599 156.701 334.112L156.066 334.749C155.194 335.625 154.876 335.864 154.321 336.182C153.845 336.421 153.448 336.501 153.051 336.501ZM160.906 327.583C160.589 327.583 160.272 327.742 159.875 327.981C158.843 328.538 152.893 332.44 152.337 334.033C152.099 334.67 152.179 335.147 152.496 335.466C152.813 335.705 153.289 335.705 153.766 335.466C154.162 335.227 154.48 334.988 155.273 334.192L155.987 333.555C157.653 331.962 159.796 330.529 161.541 329.812C161.7 329.653 162.176 329.016 161.7 328.299C161.462 327.742 161.224 327.583 160.906 327.583Z" fill="black"/>
<path d="M165.032 333.157C165.032 333.157 165.905 332.281 165.191 331.246C164.477 330.21 163.763 330.529 162.969 330.927C162.176 331.405 157.653 335.068 156.86 336.581C155.908 338.492 157.733 338.969 158.209 338.73C158.685 338.412 158.843 338.332 160.113 337.138C161.224 335.944 163.207 334.112 165.032 333.157Z" fill="#F9A826"/>
<path d="M157.812 339.288C157.336 339.288 156.86 339.129 156.543 338.81C156.305 338.571 155.67 337.775 156.384 336.421C157.257 334.749 161.859 331.007 162.652 330.529C163.287 330.21 164.556 329.414 165.508 331.007C166.222 332.121 165.667 333.157 165.27 333.555L165.112 333.634C163.049 334.67 160.906 336.819 160.272 337.456C159.082 338.651 158.923 338.81 158.367 339.129C158.288 339.288 158.05 339.288 157.812 339.288ZM164.08 331.007C163.842 331.007 163.525 331.166 163.128 331.405C162.414 331.803 157.891 335.466 157.177 336.899C157.019 337.297 156.781 337.775 157.098 338.093C157.336 338.412 157.812 338.412 157.891 338.332C158.367 338.093 158.526 337.934 159.637 336.819C160.272 336.182 162.493 333.953 164.635 332.838C164.794 332.679 165.112 332.121 164.715 331.564C164.556 331.166 164.397 331.007 164.08 331.007Z" fill="black"/>
<path d="M168.364 335.625C168.364 335.625 168.523 334.67 167.809 333.794C167.016 332.918 164.159 335.068 162.572 337.377C160.827 339.845 161.382 340.88 162.096 341.279C162.731 341.677 163.049 341.677 163.445 341.119C163.683 340.403 165.746 337.138 168.364 335.625Z" fill="#F9A826"/>
<path d="M162.731 341.916C162.414 341.916 162.096 341.756 161.779 341.597C161.303 341.358 161.065 340.96 160.906 340.403C160.748 339.527 161.144 338.412 162.096 337.058C163.366 335.227 165.746 333.236 167.174 333.157C167.65 333.157 167.968 333.316 168.126 333.475C168.999 334.51 168.841 335.705 168.841 335.705V335.944L168.682 336.023C166.064 337.536 164.08 340.88 163.842 341.199C163.445 341.756 163.128 341.916 162.731 341.916ZM167.254 334.033C166.302 334.112 164.239 335.625 162.89 337.616C161.858 339.049 161.779 339.845 161.858 340.243C161.938 340.482 162.017 340.642 162.255 340.801C162.573 341.04 162.731 341.04 162.731 341.04C162.731 341.04 162.811 341.04 162.89 340.801C163.287 340.164 165.191 337.058 167.888 335.386C167.888 335.147 167.809 334.59 167.412 334.112C167.412 334.033 167.333 334.033 167.254 334.033Z" fill="black"/>
<path d="M172.411 337.377C172.411 337.377 172.411 336.342 171.221 335.944C170.11 335.625 167.809 337.058 166.698 339.686C165.587 342.314 166.064 343.349 166.778 343.667C167.492 343.986 167.809 343.986 168.047 343.349C168.285 342.632 169.634 338.571 172.411 337.377Z" fill="#F9A826"/>
<path d="M167.412 344.304C167.095 344.304 166.857 344.225 166.54 344.065C165.825 343.747 164.794 342.712 166.222 339.447C167.412 336.66 169.951 335.068 171.3 335.466C172.49 335.864 172.808 336.899 172.808 337.377V337.695L172.57 337.855C170.269 338.89 168.999 342.154 168.602 343.189C168.523 343.349 168.523 343.428 168.444 343.508C168.126 344.065 167.809 344.304 167.412 344.304ZM170.824 336.342C169.951 336.342 168.047 337.536 167.095 339.845C166.302 341.677 166.222 342.871 166.936 343.189C167.333 343.349 167.412 343.349 167.412 343.349C167.412 343.349 167.492 343.269 167.571 343.11C167.571 343.03 167.65 342.951 167.73 342.791C168.206 341.597 169.475 338.412 171.856 337.138C171.776 336.899 171.538 336.581 171.062 336.421C170.983 336.342 170.903 336.342 170.824 336.342Z" fill="black"/>
<path d="M137.659 326.866L137.024 323.601L132.66 324.079C132.66 324.079 133.295 330.529 132.422 332.918C132.422 332.918 136.151 334.192 137.659 326.866Z" fill="#F9A826"/>
<path d="M133.136 333.475C132.66 333.475 132.343 333.395 132.343 333.395L131.867 333.236L132.026 332.758C132.819 330.529 132.264 324.238 132.184 324.159L132.105 323.681L137.342 323.124L138.056 326.866V326.946C137.421 330.051 136.31 332.121 134.803 332.997C134.168 333.395 133.533 333.475 133.136 333.475ZM133.057 332.52C133.374 332.52 133.85 332.44 134.406 332.121C135.279 331.564 136.469 330.29 137.183 326.786L136.627 324.079L133.136 324.477C133.295 325.911 133.612 330.21 133.057 332.52Z" fill="black"/>
<path d="M13.7263 140.062C13.7263 140.062 23.8028 148.502 42.3689 153.917L13.7263 140.062Z" fill="#F9A826"/>
<path d="M42.2896 154.396C23.8028 148.981 13.5676 140.541 13.4089 140.461L14.0437 139.744C14.123 139.824 24.2788 148.185 42.5276 153.52L42.2896 154.396Z" fill="black"/>
<path d="M84.9758 31.9301C85.5893 31.9301 86.0866 31.431 86.0866 30.8153C86.0866 30.1997 85.5893 29.7006 84.9758 29.7006C84.3623 29.7006 83.865 30.1997 83.865 30.8153C83.865 31.431 84.3623 31.9301 84.9758 31.9301Z" fill="black"/>
<path d="M74.1059 31.9301C74.7194 31.9301 75.2167 31.431 75.2167 30.8153C75.2167 30.1997 74.7194 29.7006 74.1059 29.7006C73.4924 29.7006 72.9951 30.1997 72.9951 30.8153C72.9951 31.431 73.4924 31.9301 74.1059 31.9301Z" fill="black"/>
<path d="M83.0715 27.3914C83.0715 27.3914 83.7856 26.4359 85.2931 26.3562C86.8006 26.197 87.7527 26.834 88.5462 27.9488" fill="#F9A826"/>
<path d="M88.1494 28.1877C87.4354 27.1526 86.5626 26.6748 85.3724 26.8341C84.103 26.9137 83.5476 27.7099 83.4682 27.7099L82.7542 27.1526C82.7542 27.0729 83.6269 26.0378 85.2931 25.8785C86.8006 25.7193 87.9908 26.3563 88.9429 27.6303L88.1494 28.1877Z" fill="black"/>
<path d="M71.1702 27.3118C71.1702 27.3118 72.281 26.5156 74.4232 26.3563C76.6448 26.1971 77.5176 27.1526 78.1523 27.9488" fill="#F9A826"/>
<path d="M77.8349 28.1877C77.2002 27.3915 76.4067 26.5952 74.5025 26.7545C72.519 26.9137 71.4875 27.6304 71.4875 27.6304L70.9321 26.8341C71.0115 26.8341 72.1223 25.9582 74.4232 25.7989C76.6448 25.6397 77.7556 26.5156 78.549 27.5507L77.8349 28.1877Z" fill="black"/>
<path d="M81.1673 29.3812C81.1673 29.3812 84.8964 35.3532 83.9443 37.105C83.0716 38.8568 81.9608 38.0605 80.2152 38.379C78.4697 38.7771 77.4383 37.6624 77.6763 36.8661" fill="#FFB8B8"/>
<path d="M79.5805 38.9373C78.7871 38.9373 78.073 38.6984 77.6763 38.141C77.2796 37.7429 77.1209 37.1855 77.2796 36.7874L78.1523 37.0262C78.073 37.1855 78.1523 37.3447 78.311 37.504C78.6284 37.8225 79.2631 38.0614 80.1359 37.9021C80.7706 37.7429 81.2467 37.7429 81.7227 37.7429C82.5955 37.7429 83.0716 37.7429 83.5476 36.7874C84.103 35.7522 82.1988 31.9301 80.7706 29.5414L81.5641 29.0636C82.1988 30.0987 85.3725 35.3541 84.4204 37.1855C83.7063 38.6188 82.6748 38.6188 81.7227 38.6188C81.326 38.6188 80.85 38.6188 80.3739 38.6984C80.0565 38.9373 79.8185 38.9373 79.5805 38.9373Z" fill="black"/>
<path d="M83.7062 110.999C83.7062 110.999 90.7676 110.203 92.4338 106.46C94.1 102.718 95.5282 99.8515 94.8141 99.0552C94.1 98.2589 92.5132 98.6571 91.5611 99.5329C90.609 100.409 88.7047 102.399 87.5939 103.435C86.4832 104.47 80.5325 106.699 80.5325 106.699" fill="#FFB8B8"/>
<path d="M83.7855 111.477L83.7062 110.521C83.7855 110.521 90.5296 109.725 92.1165 106.222L92.6719 105.027C93.7827 102.559 94.9728 99.8514 94.5761 99.294C94.1 98.7366 92.7512 99.0551 91.9578 99.7718C91.4024 100.25 90.5296 101.125 89.7362 101.922C89.1014 102.559 88.4667 103.196 87.9907 103.594C86.8799 104.709 81.4052 106.699 80.7705 106.938L80.4531 106.062C82.1193 105.425 86.4831 103.673 87.3559 102.877C87.832 102.399 88.4667 101.842 89.1015 101.205C89.9742 100.329 90.847 99.4533 91.4024 98.9755C92.5925 97.9404 94.4174 97.5422 95.2902 98.5774C96.1629 99.5329 95.2108 101.683 93.5446 105.266L92.9892 106.46C91.085 110.601 84.0235 111.397 83.7855 111.477Z" fill="black"/>
<path d="M125.996 151.449H69.1072V152.405H125.996V151.449Z" fill="black"/>
<path d="M76.248 144.92L77.9142 153.36H80.7706L78.9457 144.92H76.248Z" fill="#F9A826"/>
<path d="M81.3259 153.758H77.5175L75.6926 144.442H79.263L81.3259 153.758ZM78.3109 152.883H80.2151L78.549 145.398H76.8034L78.3109 152.883Z" fill="black"/>
<path d="M87.9114 144.92L89.5776 153.36H92.3546L90.5297 144.92H87.9114Z" fill="#F9A826"/>
<path d="M92.9893 153.758H89.1808L87.356 144.442H90.9264L92.9893 153.758ZM89.8949 152.883H91.7991L90.1329 145.398H88.3874L89.8949 152.883Z" fill="black"/>
<path d="M104.018 144.92L105.684 153.36H108.54L106.715 144.92H104.018Z" fill="#F9A826"/>
<path d="M109.096 153.758H105.287L103.462 144.442H107.033L109.096 153.758ZM106.081 152.883H107.985L106.319 145.398H104.573L106.081 152.883Z" fill="black"/>
<path d="M114.888 144.92L116.554 153.36H119.41L117.585 144.92H114.888Z" fill="#F9A826"/>
<path d="M119.966 153.758H116.157L114.332 144.442H117.903L119.966 153.758ZM116.951 152.883H118.855L117.189 145.398H115.443L116.951 152.883Z" fill="black"/>
<path d="M99.654 163.234C99.654 163.234 102.59 161.562 102.748 157.262C102.907 152.962 102.034 151.927 102.034 151.927H97.5117C97.5117 151.927 98.8605 155.271 99.4159 161.721C99.892 168.091 99.4159 172.471 99.4159 172.471" fill="#F9A826"/>
<path d="M99.892 172.471L98.9399 172.391C98.9399 172.311 99.4159 168.012 98.9399 161.721C98.4638 155.51 97.115 152.086 97.115 152.086L96.877 151.449H102.272L102.431 151.609C102.51 151.768 103.462 152.883 103.304 157.262C103.145 161.323 100.685 163.154 100.051 163.553C100.289 168.888 99.892 172.471 99.892 172.471ZM98.2258 152.405C98.6225 153.679 99.4953 156.784 99.892 161.642C99.892 161.88 99.9713 162.199 99.9713 162.438C100.765 161.801 102.193 160.129 102.352 157.262C102.51 154.157 102.034 152.803 101.796 152.405H98.2258Z" fill="black"/>
<path d="M97.2738 192.297C97.2738 192.297 92.5133 198.587 82.9922 199.145L97.2738 192.297Z" fill="#F9A826"/>
<path d="M82.9922 199.703L82.9128 198.747C92.1166 198.19 96.7977 192.138 96.8771 192.059L97.5912 192.616C97.4325 192.855 92.6719 199.066 82.9922 199.703Z" fill="black"/>
<path d="M95.3696 232.907C95.3696 232.907 93.4653 245.965 87.9114 249.788L95.3696 232.907Z" fill="#F9A826"/>
<path d="M88.1494 250.186L87.594 249.39C92.9099 245.727 94.8141 232.987 94.8935 232.827L95.8456 232.987C95.7663 233.544 93.7827 246.284 88.1494 250.186Z" fill="black"/>
<path d="M125.996 222.317C125.996 222.317 133.216 222.157 138.928 218.415L125.996 222.317Z" fill="#F9A826"/>
<path d="M125.996 222.794V221.839C126.075 221.839 133.136 221.68 138.69 218.017L139.166 218.813C133.454 222.556 126.313 222.794 125.996 222.794Z" fill="black"/>
<path d="M134.723 290.875C134.723 290.875 142.975 296.847 148.45 298.041L134.723 290.875Z" fill="#F9A826"/>
<path d="M148.291 298.519C142.816 297.245 134.723 291.512 134.406 291.273L134.961 290.477C135.041 290.556 143.213 296.369 148.529 297.564L148.291 298.519Z" fill="black"/>
<path d="M74.8992 41.8826C74.8992 41.8826 77.2794 44.4306 80.2945 44.6695C83.3095 44.9084 84.4996 44.7491 84.9757 44.1917" fill="#F9A826"/>
<path d="M82.4367 45.2278C81.8019 45.2278 81.0879 45.2278 80.2151 45.1481C77.0414 44.9092 74.6611 42.3612 74.5024 42.202L75.2165 41.5649C75.2165 41.5649 77.5174 43.9537 80.2944 44.1926C82.8334 44.4315 84.2615 44.2722 84.6583 43.8741L85.3723 44.5111C84.8963 44.9889 84.0235 45.2278 82.4367 45.2278Z" fill="black"/>
<path d="M24.2788 159.81C24.2788 159.81 25.4689 172.391 42.4482 184.415L24.2788 159.81Z" fill="#F9A826"/>
<path d="M42.1308 184.813C25.2309 172.789 23.8821 160.367 23.8027 159.89L24.7548 159.81C24.7548 159.969 26.183 172.311 42.6862 184.096L42.1308 184.813Z" fill="black"/>
<path d="M155.493 73.8714L154.838 74.1572L161.324 89.0396L161.979 88.7538L155.493 73.8714Z" fill="black"/>
<path d="M117.982 79.069L112.984 66.4084H185.265L190.342 79.069H117.982Z" fill="#B1BBCE"/>
<path d="M190.977 79.5467H117.665L112.27 66.0103H185.582L190.977 79.5467ZM118.3 78.5912H189.628L184.947 66.8861H113.618L118.3 78.5912Z" fill="black"/>
<path d="M149.005 96.3478L143.927 83.7668H216.288L221.286 96.3478H149.005Z" fill="#FFB8B8"/>
<path d="M222 96.8255H148.688L143.292 83.2891H216.605L222 96.8255ZM149.322 95.9496H220.651L215.97 84.2446H144.641L149.322 95.9496Z" fill="black"/>
<path d="M143.61 37.1855C141.705 48.2535 131.232 57.2513 120.204 57.2513C109.175 57.2513 101.796 48.2535 103.7 37.1855C105.605 26.1174 116.078 17.1196 127.106 17.1196C138.135 17.1196 145.514 26.1174 143.61 37.1855Z" fill="black"/>
<path d="M140.912 37.1855C139.008 48.2535 128.535 57.2513 117.506 57.2513C106.478 57.2513 99.0987 48.2535 101.003 37.1855C102.907 26.1174 113.38 17.1196 124.409 17.1196C135.438 17.1196 142.816 26.1174 140.912 37.1855Z" fill="#F9A826"/>
<path d="M117.506 57.7291C112.111 57.7291 107.35 55.6588 104.097 51.7571C100.844 47.8555 99.5748 42.6001 100.527 37.1059C102.431 25.8786 113.142 16.7216 124.409 16.7216C129.804 16.7216 134.565 18.7918 137.818 22.6139C141.071 26.5156 142.42 31.6913 141.468 37.2652C139.484 48.4925 128.773 57.7291 117.506 57.7291ZM124.409 17.5974C113.618 17.5974 103.304 26.436 101.479 37.2652C100.606 42.5205 101.796 47.4573 104.891 51.1998C107.906 54.783 112.428 56.7736 117.586 56.7736C128.376 56.7736 138.691 47.9351 140.515 37.1059C141.388 31.8506 140.198 26.9137 137.104 23.2509C134.009 19.5881 129.566 17.5974 124.409 17.5974Z" fill="black"/>
<path d="M137.976 37.1856C136.39 46.6611 127.424 54.3052 117.982 54.3052C108.54 54.3052 102.272 46.6611 103.859 37.1856C105.446 27.71 114.412 20.0659 123.854 20.0659C133.295 20.0659 139.643 27.71 137.976 37.1856Z" fill="#F9A826"/>
<path d="M118.062 54.783C113.38 54.783 109.334 52.9516 106.557 49.6869C103.78 46.3426 102.669 41.8835 103.463 37.1059C105.129 27.4711 114.253 19.5881 123.933 19.5881C128.535 19.5881 132.661 21.4195 135.438 24.6842C138.215 28.0285 139.325 32.4876 138.532 37.2652C136.786 46.9 127.662 54.783 118.062 54.783ZM123.933 20.5437C114.729 20.5437 106.002 28.0285 104.415 37.2652C103.621 41.7243 104.653 45.9445 107.271 49.0499C109.81 52.1553 113.698 53.8275 118.062 53.8275C127.265 53.8275 135.993 46.3426 137.58 37.1059C138.373 32.6469 137.342 28.4267 134.723 25.3212C132.105 22.2158 128.297 20.5437 123.933 20.5437Z" fill="black"/>
<path d="M151.068 16.8807H126.551V17.5974H151.068V16.8807Z" fill="black"/>
<path d="M155.194 25.9581H130.677V26.6748H155.194V25.9581Z" fill="black"/>
<path d="M186.137 25.9581H161.62V26.6748H186.137V25.9581Z" fill="black"/>
<path d="M200.498 36.7874H131.708V37.504H200.498V36.7874Z" fill="black"/>
<path d="M171.141 44.1926H137.58V44.9093H171.141V44.1926Z" fill="black"/>
<path d="M153.528 48.8906H129.011V49.6073H153.528V48.8906Z" fill="black"/>
<path d="M118.776 38.2207L109.889 32.9653L110.286 32.3283L118.776 37.3448L134.168 29.2229L134.565 29.8599L118.776 38.2207Z" fill="black"/>
<path d="M116.926 45.6938L115.815 50.5848L116.511 50.7442L117.623 45.8532L116.926 45.6938Z" fill="black"/>
<path d="M123.351 21.7385L121.903 27.0371L122.592 27.2267L124.04 21.928L123.351 21.7385Z" fill="black"/>
<path d="M109.493 36.7874H106.001V37.504H109.493V36.7874Z" fill="black"/>
<path d="M133.295 87.9075H95.687V87.1909H133.295C134.089 87.1909 134.882 86.7927 135.358 86.0761C135.834 85.3595 135.914 84.5632 135.596 83.7669L131.074 72.9378L131.788 72.6193L136.31 83.4484C136.707 84.404 136.628 85.5187 135.993 86.4742C135.358 87.3501 134.406 87.9075 133.295 87.9075Z" fill="black"/>
<path d="M212.4 82.8114C213.669 87.1113 211.21 90.5352 207.084 90.5352C203.117 90.5352 198.912 87.2705 197.721 83.2892C196.452 79.2282 198.594 75.7247 202.561 75.4858C206.608 75.1673 211.13 78.432 212.4 82.8114Z" fill="#F9A826"/>
<path d="M207.084 90.9333C202.879 90.9333 198.594 87.589 197.245 83.3688C196.531 81.1393 196.769 78.9894 197.88 77.3969C198.911 75.9636 200.498 75.0877 202.482 74.9284C206.846 74.6099 211.527 78.1135 212.796 82.6522C213.431 84.9614 213.193 87.0316 212.003 88.7038C210.892 90.1371 209.147 90.9333 207.084 90.9333ZM202.958 75.884C202.799 75.884 202.641 75.884 202.561 75.884C200.895 75.9636 199.546 76.7598 198.673 77.9542C197.721 79.3079 197.563 81.2189 198.118 83.13C199.308 86.952 203.275 90.0574 207.004 90.0574C208.75 90.0574 210.257 89.3408 211.21 88.1464C212.241 86.7928 212.479 84.9614 211.844 82.9707C210.813 78.9894 206.766 75.884 202.958 75.884Z" fill="black"/>
<path d="M181.218 66.2492C182.488 70.549 180.028 73.973 175.902 73.973C171.935 73.973 167.73 70.7083 166.54 66.727C165.27 62.666 167.413 59.1625 171.38 58.9236C175.505 58.6051 179.949 61.9494 181.218 66.2492Z" fill="#F9A826"/>
<path d="M175.902 74.4507C171.697 74.4507 167.412 71.1064 166.064 66.8862C165.35 64.6566 165.588 62.5067 166.698 60.9142C167.73 59.4809 169.317 58.605 171.3 58.4458C175.664 58.1273 180.345 61.6308 181.615 66.1695C182.25 68.4787 182.012 70.549 180.821 72.2211C179.79 73.6544 178.044 74.4507 175.902 74.4507ZM171.856 59.3217C171.697 59.3217 171.538 59.3217 171.459 59.3217C169.793 59.4013 168.444 60.1975 167.571 61.3919C166.619 62.7456 166.46 64.6566 167.016 66.5677C168.206 70.3897 172.173 73.4952 175.902 73.4952C177.648 73.4952 179.155 72.7785 180.107 71.5841C181.139 70.2305 181.377 68.3991 180.742 66.4084C179.631 62.5067 175.585 59.3217 171.856 59.3217Z" fill="black"/>
<path d="M62.2837 126.686C62.2837 126.686 59.2687 130.587 56.9678 133.772L62.2837 126.686Z" fill="#F9A826"/>
<path d="M57.5232 134.091L56.4917 133.374C58.7133 130.189 61.8076 126.287 61.8076 126.287L62.7598 127.084C62.7598 127.084 59.7447 130.985 57.5232 134.091Z" fill="black"/>
</g>
<defs>
<clipPath id="clip0_1_547">
<rect width="222" height="358" fill="white"/>
</clipPath>
</defs>
</svg>
