<svg width="213" height="321" viewBox="0 0 213 321" fill="none" xmlns="http://www.w3.org/2000/svg">
<g clip-path="url(#clip0_1_1255)">
<path d="M154.115 159.914H147.719V297.341H154.115V159.914Z" fill="black"/>
<path d="M154.583 297.809H147.252V159.524H154.583V297.809ZM148.188 296.95H153.725V160.383H148.188V296.95Z" fill="black"/>
<path d="M178.215 279.147L177.669 289.454C177.669 289.454 170.962 291.25 166.672 290.626C162.382 290.001 159.029 287.268 159.029 287.268L159.653 275.399L178.215 279.147Z" fill="white"/>
<path d="M168.622 291.25C167.92 291.25 167.218 291.25 166.594 291.094C162.226 290.469 158.873 287.815 158.717 287.658L158.561 287.502L159.184 274.853L178.683 278.679L178.137 289.767L177.825 289.845C177.591 290.001 172.755 291.25 168.622 291.25ZM159.496 287.112C160.276 287.658 163.162 289.689 166.75 290.235C170.338 290.782 175.875 289.454 177.201 289.142L177.669 279.538L160.042 276.024L159.496 287.112Z" fill="black"/>
<path d="M177.825 285.941C177.825 285.941 175.485 285.316 174.705 287.112C173.925 288.908 174.081 290.313 174.081 290.313C174.081 290.313 166.594 292.343 159.029 287.424L159.185 284.847C159.185 284.847 155.831 287.268 155.051 288.049C154.271 288.83 128.221 301.479 126.895 301.948C125.569 302.416 122.372 306.008 124.166 308.585C124.166 308.585 153.413 312.879 166.438 312.879C179.463 312.879 181.257 311.942 181.257 311.942C181.257 311.942 182.427 305.696 181.959 303.665C181.491 301.635 180.399 301.635 180.399 301.635L178.215 290.001L177.825 285.941Z" fill="black"/>
<path d="M166.438 313.27C153.491 313.27 124.321 308.975 124.087 308.975H123.854L123.776 308.819C123.074 307.804 122.996 306.633 123.464 305.227C124.087 303.431 125.725 301.713 126.739 301.479C128.221 301.089 153.881 288.439 154.739 287.736C155.519 286.956 158.717 284.535 158.873 284.457L159.652 283.91L159.496 287.19C165.814 291.172 172.131 290.235 173.613 289.923C173.613 289.376 173.769 288.205 174.315 286.878C175.017 285.238 177.045 285.238 177.981 285.472L178.293 285.55L178.683 289.845L180.867 301.089C181.335 301.245 182.115 301.791 182.505 303.431C182.972 305.539 181.881 311.63 181.803 311.942L181.725 312.177L181.569 312.255C181.335 312.333 179.307 313.27 166.438 313.27ZM124.399 308.116C127.051 308.507 154.115 312.411 166.438 312.411C177.045 312.411 180.087 311.786 180.867 311.552C181.101 310.381 181.881 305.383 181.491 303.665C181.101 302.026 180.399 301.948 180.321 301.948H180.009L179.931 301.635L177.747 290.001L177.435 286.331C176.889 286.253 175.641 286.253 175.173 287.268C174.471 288.908 174.549 290.235 174.549 290.235V290.626L174.159 290.704C173.847 290.782 166.36 292.656 158.717 287.736L158.483 287.58L158.561 285.706C157.547 286.487 155.831 287.815 155.285 288.283C154.193 289.376 127.129 302.182 126.895 302.26C126.193 302.416 124.789 303.822 124.243 305.461C124.009 306.555 124.009 307.413 124.399 308.116Z" fill="black"/>
<path d="M159.028 283.989C159.028 283.989 159.73 289.532 159.028 290.782C158.326 292.031 148.577 298.356 143.976 298.824C139.452 299.293 138.126 296.248 138.126 296.248L155.051 288.049C155.051 288.049 156.611 284.301 159.028 283.989Z" fill="white"/>
<path d="M143.118 299.293C139.062 299.293 137.814 296.56 137.736 296.404L137.58 296.013L154.739 287.658C155.051 286.878 156.611 283.754 159.029 283.52L159.496 283.442L159.574 283.91C159.652 284.457 160.276 289.611 159.496 291.016C158.717 292.5 148.889 298.824 144.132 299.293C143.742 299.293 143.43 299.293 143.118 299.293ZM138.828 296.482C139.296 297.185 140.778 298.668 143.976 298.434C148.577 297.965 158.093 291.641 158.639 290.626C159.029 289.845 158.873 286.721 158.639 284.613C157.079 285.16 155.831 287.424 155.441 288.283L155.363 288.439L138.828 296.482Z" fill="black"/>
<path d="M182.583 306.32C182.583 306.32 178.215 307.57 165.112 307.648C152.009 307.726 125.335 303.744 125.335 303.744C125.569 303.431 126.583 302.416 126.583 302.416C126.583 302.416 124.399 302.104 123.23 304.056C122.06 306.008 122.918 308.194 122.918 308.194C122.918 308.194 137.034 310.693 146.472 311.942C155.909 313.114 167.062 314.285 181.257 312.879C181.257 312.879 181.569 313.036 182.661 311.63C183.674 310.146 182.583 306.32 182.583 306.32Z" fill="white"/>
<path d="M168.154 313.972C160.042 313.972 153.023 313.192 146.394 312.411C137.034 311.24 122.996 308.741 122.84 308.663L122.606 308.585L122.528 308.35C122.528 308.272 121.592 305.93 122.918 303.822C124.243 301.635 126.661 301.948 126.739 301.948L127.675 302.104L127.051 302.729C126.895 302.885 126.661 303.119 126.427 303.431C131.029 304.056 153.335 307.179 164.956 307.179C165.034 307.179 165.19 307.179 165.268 307.179C178.059 307.101 182.583 305.93 182.583 305.852L183.05 305.696L183.206 306.164C183.284 306.555 184.298 310.303 183.128 311.864C182.583 312.567 181.881 313.348 181.335 313.27C176.499 313.738 172.209 313.972 168.154 313.972ZM123.308 307.804C125.335 308.194 137.97 310.381 146.55 311.474C156.455 312.723 167.296 313.816 181.257 312.411H181.335C181.413 312.333 181.725 312.098 182.349 311.396C183.05 310.459 182.661 308.194 182.349 306.945C180.945 307.257 176.031 308.116 165.268 308.194C152.321 308.272 125.647 304.368 125.413 304.29L124.633 304.212L125.101 303.587C125.179 303.431 125.335 303.275 125.569 303.041C124.945 303.197 124.243 303.509 123.775 304.368C122.84 305.696 123.152 307.257 123.308 307.804Z" fill="black"/>
<path d="M181.101 296.169C181.101 296.169 180.009 295.701 176.577 297.028C173.145 298.356 162.85 307.648 162.85 307.648C162.85 307.648 166.204 308.038 170.572 307.96C177.201 307.882 182.193 306.867 183.129 306.633C183.44 306.555 184.688 305.539 184.922 304.915C185.156 304.29 184.766 303.431 184.766 303.431C184.766 303.431 182.193 304.212 175.953 304.602C171.975 304.837 169.636 304.837 169.636 304.837C169.636 304.837 175.173 299.917 177.513 299.137C179.853 298.356 182.661 297.653 183.44 297.263C183.44 297.263 182.427 296.638 181.101 296.169Z" fill="white"/>
<path d="M169.792 308.429C165.814 308.429 162.772 308.116 162.772 308.116L161.758 308.038L162.538 307.335C162.928 306.945 172.911 297.965 176.421 296.638C179.775 295.389 181.101 295.701 181.257 295.779C182.661 296.248 183.674 296.872 183.674 296.95L184.376 297.419L183.596 297.731C183.128 297.965 182.193 298.2 180.945 298.59C179.931 298.902 178.683 299.215 177.669 299.605C176.031 300.152 172.599 302.963 170.962 304.368C172.053 304.368 173.691 304.29 175.953 304.134C182.037 303.744 184.688 302.963 184.688 302.963L185.078 302.885L185.234 303.275C185.312 303.353 185.702 304.368 185.39 305.071C185.078 305.774 183.752 306.945 183.284 307.023C182.193 307.335 177.123 308.35 170.572 308.429C170.338 308.429 170.026 308.429 169.792 308.429ZM163.942 307.257C165.268 307.335 167.686 307.492 170.572 307.492C176.967 307.413 181.959 306.476 182.973 306.164C183.207 306.086 184.298 305.149 184.454 304.759C184.532 304.524 184.454 304.29 184.454 303.978C183.518 304.212 180.867 304.759 175.953 305.071C171.975 305.305 169.636 305.305 169.636 305.305H168.466L169.402 304.524C169.636 304.29 175.017 299.527 177.435 298.746C178.527 298.356 179.697 298.044 180.789 297.731C181.413 297.575 181.959 297.419 182.427 297.263C182.037 297.107 181.569 296.872 181.023 296.716C180.945 296.716 179.853 296.404 176.811 297.575C173.925 298.512 166.36 305.071 163.942 307.257Z" fill="black"/>
<path d="M155.363 295.935C155.363 295.935 150.059 298.278 151.073 302.026C151.931 305.149 155.519 305.227 159.965 303.978C164.02 302.885 176.187 297.107 176.187 297.107L179.385 296.013L178.995 294.061C178.995 294.061 164.644 299.449 160.51 300.62C155.909 302.026 153.569 300.854 155.363 295.935Z" fill="white"/>
<path d="M155.441 305.227C152.789 305.227 151.151 304.212 150.605 302.182C149.435 298.122 154.895 295.701 155.129 295.545L156.065 295.154L155.675 296.169C154.973 298.122 154.973 299.527 155.597 300.23C156.299 301.011 157.937 301.011 160.276 300.386C164.332 299.215 178.605 293.905 178.761 293.827L179.307 293.671L179.853 296.56L176.265 297.731C175.797 297.965 164.098 303.431 160.042 304.602C158.327 304.915 156.767 305.227 155.441 305.227ZM154.583 296.872C153.179 297.731 150.839 299.527 151.541 301.87C152.243 304.368 154.973 304.915 159.887 303.509C163.864 302.416 175.875 296.794 176.031 296.716L178.917 295.779L178.761 294.764C176.109 295.779 164.488 300.074 160.744 301.167C158.015 301.948 156.065 301.791 155.129 300.776C154.271 299.996 154.115 298.668 154.583 296.872Z" fill="black"/>
<path d="M131.965 299.449C131.965 299.449 131.575 300.776 135.709 301.167C139.842 301.557 145.224 301.089 146.394 301.948C147.564 302.807 147.875 306.555 147.875 306.555L124.789 303.744L125.725 302.416C125.803 302.416 126.193 299.683 131.965 299.449Z" fill="white"/>
<path d="M148.421 307.101L124.01 304.056L125.413 302.182C125.569 301.635 126.583 299.215 132.043 298.98H132.667L132.511 299.527C132.511 299.761 133.135 300.464 135.865 300.698C137.424 300.854 139.14 300.854 140.856 300.854C144.054 300.854 146.004 300.933 146.784 301.557C148.031 302.494 148.421 306.086 148.421 306.476V307.101ZM125.647 303.353L147.408 306.008C147.252 304.602 146.784 302.728 146.16 302.26C145.614 301.791 143.04 301.791 140.778 301.791C139.062 301.791 137.268 301.791 135.709 301.635C133.603 301.401 132.277 300.933 131.809 300.23C131.731 300.152 131.653 299.996 131.653 299.917C126.739 300.23 126.271 302.416 126.271 302.494V302.572L125.647 303.353Z" fill="black"/>
<path d="M144.444 293.202C144.444 293.202 143.196 292.422 141.714 292.812C140.232 293.202 140.154 296.091 141.246 296.872C142.338 297.653 143.118 297.341 143.508 296.326C143.898 295.311 143.43 294.139 143.43 294.139L144.444 293.202Z" fill="white"/>
<path d="M142.338 297.731C141.948 297.731 141.48 297.575 140.934 297.263C140.154 296.716 139.92 295.389 140.076 294.452C140.232 293.437 140.778 292.656 141.558 292.422C143.196 291.953 144.6 292.812 144.678 292.89L145.146 293.202L143.976 294.374C144.132 294.842 144.288 295.701 143.976 296.56C143.664 297.341 143.196 297.653 142.884 297.731C142.65 297.731 142.572 297.731 142.338 297.731ZM142.572 293.124C142.338 293.124 142.104 293.124 141.792 293.202C141.402 293.359 141.09 293.827 140.934 294.53C140.778 295.311 141.012 296.17 141.402 296.482C141.792 296.794 142.182 296.872 142.494 296.794C142.806 296.716 142.962 296.404 143.04 296.17C143.352 295.311 142.962 294.374 142.962 294.296L142.806 293.983L143.586 293.28C143.352 293.28 142.962 293.124 142.572 293.124Z" fill="black"/>
<path d="M147.875 291.406C147.875 291.406 146.627 290.626 145.146 291.016C143.664 291.406 143.586 294.295 144.678 295.076C145.77 295.857 146.549 295.545 146.939 294.53C147.329 293.515 146.861 292.343 146.861 292.343L147.875 291.406Z" fill="white"/>
<path d="M145.848 296.013C145.458 296.013 144.99 295.857 144.444 295.545C143.664 294.998 143.43 293.671 143.586 292.734C143.742 291.719 144.288 290.938 145.068 290.704C146.706 290.235 148.109 291.094 148.187 291.172L148.655 291.484L147.485 292.656C147.641 293.124 147.797 293.983 147.485 294.842C147.173 295.623 146.706 295.935 146.394 296.013C146.16 295.935 146.004 296.013 145.848 296.013ZM146.082 291.406C145.848 291.406 145.614 291.406 145.302 291.484C144.912 291.641 144.6 292.109 144.444 292.812C144.288 293.593 144.522 294.452 144.912 294.764C145.302 295.076 145.692 295.154 146.004 295.076C146.316 294.998 146.472 294.686 146.55 294.452C146.861 293.593 146.472 292.656 146.472 292.578L146.316 292.265L147.017 291.563C146.784 291.484 146.472 291.406 146.082 291.406Z" fill="black"/>
<path d="M151.463 289.767C151.463 289.767 150.215 288.986 148.733 289.376C147.252 289.767 147.174 292.656 148.266 293.437C149.357 294.217 150.137 293.905 150.527 292.89C150.917 291.875 150.449 290.704 150.449 290.704L151.463 289.767Z" fill="white"/>
<path d="M149.435 294.296C149.045 294.296 148.577 294.139 148.031 293.827C147.252 293.28 147.018 291.953 147.174 291.016C147.33 290.001 147.875 289.22 148.655 288.986C150.293 288.517 151.697 289.376 151.775 289.454L152.243 289.767L151.073 290.938C151.229 291.406 151.385 292.265 151.073 293.124C150.761 293.905 150.293 294.217 149.981 294.296C149.747 294.296 149.591 294.296 149.435 294.296ZM149.669 289.689C149.435 289.689 149.201 289.689 148.889 289.767C148.499 289.923 148.187 290.391 148.031 291.094C147.875 291.875 148.109 292.734 148.499 293.046C148.889 293.359 149.279 293.437 149.591 293.359C149.903 293.28 150.059 292.968 150.137 292.734C150.449 291.875 150.059 290.938 150.059 290.86L149.903 290.548L150.605 289.845C150.449 289.767 150.059 289.689 149.669 289.689Z" fill="black"/>
<path d="M154.817 288.049C154.817 288.049 153.569 287.268 152.087 287.658C150.605 288.049 150.527 290.938 151.619 291.719C152.711 292.5 153.491 292.187 153.881 291.172C154.271 290.157 153.803 288.986 153.803 288.986L154.817 288.049Z" fill="white"/>
<path d="M152.789 292.578C152.399 292.578 151.931 292.422 151.385 292.109C150.605 291.563 150.371 290.235 150.527 289.298C150.683 288.283 151.229 287.502 152.009 287.268C153.647 286.8 155.051 287.658 155.129 287.737L155.597 288.049L154.427 289.22C154.583 289.689 154.739 290.548 154.427 291.406C154.115 292.187 153.647 292.5 153.335 292.578C153.101 292.578 152.945 292.578 152.789 292.578ZM153.023 287.971C152.789 287.971 152.555 287.971 152.243 288.049C151.853 288.205 151.541 288.674 151.385 289.376C151.229 290.157 151.463 291.016 151.853 291.328C152.243 291.641 152.633 291.719 152.945 291.641C153.257 291.563 153.413 291.25 153.491 291.016C153.803 290.157 153.413 289.22 153.413 289.142L153.257 288.83L153.959 288.127C153.725 288.049 153.413 287.971 153.023 287.971Z" fill="black"/>
<path d="M114.728 159.914H108.333V297.341H114.728V159.914Z" fill="black"/>
<path d="M115.196 297.809H107.865V159.524H115.196V297.809ZM108.723 296.95H114.26V160.383H108.723V296.95Z" fill="black"/>
<path d="M170.962 159.914H96.9458V169.284H170.962V159.914Z" fill="black"/>
<path d="M171.351 169.753H96.4778V159.524H171.351V169.753ZM97.3357 168.894H170.494V160.383H97.3357V168.894Z" fill="black"/>
<path d="M184.532 137.504L180.165 278.991C180.165 278.991 177.435 281.88 169.09 282.505C162.694 282.973 157.079 280.319 157.079 280.319L156.923 136.489L184.532 137.504Z" fill="#F9A826"/>
<path d="M167.452 283.052C161.758 283.052 157.079 280.865 156.845 280.709L156.611 280.553V280.319L156.455 136.021L185 137.114V137.583L180.633 279.225L180.477 279.382C180.321 279.538 177.513 282.349 169.09 283.052C168.544 282.973 167.998 283.052 167.452 283.052ZM157.547 280.006C158.717 280.475 163.63 282.427 169.012 282.036C176.109 281.49 179.073 279.304 179.697 278.757L184.064 137.973L157.391 136.958L157.547 280.006Z" fill="black"/>
<path d="M136.957 286.175L136.411 296.482C136.411 296.482 129.703 298.278 125.413 297.653C121.124 297.029 117.77 294.296 117.77 294.296L118.394 282.427L136.957 286.175Z" fill="white"/>
<path d="M127.441 298.278C126.739 298.278 126.037 298.278 125.413 298.122C121.046 297.497 117.692 294.842 117.536 294.686L117.38 294.53L118.004 281.88L137.502 285.706L136.956 296.794L136.645 296.872C136.333 297.028 131.497 298.278 127.441 298.278ZM118.316 294.139C119.096 294.686 121.982 296.716 125.569 297.263C129.157 297.809 134.695 296.482 136.021 296.17L136.489 286.565L118.862 283.052L118.316 294.139Z" fill="black"/>
<path d="M124.088 149.607L120.89 159.914H123.854L126.583 149.607H124.088Z" fill="black"/>
<path d="M124.166 160.383H120.266L123.698 149.139H127.129L124.166 160.383ZM121.514 159.446H123.464L125.959 150.076H124.4L121.514 159.446Z" fill="black"/>
<path d="M126.661 159.914L121.904 141.018H134.539L139.374 159.914H126.661Z" fill="white"/>
<path d="M139.92 160.383H126.349L121.28 140.628H134.929L139.92 160.383ZM127.051 159.446H138.828L134.227 141.487H122.528L127.051 159.446Z" fill="black"/>
<path d="M129.157 159.914L124.321 141.018H137.034L141.792 159.914H129.157Z" fill="#BD9F9F"/>
<path d="M142.416 160.383H128.767L123.698 140.628H137.346L142.416 160.383ZM129.469 159.446H141.246L136.644 141.487H124.867L129.469 159.446Z" fill="black"/>
<path d="M130.561 156.479L127.519 144.454H135.553L138.672 156.479H130.561Z" fill="#B1BBCE"/>
<path d="M139.218 156.947H130.249L126.973 143.985H136.02L139.218 156.947ZM130.951 156.01H138.048L135.241 144.922H128.143L130.951 156.01Z" fill="black"/>
<path d="M179.853 137.27C179.853 137.27 176.421 137.036 160.042 136.646C143.664 136.255 141.324 141.096 141.324 141.096C141.324 141.096 122.372 240.496 120.968 253.692C119.564 267.279 114.728 286.956 114.728 286.956C114.728 286.956 129.625 292.5 140.544 288.595C140.544 288.595 160.042 183.183 163.552 165.224C163.552 165.224 184.532 160.071 184.532 137.661L179.853 137.27Z" fill="#F9A826"/>
<path d="M131.419 290.391C122.918 290.391 114.962 287.502 114.572 287.346L114.182 287.19L114.26 286.8C114.338 286.565 119.096 267.045 120.5 253.614C121.904 240.574 140.7 142.033 140.856 141.018V140.94C140.934 140.706 143.508 135.865 159.965 136.255C176.031 136.646 179.697 136.88 179.775 136.88L184.922 137.192V137.661C184.922 158.743 166.438 164.912 163.864 165.614C160.276 184.12 141.09 287.658 140.934 288.674L140.856 288.908L140.622 288.986C137.736 290.001 134.539 290.391 131.419 290.391ZM115.274 286.565C117.614 287.346 130.483 291.406 140.154 288.127C141.246 282.271 159.731 182.324 163.084 164.99L163.162 164.677L163.474 164.599C163.708 164.521 183.83 159.29 184.142 137.895L179.931 137.661C179.931 137.661 176.265 137.426 160.12 137.036C145.224 136.646 142.182 140.706 141.87 141.174C141.246 144.376 122.918 240.73 121.514 253.614C120.11 266.108 115.976 283.676 115.274 286.565Z" fill="black"/>
<path d="M139.062 54.1117L130.717 62.9351C130.717 62.9351 111.843 28.7347 109.659 26.1579C109.581 26.0798 109.503 26.0017 109.347 25.8456C109.269 25.7675 109.191 25.6894 109.113 25.6894C109.035 25.6113 108.879 25.5332 108.723 25.4552L108.645 25.3771C106.617 24.2058 101.625 22.6442 101.625 22.6442L102.873 27.4072L108.411 48.9582C108.411 48.9582 118.55 68.5571 122.294 75.1942C126.037 81.8312 131.419 83.3929 134.383 81.7531C137.346 80.0353 149.591 68.3228 149.591 68.3228L139.062 54.1117Z" fill="#FFB8B8"/>
<path d="M131.809 82.6901C128.689 82.6901 124.789 80.4257 121.826 75.2722C118.082 68.7132 108.021 49.2705 107.943 49.0362V48.9581L100.923 21.8633L101.703 22.0975C101.937 22.1756 106.773 23.6592 108.879 24.9085L108.957 24.9866C109.113 25.0647 109.269 25.1428 109.347 25.2209C109.425 25.2989 109.503 25.377 109.581 25.4551L109.659 25.5332C109.815 25.6894 109.893 25.7674 109.971 25.8455C112.077 28.2661 128.221 57.6254 130.795 62.1542L139.062 53.4089L150.137 68.2447L149.825 68.557C149.357 69.0255 137.502 80.3476 134.539 82.0654C133.759 82.4558 132.823 82.6901 131.809 82.6901ZM108.801 48.6458C109.347 49.739 119.018 68.4009 122.684 74.8037C126.115 80.8942 131.263 82.8463 134.149 81.1284C136.8 79.6448 147.096 69.8844 148.967 68.0885L138.984 54.8144L130.639 63.7159L130.327 63.1693C130.171 62.857 111.453 28.9689 109.347 26.4702C109.269 26.3921 109.191 26.314 109.113 26.314L109.035 26.2359C108.957 26.1579 108.879 26.0798 108.879 26.0798C108.723 26.0017 108.645 25.9236 108.567 25.8455L108.489 25.7674C107.007 24.9085 103.809 23.8154 102.327 23.2688L108.801 48.6458Z" fill="black"/>
<path d="M88.9905 2.34253H0.468018V314.129H88.9905V2.34253Z" fill="black"/>
<path d="M89.3804 314.519H0V1.87402H89.3804V314.519ZM0.935921 313.66H88.5225V2.81102H0.935921V313.66Z" fill="black"/>
<path d="M84.7789 6.40283H4.67969V310.068H84.7789V6.40283Z" fill="#133386"/>
<path d="M85.1688 310.459H4.21167V5.93433H85.1688V310.459ZM5.0696 309.6H84.3109V6.79324H5.0696V309.6Z" fill="black"/>
<path d="M136.8 57.7035C136.8 57.7035 139.296 63.9501 145.77 68.6351L164.488 44.4293L159.73 35.2936L136.8 48.7239C136.8 48.7239 134.539 52.2376 136.8 57.7035Z" fill="#2F2E41"/>
<path d="M145.848 69.2598L145.458 69.0256C138.984 64.3406 136.489 58.172 136.333 57.8597C133.915 52.2377 136.255 48.6458 136.411 48.4897L136.489 48.4116L136.567 48.3335L159.887 34.6689L165.034 44.5074L145.848 69.2598ZM137.19 49.0363C136.878 49.5828 135.241 52.7062 137.268 57.4692C137.268 57.5473 139.686 63.4036 145.692 67.9324L163.942 44.3513L159.575 35.9183L137.19 49.0363Z" fill="black"/>
<path d="M57.7151 74.8818L70.038 116.188H74.0157L61.3028 75.1942L57.7151 74.8818Z" fill="#A41E5E"/>
<path d="M74.6396 116.656H69.726L57.0911 74.3352L61.6927 74.8037L74.6396 116.656ZM70.4279 115.719H73.3917L60.9907 75.6626L58.339 75.4284L70.4279 115.719Z" fill="black"/>
<path d="M60.9907 75.8188L77.3693 116.188H81.425L64.6564 75.7407L60.9907 75.8188Z" fill="#A41E5E"/>
<path d="M82.127 116.656H77.0574L60.2888 75.3503H64.8904L82.127 116.656ZM77.6813 115.719H80.8011L64.3445 76.2093H61.6927L77.6813 115.719Z" fill="black"/>
<path d="M50.3059 50.5198L59.5091 116.188H64.5007L53.6596 49.9733H50.3059" fill="#A41E5E"/>
<path d="M65.0466 116.656H59.0411L49.8379 50.5979L50.6958 50.4418L59.899 115.719H63.9547L53.2696 50.4418H50.3058V49.5048H54.0495L65.0466 116.656Z" fill="black"/>
<path d="M50.3059 33.5758H30.8855V116.188H50.3059V33.5758Z" fill="#A41E5E"/>
<path d="M50.6958 116.656H30.4175V33.1073H50.6958V116.656ZM31.3534 115.719H49.8378V34.0443H31.3534V115.719Z" fill="black"/>
<path d="M43.6764 39.6663H36.657V44.5074H43.6764V39.6663Z" fill="white"/>
<path d="M44.0663 44.976H36.189V39.2759H44.1443V44.976H44.0663ZM37.0469 44.039H43.1304V40.1348H37.0469V44.039Z" fill="black"/>
<path d="M150.137 42.3992C150.137 42.3992 141.714 48.6458 139.842 56.6103C137.97 64.5748 137.97 83.3148 140.622 94.8711C144.756 113.377 141.402 141.096 141.402 141.096C141.402 141.096 146.16 143.829 159.029 144.22C171.898 144.61 184.61 137.583 184.61 137.583C184.61 137.583 182.817 114.314 185.078 93.2313C187.34 72.1489 185.234 53.9555 181.101 47.1623C176.967 40.369 169.09 38.8854 169.09 38.8854C169.09 38.8854 162.148 36.8553 150.137 42.3992Z" fill="#2F2E41"/>
<path d="M160.043 144.61C159.731 144.61 159.341 144.61 159.029 144.61C146.16 144.22 141.402 141.565 141.168 141.409L140.934 141.252V140.94C140.934 140.628 144.288 113.064 140.154 94.8711C137.502 82.9244 137.58 64.1063 139.374 56.4542C141.324 48.4116 149.513 42.243 149.825 42.0088L149.903 41.9307C161.914 36.3868 168.778 38.2608 169.09 38.3389C169.402 38.4169 177.201 39.9786 181.413 46.8499C185.936 54.3459 187.574 73.3982 185.468 93.2313C183.207 114.001 185 137.192 185 137.426V137.739L184.766 137.895C184.61 137.973 172.521 144.61 160.043 144.61ZM141.792 140.784C142.962 141.331 148.032 143.361 158.951 143.751C170.572 144.142 182.115 138.285 183.986 137.27C183.752 134.459 182.349 112.752 184.454 93.1533C186.95 70.2749 184.142 53.3308 180.555 47.3184C176.655 40.7594 168.934 39.1978 168.856 39.1978C168.778 39.1978 161.992 37.3238 150.371 42.7115C149.747 43.18 142.026 49.1924 140.232 56.6103C138.438 64.1844 138.36 82.8463 141.012 94.6368C144.912 112.049 142.182 137.661 141.792 140.784Z" fill="black"/>
<path d="M149.123 15.3824C149.123 15.3824 155.363 4.29461 164.332 4.60694C173.301 4.91927 178.527 6.01244 181.647 12.4153C184.766 18.8181 183.207 23.3469 177.357 30.5306C171.508 37.7142 168.934 38.7293 168.934 38.7293L167.374 49.2705C167.374 49.2705 165.424 50.676 156.611 49.2705C147.876 47.865 148.811 45.3664 148.811 45.3664L149.981 40.6814C149.981 40.6814 145.224 39.5882 144.444 34.5909C143.586 29.047 145.302 25.1428 145.302 25.1428C145.302 25.1428 141.246 23.9716 141.636 23.0346C142.026 22.0976 149.123 15.3824 149.123 15.3824Z" fill="#FFB8B8"/>
<path d="M163.396 50.4418C161.758 50.4418 159.575 50.2856 156.611 49.8171C152.165 49.1144 149.513 48.0212 148.655 46.6157C148.265 45.913 148.421 45.3664 148.421 45.3664L149.435 41.1499C148.187 40.6814 144.678 39.1197 143.976 34.8252C143.274 30.2963 144.288 26.8607 144.678 25.6113C143.586 25.299 141.636 24.5963 141.246 23.7373C141.168 23.5031 141.09 23.2688 141.246 23.0346C141.636 22.0195 147.33 16.4756 148.655 15.2263C149.201 14.2112 155.363 3.90421 164.254 4.29462C172.755 4.68504 178.605 5.46587 182.037 12.3372C185.468 19.3647 183.207 24.1278 177.669 30.9991C172.755 37.0896 170.104 38.8074 169.324 39.1978L167.764 49.661L167.608 49.739C167.53 49.8171 166.594 50.4418 163.396 50.4418ZM163.864 5.07546C155.519 5.07546 149.591 15.4605 149.513 15.6167L149.435 15.6948C146.082 18.9743 142.494 22.6442 142.26 23.1908C142.338 23.5031 143.976 24.2058 145.614 24.6743L146.082 24.8305L145.848 25.299C145.848 25.299 144.21 29.2032 144.99 34.5128C145.692 39.1197 149.981 40.2129 150.137 40.291L150.605 40.3691L149.357 45.5226C149.357 45.6006 149.279 45.7568 149.513 46.1472C149.903 46.7719 151.463 48.0212 156.767 48.8801C163.864 49.9733 166.36 49.2705 166.984 49.0363L168.544 38.4951L168.778 38.417C168.778 38.417 171.352 37.3238 176.967 30.3744C183.051 22.8784 184.064 18.5838 181.179 12.7276C178.293 6.79329 173.613 5.62204 164.254 5.15354C164.176 5.15354 164.02 5.07546 163.864 5.07546Z" fill="black"/>
<path d="M163.24 20.3016C163.24 20.3016 164.644 19.5207 166.828 20.7701C169.012 22.0194 166.906 26.392 164.41 26.7825C161.914 27.1729 161.914 27.1729 161.914 27.1729C161.914 27.1729 162.07 30.14 164.41 30.7647C164.41 30.7647 163.63 36.9333 169.012 38.7292C174.393 40.5251 181.101 29.9839 181.101 29.9839C181.101 29.9839 186.092 23.4249 184.844 15.5385C183.596 7.65208 183.206 4.45067 175.875 1.4835C168.544 -1.48366 156.689 2.49859 156.143 2.4205C155.597 2.34242 152.633 4.37258 156.533 14.3672C156.533 14.3672 154.973 18.7399 158.561 20.5358C162.148 22.3317 163.24 20.3016 163.24 20.3016Z" fill="black"/>
<path d="M170.26 39.51C169.792 39.51 169.246 39.432 168.778 39.2758C163.942 37.558 163.786 32.5606 163.864 31.1551C161.602 30.2181 161.368 27.4072 161.368 27.251V26.8606L164.332 26.3921C165.736 26.1578 166.984 24.44 167.296 23.0345C167.374 22.4098 167.374 21.5509 166.672 21.1605C164.956 20.2235 163.864 20.5358 163.63 20.6139C163.24 21.0824 161.758 22.6441 158.327 20.9262C155.285 19.4427 155.441 16.0851 155.987 14.3673C153.023 6.63702 154.037 3.66986 154.973 2.5767C155.363 2.1082 155.831 1.87395 156.221 1.95203C156.299 1.95203 156.845 1.79586 157.391 1.6397C160.822 0.780783 169.948 -1.40555 176.031 1.01503C183.44 3.98219 183.986 7.41785 185.234 14.9919L185.312 15.3823C186.56 23.4249 181.725 29.9058 181.491 30.1401C181.179 30.6866 175.563 39.51 170.26 39.51ZM162.382 27.5633C162.538 28.3441 163.006 29.9058 164.488 30.3743L164.878 30.4524L164.8 30.8428C164.8 31.0771 164.176 36.621 169.09 38.3388C174.081 40.0566 180.555 29.8277 180.633 29.7496C180.711 29.6716 185.468 23.2687 184.298 15.6166L184.22 15.2262C182.973 7.57402 182.505 4.76303 175.563 1.95203C169.714 -0.390465 160.822 1.79586 157.469 2.5767C156.299 2.88903 156.065 2.88903 155.909 2.88903C155.909 2.88903 155.597 3.0452 155.363 3.51369C154.895 4.37261 154.037 7.10552 156.767 14.2892L156.845 14.4453L156.767 14.6015C156.689 14.7577 155.363 18.6618 158.561 20.2235C161.758 21.7852 162.694 20.1454 162.772 20.1454L162.85 20.0673L162.928 19.9892C163.006 19.9892 164.566 19.1303 166.984 20.4577C167.92 21.0043 168.31 22.0194 168.076 23.2687C167.764 24.9866 166.282 27.0167 164.41 27.3291L162.382 27.5633Z" fill="black"/>
<path d="M97.8036 60.124L94.4499 29.9058H50.3057L53.5814 60.124H97.8036Z" fill="white"/>
<path d="M98.2717 60.5925H53.1915L49.7598 29.5154H94.84L98.2717 60.5925ZM53.9714 59.6555H97.2577L93.982 30.4524H50.7737L53.9714 59.6555Z" fill="black"/>
<path d="M100.3 17.4126L58.0271 22.3318L66.7624 52.0035L108.333 48.802L100.3 17.4126Z" fill="#A41E5E"/>
<path d="M66.4504 52.4719L57.4812 21.9414L100.612 16.9441L108.957 49.2705L66.4504 52.4719ZM58.6511 22.7222L67.1524 51.4569L107.787 48.4116L99.9096 17.9592L58.6511 22.7222Z" fill="black"/>
<path d="M62.3167 24.9867L63.8765 30.6867L98.2716 26.7045L96.9457 20.614L62.3167 24.9867Z" fill="white"/>
<path d="M63.5646 31.2333L61.7708 24.5962L97.3357 20.0674L98.8176 27.0949L63.5646 31.2333ZM62.9407 25.377L64.2665 30.2182L97.7257 26.314L96.6338 21.1605L62.9407 25.377Z" fill="black"/>
<path d="M64.5007 32.6388L66.0606 38.3389L100.378 34.669L99.1298 28.5785L64.5007 32.6388Z" fill="white"/>
<path d="M65.6706 38.8854L63.8767 32.2484L99.4417 28.0319L100.924 35.0593L65.6706 38.8854ZM65.0466 33.0292L66.3725 37.8703L99.8317 34.2785L98.7398 29.125L65.0466 33.0292Z" fill="black"/>
<path d="M66.7622 41.3841L68.3221 47.1623L102.717 43.102L101.391 37.0115L66.7622 41.3841Z" fill="white"/>
<path d="M68.0102 47.6307L66.2163 40.9937L101.781 36.4648L103.263 43.4923L68.0102 47.6307ZM67.3862 41.7745L68.7121 46.6157L102.171 42.7115L101.079 37.558L67.3862 41.7745Z" fill="black"/>
<path d="M88.9125 37.0115L97.8037 60.1241H47.966L39.0747 37.0115H88.9125Z" fill="#A41E5E"/>
<path d="M98.4276 60.5926H47.6539L38.4507 36.543H89.3024L98.4276 60.5926ZM48.2779 59.6556H97.1797L88.6004 37.48H39.7766L48.2779 59.6556Z" fill="black"/>
<path d="M88.9125 56.1418H56.8572V57.0788H88.9125V56.1418Z" fill="black"/>
<path d="M134.305 94.5587C134.305 94.5587 124.244 104.085 116.054 103.226C105.369 102.055 74.4059 73.0077 74.4059 73.0077C74.4059 73.0077 71.2082 74.0228 69.1023 72.6173C61.615 67.5419 57.5593 60.124 57.5593 60.124H61.537C61.537 60.124 60.6011 56.4541 59.5092 53.4869C58.4952 50.5198 60.1331 48.1773 62.0049 49.0362C63.8768 49.9732 69.4143 58.7966 71.1302 60.124H76.6677C76.6677 60.124 83.0632 62.7788 86.0269 68.8693C86.0269 68.8693 103.029 82.2215 114.572 86.9065C118.394 88.4682 123.152 81.675 125.024 81.753C125.024 81.675 132.199 89.9518 134.305 94.5587Z" fill="#FFB8B8"/>
<path d="M117.224 103.694C116.834 103.694 116.444 103.694 116.054 103.616C105.603 102.445 77.1356 76.1311 74.3278 73.4763C73.4699 73.7105 70.8181 74.2571 68.8683 72.9297C61.3809 67.9324 57.2473 60.3583 57.1693 60.2802L56.7793 59.5775H60.9129C60.601 58.4062 59.899 55.8295 59.1191 53.5651C58.3392 51.4568 58.9631 49.6609 59.821 48.8801C60.523 48.2554 61.3809 48.1773 62.2388 48.5677C63.2527 49.1143 65.0466 51.4568 67.6204 54.8925C69.1022 56.8446 70.5841 58.8747 71.2861 59.5775H76.8236C77.0576 59.6556 83.375 62.3885 86.3388 68.4009C87.6647 69.4159 103.809 81.9093 114.728 86.2819C116.912 87.1408 119.486 84.9545 121.67 83.1586C123.074 81.9873 124.166 81.0503 125.102 81.1284H125.257L125.413 81.2846C125.725 81.5969 132.667 89.6395 134.773 94.2464L134.929 94.5587L134.695 94.793C134.227 95.2615 125.257 103.694 117.224 103.694ZM74.5618 72.4612L74.7958 72.6174C75.1077 72.9297 105.759 101.508 116.21 102.679C123.464 103.46 132.277 95.8081 133.837 94.4026C131.809 90.2642 125.959 83.3148 124.946 82.1435C124.4 82.2997 123.308 83.1586 122.294 84.0175C119.954 85.9696 117.146 88.3121 114.416 87.2189C102.951 82.612 85.9488 69.2598 85.7928 69.1817L85.7148 69.1036L85.6369 69.0255C82.9851 63.5597 77.3695 60.9049 76.5896 60.5925H70.9741L70.8181 60.5145C70.0382 59.8898 68.5563 57.8596 66.8404 55.5952C64.9686 53.0966 62.7068 49.9732 61.7709 49.5047C61.1469 49.1924 60.679 49.4267 60.367 49.6609C59.743 50.2075 59.2751 51.613 59.899 53.3308C60.9129 56.298 61.9269 59.9679 61.9269 59.9679L62.0828 60.5145H58.3392C59.5091 62.4665 63.3307 68.0885 69.3362 72.1489C71.2081 73.3982 74.2498 72.4612 74.2498 72.4612H74.5618Z" fill="black"/>
<path d="M148.421 53.1747L118.004 84.0956C118.004 84.0956 116.132 85.423 123.23 93.4656C129.079 100.103 135.085 98.541 135.085 98.541L155.441 77.3805" fill="#2F2E41"/>
<path d="M133.447 99.1657C131.185 99.1657 126.973 98.3848 122.918 93.7779C119.096 89.4834 117.146 86.2819 117.38 84.5641C117.458 84.0956 117.614 83.8614 117.77 83.7833L148.109 52.9404L148.733 53.5651L118.316 84.486C118.316 84.486 117.38 86.1258 123.62 93.2313C128.845 99.1657 134.071 98.3848 134.929 98.2287L155.207 77.2243L155.831 77.849L135.397 99.0876H135.241C135.163 99.0095 134.461 99.1657 133.447 99.1657Z" fill="black"/>
<path d="M71.1299 60.124C71.1299 60.124 72.7677 62.5446 74.0156 64.6529L71.1299 60.124Z" fill="white"/>
<path d="M73.6257 64.8871C72.3779 62.7788 70.74 60.3582 70.74 60.3582L71.5199 59.8116C71.5199 59.8116 73.1578 62.2322 74.4057 64.4186L73.6257 64.8871Z" fill="black"/>
<path d="M39.0747 37.0114L37.9048 34.0443H78.7733L77.7594 31.2333H86.8067L88.9125 37.0114H39.0747Z" fill="white"/>
<path d="M89.6144 37.4799H38.7627L37.2029 33.5758H78.1494L77.0575 30.7648H87.0407L89.6144 37.4799ZM39.3867 36.5429H88.2886L86.4167 31.6237H78.3834L79.4753 34.4347H38.6068L39.3867 36.5429Z" fill="black"/>
<path d="M136.644 292.89C136.644 292.89 134.305 292.265 133.525 294.061C132.745 295.857 132.901 297.263 132.901 297.263C132.901 297.263 125.413 299.293 117.848 294.374L118.004 291.797C118.004 291.797 114.65 294.217 113.87 294.998C113.09 295.779 87.0406 308.429 85.7147 308.897C84.3888 309.366 81.1911 312.957 82.985 315.534C82.985 315.534 112.232 319.829 125.257 319.829C138.282 319.829 140.076 318.892 140.076 318.892C140.076 318.892 141.246 312.645 140.778 310.615C140.31 308.585 139.218 308.585 139.218 308.585L137.034 296.95L136.644 292.89Z" fill="black"/>
<path d="M125.257 320.297C112.31 320.297 83.1409 316.003 82.9069 316.003H82.673L82.595 315.847C81.893 314.831 81.815 313.66 82.283 312.255C82.9069 310.459 84.5448 308.741 85.5587 308.507C87.0406 308.116 112.7 295.467 113.558 294.764C114.338 293.983 117.536 291.563 117.692 291.485L118.472 290.938L118.316 294.217C124.633 298.2 130.951 297.263 132.433 296.95C132.433 296.404 132.589 295.233 133.135 293.905C133.915 292.265 135.864 292.265 136.8 292.5L137.112 292.578L137.502 296.872L139.686 308.116C140.154 308.272 140.934 308.819 141.324 310.459C141.792 312.567 140.7 318.658 140.622 318.97L140.544 319.204L140.388 319.282C140.076 319.36 138.048 320.297 125.257 320.297ZM83.2189 315.144C85.8707 315.534 112.934 319.438 125.257 319.438C135.864 319.438 138.906 318.814 139.686 318.579C139.92 317.408 140.7 312.411 140.31 310.693C139.92 309.053 139.218 308.975 139.14 308.975H138.828L138.75 308.663L136.566 297.028L136.254 293.359C135.708 293.28 134.461 293.28 133.993 294.296C133.291 295.935 133.369 297.263 133.369 297.263V297.653L132.979 297.731C132.667 297.809 125.179 299.683 117.536 294.764L117.302 294.608L117.38 292.734C116.366 293.515 114.65 294.842 114.104 295.311C113.012 296.404 85.9487 309.209 85.7147 309.288C85.0128 309.444 83.6089 310.849 83.0629 312.489C82.751 313.582 82.8289 314.441 83.2189 315.144Z" fill="black"/>
<path d="M117.848 291.016C117.848 291.016 118.55 296.56 117.848 297.809C117.146 299.059 107.397 305.383 102.795 305.852C98.2717 306.32 96.9458 303.275 96.9458 303.275L113.87 295.076C113.87 295.076 115.43 291.328 117.848 291.016Z" fill="white"/>
<path d="M101.859 306.32C97.8038 306.32 96.5559 303.587 96.4779 303.431L96.3219 303.041L113.48 294.686C113.792 293.905 115.352 290.782 117.77 290.548L118.238 290.469L118.316 290.938C118.394 291.485 119.018 296.638 118.238 298.044C117.458 299.527 107.631 305.852 102.873 306.32C102.483 306.32 102.171 306.32 101.859 306.32ZM97.5698 303.509C98.0378 304.212 99.5196 305.696 102.717 305.461C107.319 304.993 116.834 298.668 117.38 297.653C117.77 296.872 117.614 293.749 117.38 291.641C115.82 292.187 114.572 294.452 114.182 295.311L114.104 295.467L97.5698 303.509Z" fill="black"/>
<path d="M140.778 313.348C140.778 313.348 136.41 314.597 123.308 314.675C110.205 314.753 83.5309 310.771 83.5309 310.771C83.7649 310.459 84.7788 309.444 84.7788 309.444C84.7788 309.444 82.595 309.131 81.4251 311.083C80.2552 313.036 81.1131 315.222 81.1131 315.222C81.1131 315.222 95.2299 317.721 104.667 318.97C114.104 320.141 125.257 321.312 139.452 319.907C139.452 319.907 139.764 320.063 140.856 318.658C141.948 317.252 140.778 313.348 140.778 313.348Z" fill="white"/>
<path d="M126.349 321C118.238 321 111.219 320.219 104.589 319.438C95.2299 318.267 81.1911 315.768 81.0351 315.69L80.8012 315.612L80.7232 315.378C80.7232 315.3 79.7872 312.957 81.1131 310.849C82.439 308.663 84.8568 308.975 84.9348 308.975L85.8707 309.131L85.2468 309.756C85.0908 309.912 84.8568 310.146 84.6228 310.459C89.2244 311.083 111.531 314.207 123.152 314.207C123.23 314.207 123.386 314.207 123.464 314.207C136.254 314.129 140.778 312.957 140.778 312.879L141.246 312.723L141.402 313.192C141.48 313.582 142.494 317.33 141.324 318.892C140.778 319.594 140.076 320.453 139.53 320.297C134.695 320.766 130.405 321 126.349 321ZM81.5031 314.831C83.5309 315.222 96.1659 317.408 104.745 318.501C114.65 319.751 125.491 320.844 139.452 319.438H139.53C139.608 319.36 139.92 319.126 140.544 318.423C141.246 317.486 140.856 315.222 140.544 313.973C139.14 314.285 134.227 315.144 123.464 315.222C110.517 315.3 83.8429 311.396 83.6089 311.318L82.829 311.24L83.2969 310.615C83.3749 310.459 83.5309 310.303 83.7649 310.068C83.141 310.225 82.439 310.537 81.9711 311.396C81.0351 312.723 81.2691 314.285 81.5031 314.831Z" fill="black"/>
<path d="M139.842 303.197C139.842 303.197 138.75 302.729 135.319 304.056C131.887 305.383 121.592 314.675 121.592 314.675C121.592 314.675 124.945 315.066 129.313 314.988C135.942 314.91 140.934 313.894 141.87 313.66C142.182 313.582 143.43 312.567 143.664 311.942C143.898 311.318 143.508 310.459 143.508 310.459C143.508 310.459 140.934 311.24 134.695 311.63C130.717 311.864 128.377 311.864 128.377 311.864C128.377 311.864 133.915 306.945 136.254 306.164C138.594 305.383 141.402 304.681 142.182 304.29C142.182 304.29 141.168 303.666 139.842 303.197Z" fill="white"/>
<path d="M128.611 315.456C124.633 315.456 121.592 315.144 121.592 315.144L120.578 315.066L121.358 314.363C121.748 313.973 131.731 304.993 135.241 303.666C138.594 302.416 139.92 302.729 140.076 302.807C141.48 303.275 142.494 303.9 142.494 303.978L143.196 304.446L142.416 304.759C141.948 304.993 141.012 305.227 139.764 305.618C138.75 305.93 137.58 306.242 136.488 306.633C134.851 307.179 131.419 309.99 129.781 311.396C130.873 311.396 132.511 311.318 134.773 311.162C140.856 310.771 143.508 309.99 143.508 309.99L143.898 309.912L144.054 310.303C144.132 310.381 144.522 311.396 144.21 312.099C143.898 312.801 142.572 313.973 142.104 314.051C141.012 314.363 135.942 315.378 129.391 315.456C129.079 315.456 128.845 315.456 128.611 315.456ZM122.684 314.285C124.009 314.363 126.427 314.519 129.313 314.519C135.708 314.441 140.7 313.504 141.714 313.192C141.948 313.114 143.04 312.177 143.196 311.786C143.274 311.552 143.196 311.318 143.196 311.005C142.26 311.24 139.608 311.786 134.695 312.099C130.717 312.333 128.377 312.333 128.377 312.333H127.207L128.143 311.552C128.377 311.318 133.759 306.555 136.176 305.774C137.268 305.383 138.438 305.071 139.53 304.759C140.154 304.603 140.7 304.446 141.168 304.29C140.778 304.134 140.31 303.9 139.764 303.744C139.686 303.744 138.594 303.431 135.552 304.603C132.667 305.54 125.179 312.099 122.684 314.285Z" fill="black"/>
<path d="M114.104 302.963C114.104 302.963 108.801 305.305 109.815 309.053C110.673 312.177 114.26 312.255 118.706 311.005C122.762 309.912 134.929 304.134 134.929 304.134L138.126 303.041L137.736 301.089C137.736 301.089 123.386 306.476 119.252 307.648C114.728 309.053 112.389 307.882 114.104 302.963Z" fill="white"/>
<path d="M114.26 312.177C111.609 312.177 109.971 311.161 109.425 309.131C108.255 305.071 113.714 302.65 113.948 302.494L114.884 302.104L114.494 303.119C113.792 305.071 113.792 306.476 114.416 307.179C115.118 307.96 116.756 307.96 119.096 307.335C123.152 306.164 137.424 300.854 137.58 300.776L138.126 300.62L138.672 303.509L135.085 304.681C134.617 304.915 122.918 310.381 118.862 311.552C117.068 311.942 115.508 312.177 114.26 312.177ZM113.324 303.9C111.921 304.759 109.581 306.555 110.283 308.897C110.985 311.396 113.714 311.942 118.628 310.537C122.606 309.444 134.617 303.822 134.773 303.744L137.658 302.807L137.502 301.791C134.851 302.807 123.23 307.101 119.486 308.194C116.756 308.975 114.806 308.819 113.87 307.804C113.012 307.023 112.934 305.696 113.324 303.9Z" fill="black"/>
<path d="M90.7843 306.477C90.7843 306.477 90.3943 307.804 94.528 308.194C98.6616 308.585 104.043 308.116 105.213 308.975C106.383 309.834 106.695 313.582 106.695 313.582L83.6089 310.693L84.5448 309.366C84.5448 309.444 84.9348 306.711 90.7843 306.477Z" fill="white"/>
<path d="M107.163 314.129L82.751 311.083L84.1549 309.209C84.3108 308.663 85.3248 306.242 90.7843 306.008H91.4082L91.2523 306.555C91.2523 306.789 91.8762 307.492 94.606 307.726C96.1658 307.882 97.8817 307.882 99.5976 307.882C102.795 307.882 104.745 307.96 105.525 308.585C106.773 309.522 107.163 313.114 107.163 313.504V314.129ZM84.3888 310.381L106.149 313.036C105.915 311.63 105.525 309.756 104.901 309.288C104.355 308.819 101.781 308.819 99.5196 308.819C97.8037 308.819 96.0099 308.819 94.45 308.663C92.3442 308.429 91.0183 307.96 90.5503 307.257C90.4723 307.179 90.3943 307.023 90.3943 306.945C85.4807 307.257 85.0128 309.444 85.0128 309.522V309.6L84.3888 310.381Z" fill="black"/>
<path d="M103.185 300.23C103.185 300.23 101.937 299.449 100.455 299.839C98.9735 300.23 98.8955 303.119 99.9874 303.9C101.079 304.681 101.859 304.368 102.249 303.353C102.639 302.338 102.171 301.167 102.171 301.167L103.185 300.23Z" fill="white"/>
<path d="M101.157 304.759C100.767 304.759 100.299 304.603 99.7535 304.29C98.9736 303.744 98.7396 302.416 98.8956 301.479C99.0516 300.464 99.5975 299.683 100.377 299.449C102.015 298.981 103.419 299.839 103.497 299.918L103.965 300.23L102.795 301.401C102.951 301.87 103.107 302.729 102.795 303.587C102.483 304.368 102.015 304.681 101.703 304.759C101.469 304.759 101.313 304.759 101.157 304.759ZM101.391 300.152C101.157 300.152 100.923 300.152 100.611 300.23C100.221 300.386 99.9095 300.855 99.7535 301.557C99.5975 302.338 99.8315 303.197 100.221 303.509C100.611 303.822 101.001 303.9 101.313 303.822C101.625 303.744 101.781 303.431 101.859 303.197C102.171 302.338 101.781 301.401 101.781 301.323L101.625 301.011L102.327 300.308C102.093 300.23 101.781 300.152 101.391 300.152Z" fill="black"/>
<path d="M106.695 298.434C106.695 298.434 105.447 297.653 103.965 298.044C102.483 298.434 102.405 301.323 103.497 302.104C104.589 302.885 105.369 302.572 105.759 301.557C106.149 300.542 105.681 299.371 105.681 299.371L106.695 298.434Z" fill="white"/>
<path d="M104.589 303.041C104.199 303.041 103.731 302.885 103.185 302.572C102.405 302.026 102.171 300.698 102.327 299.761C102.483 298.746 103.029 297.965 103.809 297.731C105.447 297.263 106.851 298.122 106.929 298.2L107.397 298.512L106.227 299.683C106.383 300.152 106.539 301.011 106.227 301.87C105.915 302.651 105.447 302.963 105.135 303.041C104.979 302.963 104.823 303.041 104.589 303.041ZM104.823 298.434C104.589 298.434 104.355 298.434 104.043 298.512C103.653 298.668 103.341 299.137 103.185 299.839C103.029 300.62 103.263 301.479 103.653 301.792C104.043 302.104 104.433 302.182 104.745 302.104C105.057 302.026 105.213 301.714 105.291 301.479C105.603 300.62 105.213 299.683 105.213 299.605L105.057 299.293L105.759 298.59C105.603 298.512 105.213 298.434 104.823 298.434Z" fill="black"/>
<path d="M110.283 296.794C110.283 296.794 109.035 296.013 107.553 296.404C106.071 296.794 105.993 299.683 107.085 300.464C108.177 301.245 108.957 300.933 109.347 299.917C109.737 298.902 109.269 297.731 109.269 297.731L110.283 296.794Z" fill="white"/>
<path d="M108.177 301.323C107.787 301.323 107.319 301.167 106.773 300.855C105.993 300.308 105.759 298.981 105.915 298.044C106.071 297.028 106.617 296.248 107.397 296.013C109.035 295.545 110.439 296.404 110.517 296.482L110.985 296.794L109.815 297.965C109.971 298.434 110.127 299.293 109.815 300.152C109.503 300.933 109.035 301.245 108.723 301.323C108.567 301.245 108.411 301.323 108.177 301.323ZM108.411 296.716C108.177 296.716 107.943 296.716 107.631 296.794C107.241 296.95 106.929 297.419 106.773 298.122C106.617 298.902 106.851 299.761 107.241 300.074C107.631 300.386 108.021 300.464 108.333 300.386C108.645 300.308 108.801 299.996 108.879 299.761C109.191 298.902 108.801 297.965 108.801 297.887L108.645 297.575L109.347 296.872C109.191 296.794 108.879 296.716 108.411 296.716Z" fill="black"/>
<path d="M113.558 295.076C113.558 295.076 112.31 294.296 110.829 294.686C109.347 295.076 109.269 297.965 110.361 298.746C111.453 299.527 112.232 299.215 112.622 298.2C113.012 297.185 112.544 296.013 112.544 296.013L113.558 295.076Z" fill="white"/>
<path d="M111.531 299.605C111.141 299.605 110.673 299.449 110.127 299.137C109.347 298.59 109.113 297.263 109.269 296.326C109.425 295.311 109.971 294.53 110.751 294.296C112.388 293.827 113.792 294.686 113.87 294.764L114.338 295.076L113.168 296.248C113.324 296.716 113.48 297.575 113.168 298.434C112.856 299.215 112.388 299.527 112.077 299.605C111.843 299.605 111.687 299.605 111.531 299.605ZM111.765 294.998C111.531 294.998 111.297 294.998 110.985 295.076C110.595 295.233 110.283 295.701 110.127 296.404C109.971 297.185 110.205 298.044 110.595 298.356C110.985 298.668 111.375 298.746 111.687 298.668C111.999 298.59 112.155 298.278 112.232 298.044C112.544 297.185 112.155 296.248 112.155 296.17L111.999 295.857L112.7 295.154C112.544 295.076 112.155 294.998 111.765 294.998Z" fill="black"/>
<path d="M107.319 31.2333C107.319 31.2333 101.703 28.8127 99.3635 29.984C97.0237 31.1552 98.8176 32.795 100.143 33.4977C101.469 34.1224 107.319 37.0895 107.319 37.0895C107.319 37.0895 108.099 41.306 111.608 44.1951" fill="#FFB8B8"/>
<path d="M111.297 44.4293C108.099 41.8526 107.085 38.2607 106.929 37.3237C105.915 36.7771 101.157 34.4347 99.9875 33.81C98.9736 33.3415 97.8037 32.3264 97.8037 31.2332C97.8037 30.7647 98.0377 30.062 99.2076 29.5154C101.703 28.2661 107.319 30.6867 107.553 30.7647L107.163 31.6237C105.681 30.999 101.391 29.5154 99.5976 30.3743C99.2076 30.5305 98.7396 30.9209 98.7396 31.3113C98.7396 31.936 99.5976 32.6387 100.377 33.0292C101.703 33.6538 107.553 36.621 107.553 36.621L107.787 36.6991L107.865 36.9333C107.865 37.0114 108.645 40.9936 111.999 43.7266L111.297 44.4293Z" fill="black"/>
<path d="M82.4389 40.5251H51.3196V41.4621H82.4389V40.5251Z" fill="black"/>
<path d="M74.4058 44.1171H83.219L84.7789 48.0993H75.9656L74.4058 44.1171Z" fill="white"/>
<path d="M85.4029 48.5678H75.6537L73.7039 43.6486H83.453L85.4029 48.5678ZM76.2776 47.7089H84.077L82.9071 44.5856H75.1077L76.2776 47.7089Z" fill="black"/>
<path d="M148.422 40.0566C148.422 40.0566 152.165 41.2279 157.079 40.0566C157.079 40.0566 154.193 44.117 149.123 44.6636L150.215 41.0717L148.422 40.0566Z" fill="black"/>
<path d="M177.435 2.2644C177.435 2.2644 186.326 5.15348 189.68 16.4755C193.034 27.7976 196.075 31.7799 199.195 34.6689C202.315 37.558 201.691 41.6183 200.755 44.9759C199.819 48.3335 202.861 51.613 205.279 52.3157C207.774 53.0185 210.894 55.361 209.958 60.046C209.022 64.731 207.384 65.1214 208.554 67.4639C209.724 69.8064 211.674 71.368 211.674 71.368H164.488C164.488 71.368 161.524 67.8543 163.942 62.2323C166.438 56.6103 164.722 51.6911 163.708 48.7239C162.694 45.8348 163.864 43.8827 165.424 41.9307C166.984 40.0567 168.544 38.1827 167.92 35.1374C167.296 32.0922 166.75 31.5456 166.75 31.5456" fill="black"/>
<path d="M211.674 71.9146H164.254L164.098 71.7584C163.942 71.6022 160.978 67.9323 163.474 62.1542C165.892 56.6103 164.176 51.691 163.24 49.0362C162.07 45.7567 163.552 43.5704 165.034 41.8525C166.594 39.9785 167.998 38.2607 167.374 35.4497C166.75 32.7168 166.36 32.0921 166.282 32.0921L166.984 31.4675C167.062 31.5456 167.608 32.2483 168.31 35.2936C169.012 38.495 167.374 40.5251 165.814 42.3991C164.098 44.4293 163.24 46.2252 164.176 48.8019C165.19 51.6129 166.984 56.7664 164.41 62.6227C162.382 67.3077 164.176 70.3529 164.722 71.0556H210.504C209.802 70.3529 208.866 69.2597 208.164 67.7762C207.384 66.2145 207.774 65.3556 208.32 64.0282C208.71 63.0912 209.178 61.9199 209.568 60.0459C210.582 54.6582 206.137 53.0965 205.201 52.8623C202.549 52.0814 199.351 48.6458 200.365 44.9759C201.301 41.6183 201.847 37.7922 198.961 35.1374C195.529 31.936 192.566 27.6414 189.368 16.7097C186.092 5.7781 177.513 2.81094 177.435 2.81094L177.747 1.95203C177.825 1.95203 186.872 5.07535 190.304 16.4755C193.814 28.3441 197.011 32.0141 199.663 34.4346C202.939 37.4018 202.315 41.5402 201.379 45.2101C200.521 48.3334 203.329 51.3787 205.591 52.0034C208.476 52.7842 211.518 55.439 210.582 60.2802C210.192 62.2323 209.646 63.4816 209.256 64.4186C208.71 65.6679 208.476 66.2145 209.1 67.3857C210.192 69.5721 212.064 71.1337 212.064 71.1337L213.078 71.9146H211.674Z" fill="black"/>
<path d="M27.6877 33.5758H8.26733V116.188H27.6877V33.5758Z" fill="#A41E5E"/>
<path d="M28.0776 116.656H7.79932V33.1073H28.0776V116.656ZM8.73524 115.719H27.2197V34.0443H8.73524V115.719Z" fill="black"/>
<path d="M21.4484 39.6663H14.429V44.5074H21.4484V39.6663Z" fill="white"/>
<path d="M21.9163 44.976H13.9609V39.2759H21.9163V44.976ZM14.8969 44.039H20.9803V40.1348H14.8969V44.039Z" fill="black"/>
<path d="M88.9905 116.188H0.468018V120.717H88.9905V116.188Z" fill="black"/>
<path d="M89.3804 121.107H0V115.719H89.3804V121.107ZM0.857928 120.248H88.5225V116.656H0.857928V120.248Z" fill="black"/>
<path d="M88.9905 198.566H0.468018V203.094H88.9905V198.566Z" fill="black"/>
<path d="M89.3804 203.485H0V198.097H89.3804V203.485ZM0.857928 202.626H88.5225V199.034H0.857928V202.626Z" fill="black"/>
<path d="M8.26733 33.5758C8.26733 33.5758 10.9191 37.1676 17.9385 37.1676C24.9579 37.1676 27.6877 33.5758 27.6877 33.5758H8.26733Z" fill="white"/>
<path d="M17.9384 37.6361C10.685 37.6361 7.95525 33.9662 7.87725 33.81L7.3313 33.1073H28.5455L27.9996 33.81C27.9216 33.9662 25.1918 37.6361 17.9384 37.6361ZM9.35913 34.0443C10.529 35.0594 13.1808 36.7772 17.9384 36.7772C22.696 36.7772 25.3478 35.0594 26.5177 34.0443H9.35913Z" fill="black"/>
<path d="M30.8855 33.5758C30.8855 33.5758 33.5373 37.1676 40.5567 37.1676C47.5761 37.1676 50.3059 33.5758 50.3059 33.5758H30.8855Z" fill="white"/>
<path d="M40.5566 37.6361C33.3032 37.6361 30.5734 33.9662 30.4954 33.81L29.9495 33.1073H51.1637L50.6177 33.81C50.5397 33.9662 47.81 37.6361 40.5566 37.6361ZM31.9773 34.0443C33.1472 35.0594 35.799 36.7772 40.5566 36.7772C45.3142 36.7772 47.9659 35.0594 49.1358 34.0443H31.9773Z" fill="black"/>
<path d="M112.077 137.27C112.077 137.27 110.049 126.26 105.993 116.344L112.077 137.27Z" fill="white"/>
<path d="M111.687 137.348C111.687 137.27 109.581 126.26 105.681 116.5L106.461 116.188C110.439 126.026 112.544 137.114 112.544 137.192L111.687 137.348Z" fill="black"/>
<path d="M120.266 133.366H113.324H106.383L109.659 138.441C109.659 138.441 106.383 145.079 106.383 151.559C106.383 158.04 110.205 159.992 110.205 159.992H113.324H116.444C116.444 159.992 120.266 158.04 120.266 151.559C120.266 145.079 116.99 138.441 116.99 138.441L120.266 133.366Z" fill="#B1BBCE"/>
<path d="M116.6 160.383H110.127L110.049 160.305C109.893 160.227 105.993 158.118 105.993 151.481C105.993 145.625 108.645 139.691 109.269 138.441L105.603 132.898H121.124L117.458 138.441C118.082 139.691 120.734 145.625 120.734 151.481C120.734 158.118 116.834 160.227 116.678 160.305L116.6 160.383ZM110.361 159.446H116.366C116.912 159.134 119.876 157.103 119.876 151.481C119.876 145.235 116.678 138.676 116.6 138.598L116.522 138.363L119.486 133.757H107.319L110.283 138.363L110.205 138.598C110.205 138.676 106.929 145.235 106.929 151.481C106.851 157.025 109.815 159.134 110.361 159.446Z" fill="black"/>
<path d="M116.132 133.366L114.026 138.363C114.026 138.363 116.522 146.094 116.678 150.544C116.834 156.557 113.402 159.992 113.402 159.992" fill="#B1BBCE"/>
<path d="M113.636 160.227L113.012 159.602C113.012 159.602 116.366 156.244 116.21 150.544C116.054 146.172 113.636 138.598 113.636 138.52L113.558 138.363L115.742 133.21L116.6 133.6L114.572 138.442C114.962 139.613 117.068 146.406 117.146 150.544C117.302 156.635 113.792 160.071 113.636 160.227Z" fill="black"/>
<path d="M75.5755 139.222H13.9607V198.566H75.5755V139.222Z" fill="#B1BBCE"/>
<path d="M76.0435 199.034H13.5708V138.832H76.0435V199.034ZM14.4287 198.175H75.1856V139.691H14.4287V198.175Z" fill="black"/>
<path d="M77.4475 137.27H12.167V145.157H77.4475V137.27Z" fill="#B1BBCE"/>
<path d="M77.8374 145.547H11.699V136.802H77.8374V145.547ZM12.5569 144.688H76.9794V137.661H12.5569V144.688Z" fill="black"/>
<path d="M52.9575 147.577H36.5789V152.262H52.9575V147.577Z" fill="#776161"/>
<path d="M53.4255 152.653H36.189V147.109H53.4255V152.653ZM37.0469 151.794H52.5676V147.968H37.0469V151.794Z" fill="black"/>
<path d="M42.8964 262.047H10.8411V309.99H42.8964V262.047Z" fill="#776161"/>
<path d="M43.3644 310.459H10.4512V261.657H43.3644V310.459ZM11.3091 309.6H42.5065V262.516H11.3091V309.6Z" fill="black"/>
<path d="M43.8322 260.485H9.90503V264.546H43.8322V260.485Z" fill="#776161"/>
<path d="M44.3002 265.014H9.51514V260.095H44.3002V265.014ZM10.3731 264.155H43.4423V260.954H10.3731V264.155Z" fill="black"/>
<path d="M31.1192 265.873H22.6179V268.294H31.1192V265.873Z" fill="#B1BBCE"/>
<path d="M31.5872 268.684H22.228V265.405H31.5872V268.684ZM23.086 267.825H30.7293V266.264H23.086V267.825Z" fill="black"/>
<path d="M78.5394 262.047H46.4841V309.99H78.5394V262.047Z" fill="#776161"/>
<path d="M78.9293 310.459H46.0161V261.657H78.9293V310.459ZM46.874 309.6H78.0714V262.516H46.874V309.6Z" fill="black"/>
<path d="M79.4752 260.485H45.5481V264.546H79.4752V260.485Z" fill="#776161"/>
<path d="M79.9431 265.014H45.0801V260.095H79.8651V265.014H79.9431ZM45.938 264.155H79.0072V260.954H45.938V264.155Z" fill="black"/>
<path d="M66.7623 265.873H58.261V268.294H66.7623V265.873Z" fill="#B1BBCE"/>
<path d="M67.2303 268.684H57.8711V265.405H67.2303V268.684ZM58.651 267.825H66.2944V266.264H58.651V267.825Z" fill="black"/>
<path d="M13.9607 260.486V256.503L75.5755 253.536V258.065L13.9607 260.486Z" fill="#FB0808"/>
<path d="M13.5708 260.954V256.113L76.0435 253.068V258.455H75.6535L13.5708 260.954ZM14.4287 256.894V260.017L75.1856 257.596V253.927L14.4287 256.894Z" fill="black"/>
<path d="M75.7316 253.614L75.5756 249.632L13.8828 249.476L14.0388 253.927L75.7316 253.614Z" fill="#A41E5E"/>
<path d="M13.6488 254.395L13.4148 249.007L75.9655 249.164L76.1995 254.005L13.6488 254.395ZM14.2727 249.866L14.4287 253.536L75.2636 253.224L75.1076 250.1L14.2727 249.866Z" fill="black"/>
<path d="M68.5561 249.163L68.4001 246.118L21.0581 245.962L21.2141 249.476L68.5561 249.163Z" fill="#BD9F9F"/>
<path d="M20.7462 249.866L20.5122 245.494L68.7121 245.65L68.8681 249.554L20.7462 249.866ZM21.4481 246.431L21.5261 249.007L68.0102 248.773L67.9322 246.587L21.4481 246.431Z" fill="black"/>
<path d="M62.3169 245.806L62.1609 243.385L25.426 243.307L25.582 245.962L62.3169 245.806Z" fill="#3A1F1F"/>
<path d="M25.192 246.431L24.958 242.839L62.5508 242.917L62.7068 246.196L25.192 246.431ZM25.8939 243.698L25.9719 245.494L61.8489 245.337L61.7709 243.776L25.8939 243.698Z" fill="black"/>
<path d="M74.7643 239.284L14.7334 237.638L14.6138 242.009L74.6447 243.655L74.7643 239.284Z" fill="#F9A826"/>
<path d="M75.0297 244.088L14.1948 242.448L14.3508 237.217L75.1857 238.856L75.0297 244.088ZM15.0528 241.589L74.1717 243.229L74.2497 239.715L15.1307 238.076L15.0528 241.589Z" fill="black"/>
<path d="M108.801 124.23C108.801 124.23 107.475 123.45 106.071 125.167C104.667 126.885 106.383 127.822 107.787 126.807C109.269 125.714 108.801 124.23 108.801 124.23Z" fill="white"/>
<path d="M106.539 127.666C106.071 127.666 105.681 127.51 105.369 127.198C105.135 126.963 104.589 126.182 105.681 124.855C107.007 123.215 108.411 123.45 109.035 123.84L109.191 123.918L109.269 124.074C109.425 124.699 109.425 126.182 108.099 127.119C107.553 127.51 107.007 127.666 106.539 127.666ZM108.021 124.465C107.631 124.465 107.007 124.621 106.383 125.48C105.993 126.026 105.837 126.417 105.993 126.651C106.227 126.885 106.851 126.963 107.553 126.495C108.489 125.792 108.489 124.933 108.411 124.543C108.333 124.465 108.177 124.465 108.021 124.465Z" fill="black"/>
<path d="M107.943 121.185C107.943 121.185 107.709 119.702 109.893 118.999C112.077 118.374 112.233 120.326 110.751 121.263C109.269 122.2 107.943 121.185 107.943 121.185Z" fill="white"/>
<path d="M109.347 122.044C108.567 122.044 107.943 121.732 107.631 121.497L107.475 121.419V121.263C107.397 120.639 107.709 119.233 109.737 118.608C111.375 118.14 111.921 118.921 111.999 119.233C112.389 120.014 111.843 121.029 110.907 121.654C110.361 121.966 109.815 122.044 109.347 122.044ZM108.333 120.951C108.645 121.185 109.503 121.497 110.439 120.873C111.141 120.482 111.297 119.858 111.219 119.545C111.063 119.233 110.595 119.233 109.971 119.389C108.567 119.858 108.411 120.56 108.333 120.951Z" fill="black"/>
<path d="M110.127 128.135C110.127 128.135 109.893 126.651 112.077 125.948C114.26 125.245 114.416 127.276 112.934 128.213C111.297 129.15 110.127 128.135 110.127 128.135Z" fill="white"/>
<path d="M111.531 129.072C110.751 129.072 110.127 128.759 109.815 128.525L109.659 128.447V128.291C109.581 127.666 109.893 126.261 111.921 125.636C113.558 125.167 114.104 125.948 114.182 126.261C114.572 127.041 114.026 128.056 113.09 128.681C112.544 128.915 111.998 129.072 111.531 129.072ZM110.517 127.9C110.829 128.056 111.687 128.447 112.622 127.822C113.324 127.432 113.48 126.807 113.402 126.495C113.246 126.182 112.778 126.182 112.154 126.339C110.751 126.807 110.517 127.588 110.517 127.9Z" fill="black"/>
<path d="M150.683 23.5811C151.459 23.5811 152.087 22.9519 152.087 22.1756C152.087 21.3994 151.459 20.7701 150.683 20.7701C149.908 20.7701 149.279 21.3994 149.279 22.1756C149.279 22.9519 149.908 23.5811 150.683 23.5811Z" fill="black"/>
<path d="M155.207 22.5661L154.427 22.488C154.583 20.8482 154.115 19.9112 154.115 19.9112C152.867 16.7098 149.669 16.866 149.591 16.866L149.513 16.0852C149.513 16.0852 153.335 15.8509 154.739 19.5989C154.817 19.5989 155.363 20.6921 155.207 22.5661Z" fill="black"/>
<path d="M150.371 31.8579C149.591 31.8579 148.655 31.7799 147.564 31.4675C143.976 30.6086 144.21 28.3442 144.288 28.2661L145.068 28.4223L144.678 28.3442L145.068 28.4223C145.068 28.5004 144.912 30.062 147.797 30.7648C150.917 31.4675 152.399 30.7648 152.399 30.7648L152.711 31.4675C152.633 31.4675 151.853 31.8579 150.371 31.8579Z" fill="black"/>
</g>
<defs>
<clipPath id="clip0_1_1255">
<rect width="213" height="321" fill="white"/>
</clipPath>
</defs>
</svg>
