<svg width="301" height="338" viewBox="0 0 301 338" fill="none" xmlns="http://www.w3.org/2000/svg">
<g clip-path="url(#clip0_1_920)">
<path d="M244.302 59.3627L235.797 38.519H80.2944L88.2988 59.0292L87.3817 59.3627L78.877 37.5186H236.381L245.219 59.0292L244.302 59.3627Z" fill="black"/>
<path d="M268.649 290.56H205.697C204.28 290.56 203.196 289.393 203.196 288.059V286.475C203.196 285.057 204.363 283.973 205.697 283.973H268.649C270.066 283.973 271.15 285.141 271.15 286.475V288.059C271.234 289.393 270.066 290.56 268.649 290.56Z" fill="black"/>
<path d="M268.649 291.144H205.697C203.946 291.144 202.612 289.726 202.612 288.059V286.475C202.612 284.724 204.03 283.39 205.697 283.39H268.649C270.4 283.39 271.734 284.807 271.734 286.475V288.059C271.817 289.726 270.4 291.144 268.649 291.144ZM205.781 284.474C204.697 284.474 203.78 285.391 203.78 286.475V288.059C203.78 289.143 204.697 290.06 205.781 290.06H268.732C269.816 290.06 270.733 289.143 270.733 288.059V286.475C270.733 285.391 269.816 284.474 268.732 284.474H205.781Z" fill="black"/>
<path d="M236.548 177.504H231.128V337.416H236.548V177.504Z" fill="black"/>
<path d="M237.131 337.917H230.628V177.004H237.131V337.917ZM231.628 336.916H236.047V178.004H231.628V336.916Z" fill="black"/>
<path d="M231.128 194.596H236.548C236.548 194.596 244.552 192.095 247.554 184.091H231.128V194.596Z" fill="black"/>
<path d="M236.714 195.096H230.711V183.591H248.304L248.054 184.258C245.052 192.345 237.131 195.013 236.714 195.096ZM231.628 194.179H236.548C237.298 193.929 244.052 191.428 246.887 184.591H231.628V194.179Z" fill="black"/>
<path d="M236.631 194.596H231.211C231.211 194.596 223.207 192.095 220.205 184.091H236.631V194.596Z" fill="black"/>
<path d="M237.131 195.096H231.045C230.711 195.013 222.79 192.428 219.788 184.258L219.538 183.591H237.131V195.096ZM231.211 194.179H236.131V184.591H220.872C223.791 191.428 230.461 193.929 231.211 194.179Z" fill="black"/>
<path d="M252.557 137.568C252.557 137.568 238.049 135.4 226.542 140.819C210.2 148.49 190.689 165.248 188.021 172.502C183.518 184.841 185.436 195.43 207.365 193.929L230.795 180.422L252.557 173.169C252.557 173.085 263.563 153.326 252.557 137.568Z" fill="black"/>
<path d="M203.529 194.513C195.692 194.513 190.439 192.678 187.687 189.093C184.936 185.341 184.852 179.755 187.604 172.335C190.272 164.998 209.533 148.24 226.375 140.403C237.882 135.067 252.557 137.151 252.64 137.151H252.807L252.89 137.318C258.727 145.572 258.393 154.993 257.142 161.33C255.725 168.25 253.057 173.085 252.973 173.335L252.89 173.502L230.961 180.839L207.448 194.429H207.365C206.031 194.513 204.697 194.513 203.529 194.513ZM245.469 137.651C240.3 137.651 233.046 138.318 226.709 141.236C210.367 148.823 190.939 165.665 188.438 172.668C185.853 179.755 185.853 185.091 188.438 188.51C191.356 192.428 197.693 194.012 207.198 193.429L230.628 179.922L252.223 172.752C253.224 170.834 262.312 152.659 252.306 138.068C251.556 137.985 248.971 137.651 245.469 137.651Z" fill="black"/>
<path d="M227.209 118.225C227.209 118.225 241.634 124.395 247.554 124.145C253.474 123.894 259.227 117.808 258.393 110.054C257.559 102.384 221.123 47.4401 221.123 47.4401C221.123 47.4401 205.864 37.4352 177.849 39.6863C161.423 41.0203 151.751 43.3547 146.498 45.1056C143.329 46.1895 140.661 48.2738 138.827 51.0252C131.656 62.0306 111.395 93.296 109.811 96.2975C107.893 99.966 96.637 115.974 94.7192 122.06C92.8015 128.147 91.6342 135.4 97.8877 140.486H117.148H234.797L227.209 118.225Z" fill="#F9A826"/>
<path d="M235.464 140.986H97.8042L97.6375 140.903C91.0505 135.484 92.3846 127.896 94.3023 121.977C95.6364 117.808 101.223 109.054 105.308 102.717C107.143 99.7993 108.81 97.2981 109.394 96.1308C110.978 93.1293 130.239 63.448 138.41 50.7751C140.328 47.857 143.079 45.6893 146.331 44.6054C151.584 42.8545 161.339 40.5201 177.765 39.1861C205.697 36.935 221.206 46.9399 221.373 47.0233L221.539 47.19C223.04 49.4411 258.06 102.301 258.893 110.054C259.31 113.89 258.143 117.558 255.725 120.476C253.557 122.977 250.555 124.561 247.637 124.645C242.551 124.812 231.462 120.476 228.043 119.059L235.464 140.986ZM98.1378 140.069H234.13L226.375 117.391L227.376 117.808C227.543 117.892 241.801 123.978 247.554 123.728C250.222 123.644 252.973 122.227 254.975 119.893C257.309 117.225 258.31 113.806 257.976 110.221C257.142 102.884 222.457 50.3582 220.789 47.857C219.538 47.1066 204.363 38.1022 177.849 40.1866C161.506 41.5206 151.834 43.855 146.665 45.6059C143.663 46.6064 140.995 48.6908 139.244 51.3587C132.824 61.1969 111.895 93.5462 110.228 96.6311C109.561 97.7983 108.06 100.216 106.059 103.301C101.973 109.637 96.4702 118.225 95.1361 122.31C93.3851 127.896 92.1344 134.983 98.1378 140.069Z" fill="black"/>
<path d="M230.127 126.646L227.209 118.142L202.029 108.804C202.029 108.804 211.034 122.394 230.127 126.646Z" fill="black"/>
<path d="M203.279 81.7903C203.279 81.7903 199.694 82.1238 196.692 88.9605C194.191 94.7133 193.691 100.299 194.108 102.717C194.524 105.135 194.358 106.553 196.609 107.303C196.609 107.303 203.029 104.885 205.781 95.5471C208.532 86.2091 203.279 81.7903 203.279 81.7903Z" fill="black"/>
<path d="M204.613 252.208L210.95 261.546C210.95 261.546 211.7 266.215 204.113 269.55C198.11 272.134 195.275 269.8 195.275 269.8L185.353 256.543L204.613 252.208Z" fill="white"/>
<path d="M198.86 271.217C196.275 271.217 195.025 270.217 194.941 270.133L194.858 270.05L184.519 256.126L204.78 251.624L211.367 261.296V261.379C211.367 261.546 212.117 266.465 204.28 269.883C202.112 270.967 200.278 271.217 198.86 271.217ZM195.608 269.466C195.942 269.716 198.61 271.467 203.946 269.133C210.533 266.215 210.533 262.379 210.45 261.796L204.363 252.875L186.186 256.877L195.608 269.466Z" fill="black"/>
<path d="M200.778 266.965C200.778 266.965 202.529 268.382 204.863 266.965C207.198 265.548 208.865 262.463 208.532 258.794L207.198 256.793C207.198 256.793 208.699 255.793 209.616 256.793C210.533 257.794 213.535 262.379 214.118 262.963C214.619 263.547 216.203 265.798 217.37 266.548C218.538 267.215 221.706 272.634 221.706 272.634C221.706 272.634 222.456 273.552 218.871 278.804C215.202 284.057 200.861 308.569 192.69 310.153C184.519 311.654 181.35 307.735 183.018 301.649C184.685 295.562 193.774 268.966 193.774 268.966C193.774 268.966 196.859 265.548 200.778 266.965Z" fill="black"/>
<path d="M189.355 310.82C186.77 310.82 184.769 310.153 183.518 308.736C182.017 307.068 181.6 304.567 182.434 301.482C184.102 295.479 193.107 269.049 193.274 268.799L193.357 268.632C193.524 268.466 196.776 265.047 200.945 266.465L201.111 266.548C201.195 266.631 202.612 267.715 204.697 266.548C207.031 265.131 208.365 262.129 208.115 258.878L206.614 256.627L207.031 256.376C207.698 255.96 209.116 255.376 210.033 256.46C210.533 257.043 211.784 258.794 212.868 260.295C213.618 261.379 214.285 262.379 214.535 262.63C214.702 262.796 214.869 263.046 215.119 263.296C215.786 264.13 216.953 265.548 217.704 266.048C218.871 266.798 221.873 271.717 222.206 272.218C222.456 272.551 222.79 273.885 219.288 278.888C218.704 279.721 217.954 280.972 216.87 282.556C211.367 291.144 199.861 309.069 192.773 310.403C191.523 310.736 190.355 310.82 189.355 310.82ZM194.107 269.216C193.524 270.967 184.936 295.979 183.351 301.732C182.601 304.483 182.851 306.735 184.185 308.152C185.769 309.819 188.604 310.32 192.523 309.653C199.194 308.402 210.533 290.727 216.036 282.222C217.037 280.638 217.871 279.388 218.454 278.554C221.623 273.968 221.289 272.885 221.289 272.801C220.038 270.717 217.871 267.382 217.12 266.965C216.203 266.381 215.036 264.964 214.285 263.964C214.035 263.713 213.868 263.463 213.785 263.296C213.535 263.046 212.951 262.213 212.034 260.879C211.033 259.461 209.783 257.71 209.282 257.127C208.866 256.71 208.282 256.793 207.865 256.96L208.949 258.628V258.711C209.282 262.296 207.782 265.714 205.03 267.298C202.695 268.716 200.861 267.549 200.528 267.298C197.276 266.215 194.608 268.716 194.107 269.216Z" fill="black"/>
<path d="M202.112 278.22C202.112 278.22 199.861 285.807 204.03 287.725C207.865 289.476 210.116 281.555 211.284 278.554C212.784 274.552 215.286 264.464 215.286 264.464L214.035 262.963C214.035 262.963 211.2 273.968 208.699 279.221C205.864 285.307 202.862 282.056 202.112 278.22Z" fill="white"/>
<path d="M205.197 288.392C204.78 288.392 204.363 288.309 203.946 288.059C199.444 285.974 201.612 278.304 201.778 277.97L202.279 276.219L202.612 278.054C203.029 280.221 204.196 281.972 205.28 282.056C206.281 282.222 207.365 281.055 208.449 278.887C210.867 273.802 213.702 262.796 213.702 262.713L213.952 261.879L215.869 264.214L215.786 264.464C215.703 264.881 213.285 274.635 211.784 278.554C211.701 278.887 211.534 279.304 211.367 279.721C210.366 282.639 208.782 287.058 206.281 288.059C205.947 288.309 205.53 288.392 205.197 288.392ZM202.195 280.055C201.862 282.306 201.612 286.141 204.28 287.308C204.863 287.558 205.364 287.558 205.947 287.392C208.032 286.475 209.616 282.139 210.533 279.554C210.7 279.138 210.783 278.721 210.95 278.387C212.284 274.802 214.452 266.048 214.869 264.547L214.369 263.88C213.618 266.631 211.367 274.969 209.283 279.388C207.782 282.639 206.197 283.14 205.197 283.056C203.863 282.889 202.779 281.555 202.195 280.055Z" fill="black"/>
<path d="M183.268 300.481C183.268 300.481 184.602 303.983 188.688 303.149C192.773 302.316 197.193 293.978 199.777 292.227C202.362 290.56 204.863 294.062 204.863 294.062C204.863 294.062 198.944 303.4 193.691 306.901C188.438 310.403 184.436 310.07 183.268 307.568C182.935 306.901 181.934 304.567 183.268 300.481Z" fill="black"/>
<path d="M186.854 309.903C186.353 309.903 185.77 309.819 185.353 309.736C184.185 309.403 183.352 308.736 182.935 307.818C182.434 306.735 181.684 304.317 182.935 300.398L183.352 299.147L183.852 300.398C183.935 300.565 185.103 303.483 188.688 302.816C191.023 302.316 193.774 298.897 195.942 296.146C197.359 294.312 198.61 292.728 199.694 291.977C202.029 290.477 204.447 292.561 205.447 293.895L205.614 294.145L205.447 294.395C205.197 294.812 199.36 303.9 194.191 307.318C191.356 308.986 188.855 309.903 186.854 309.903ZM183.435 301.649C182.685 304.65 183.268 306.568 183.685 307.402C184.019 308.152 184.686 308.652 185.519 308.902C187.521 309.403 190.355 308.569 193.441 306.568C198.026 303.483 203.279 295.729 204.28 294.145C203.696 293.395 201.862 291.477 199.944 292.728C199.027 293.311 197.776 294.979 196.442 296.646C194.108 299.731 191.356 303.149 188.688 303.65C185.853 304.15 184.185 302.733 183.435 301.649Z" fill="black"/>
<path d="M220.539 270.717C220.539 270.717 204.78 294.895 201.528 298.814C198.276 302.733 192.523 309.069 187.437 309.486C187.437 309.486 185.519 309.903 184.019 308.485C184.019 308.485 185.019 311.654 187.771 312.154C190.606 312.738 196.275 308.819 199.277 305.567C202.279 302.316 216.203 284.39 221.706 277.22C222.623 276.053 224.458 273.635 223.457 271.467C222.957 270.3 221.873 269.133 221.122 268.299C220.539 267.715 219.538 267.882 219.205 268.716L220.789 270.884" fill="white"/>
<path d="M188.354 312.738C188.104 312.738 187.854 312.738 187.687 312.654C184.686 312.071 183.602 308.819 183.518 308.652L183.018 306.985L184.269 308.152C185.603 309.403 187.27 308.986 187.354 308.986C191.022 308.736 195.692 305.151 201.195 298.481C204.28 294.729 218.788 272.551 220.039 270.55L218.704 268.716L218.788 268.466C218.955 267.966 219.455 267.632 219.955 267.465C220.455 267.382 221.039 267.549 221.456 267.882C222.29 268.716 223.374 269.967 223.874 271.217C224.958 273.718 223.04 276.22 222.04 277.47C218.871 281.556 202.779 302.316 199.527 305.817C196.859 308.902 191.606 312.738 188.354 312.738ZM185.019 309.736C185.519 310.57 186.437 311.487 187.771 311.82C190.189 312.321 195.775 308.819 198.86 305.401C202.112 301.899 218.121 281.222 221.289 277.053C222.123 275.969 223.874 273.718 222.957 271.717C222.457 270.55 221.456 269.383 220.706 268.633C220.539 268.466 220.289 268.382 220.039 268.466C219.872 268.466 219.705 268.549 219.622 268.716L221.039 270.634L220.706 270.884L220.789 270.967C220.122 271.968 205.03 295.229 201.778 299.148C196.025 306.151 191.273 309.653 187.354 309.986C187.437 309.903 186.27 310.153 185.019 309.736Z" fill="black"/>
<path d="M193.69 268.966L192.69 265.881C192.69 265.881 193.524 264.797 196.108 264.047C198.693 263.297 200.194 264.047 200.194 264.047L201.528 268.049C201.528 268.049 200.027 269.633 198.193 270.05C194.441 270.8 193.69 268.966 193.69 268.966Z" fill="white"/>
<path d="M196.442 270.633C193.941 270.633 193.357 269.133 193.274 269.133L192.19 265.798L192.356 265.631C192.356 265.548 193.274 264.464 195.942 263.63C198.693 262.796 200.278 263.63 200.361 263.63L200.528 263.713L202.028 268.132L201.862 268.299C201.778 268.382 200.278 269.966 198.36 270.383C197.609 270.55 196.942 270.633 196.442 270.633ZM194.191 268.799C194.274 268.966 194.941 270.217 198.193 269.55C199.527 269.299 200.611 268.299 201.111 267.882L199.944 264.38C199.527 264.214 198.276 263.88 196.359 264.464C194.608 264.964 193.691 265.631 193.357 265.964L194.191 268.799Z" fill="black"/>
<path d="M201.028 269.216C201.028 269.216 199.861 268.216 197.109 267.966C194.357 267.799 191.773 269.216 191.773 270.717C191.773 272.218 192.69 271.884 192.69 271.884C192.69 271.884 194.191 270.55 196.775 270.8C199.527 271.05 199.944 272.635 201.028 272.468C202.112 272.301 203.196 270.884 201.028 269.216Z" fill="white"/>
<path d="M200.861 272.968C200.361 272.968 199.944 272.718 199.527 272.384C198.943 271.968 198.193 271.467 196.776 271.301C194.441 271.134 193.023 272.301 193.023 272.301L192.857 272.384C192.773 272.384 192.356 272.551 191.856 272.218C191.439 271.968 191.272 271.467 191.272 270.717C191.272 270.133 191.606 269.55 192.106 268.966C193.19 267.882 195.191 267.299 197.026 267.465C199.777 267.632 201.028 268.633 201.195 268.799C202.695 269.967 202.695 270.967 202.529 271.467C202.362 272.134 201.695 272.718 200.945 272.801C201.028 272.968 200.944 272.968 200.861 272.968ZM196.192 270.3C196.359 270.3 196.609 270.3 196.776 270.3C198.443 270.467 199.36 271.05 200.027 271.551C200.444 271.884 200.694 271.968 200.945 271.968C201.278 271.884 201.695 271.634 201.778 271.301C201.945 270.8 201.528 270.217 200.694 269.55C200.694 269.55 199.61 268.633 197.026 268.466C195.108 268.299 193.524 268.966 192.773 269.716C192.523 269.967 192.19 270.3 192.19 270.8C192.19 271.384 192.356 271.551 192.356 271.551H192.44C192.857 271.217 194.191 270.3 196.192 270.3Z" fill="black"/>
<path d="M199.777 273.385C199.777 273.385 198.61 272.384 195.859 272.134C193.107 271.884 190.522 273.385 190.522 274.886C190.522 276.386 191.439 276.053 191.439 276.053C191.439 276.053 192.94 274.719 195.525 274.969C198.277 275.219 198.693 276.803 199.777 276.636C200.861 276.47 202.029 275.052 199.777 273.385Z" fill="white"/>
<path d="M199.694 277.137C199.194 277.137 198.777 276.886 198.36 276.553C197.776 276.136 197.026 275.636 195.608 275.469C193.274 275.302 191.856 276.47 191.856 276.47L191.689 276.553C191.606 276.553 191.189 276.72 190.689 276.386C190.272 276.136 190.105 275.636 190.105 274.885C190.105 274.302 190.439 273.718 190.939 273.135C192.023 272.134 194.024 271.55 195.858 271.634C198.61 271.801 199.861 272.801 200.027 272.968C201.528 274.135 201.528 275.136 201.361 275.636C201.195 276.303 200.528 276.886 199.777 276.97C199.777 277.053 199.694 277.137 199.694 277.137ZM195.025 274.469C195.191 274.469 195.442 274.469 195.608 274.469C197.276 274.635 198.193 275.219 198.86 275.719C199.277 276.053 199.527 276.136 199.777 276.136C200.111 276.053 200.528 275.803 200.611 275.469C200.778 274.969 200.361 274.385 199.527 273.718C199.527 273.718 198.443 272.801 195.942 272.634C194.024 272.468 192.44 273.135 191.689 273.885C191.439 274.135 191.106 274.469 191.106 274.969C191.106 275.552 191.273 275.719 191.273 275.719H191.356C191.689 275.386 192.94 274.469 195.025 274.469Z" fill="black"/>
<path d="M198.61 277.554C198.61 277.554 197.443 276.553 194.691 276.303C191.939 276.136 189.355 277.554 189.355 279.054C189.355 280.555 190.272 280.222 190.272 280.222C190.272 280.222 191.773 278.888 194.358 279.138C197.109 279.388 197.526 280.972 198.61 280.805C199.694 280.638 200.778 279.221 198.61 277.554Z" fill="white"/>
<path d="M198.443 281.222C197.943 281.222 197.526 280.972 197.109 280.638C196.525 280.222 195.775 279.721 194.358 279.554C192.023 279.388 190.605 280.555 190.605 280.555L190.439 280.638C190.355 280.638 189.938 280.805 189.438 280.472C189.021 280.221 188.854 279.721 188.854 278.971C188.854 278.387 189.188 277.804 189.688 277.22C190.772 276.22 192.773 275.636 194.608 275.719C197.359 275.886 198.61 276.887 198.777 277.053C200.277 278.221 200.277 279.221 200.111 279.721C199.944 280.388 199.277 280.972 198.527 281.055C198.61 281.222 198.527 281.222 198.443 281.222ZM193.774 278.637C193.941 278.637 194.191 278.637 194.358 278.637C196.025 278.804 196.942 279.388 197.609 279.888C198.026 280.222 198.276 280.305 198.527 280.305C198.86 280.222 199.277 279.971 199.36 279.638C199.527 279.138 199.11 278.554 198.276 277.887C198.276 277.887 197.192 276.97 194.691 276.803C192.773 276.636 191.189 277.303 190.439 278.054C190.189 278.304 189.855 278.637 189.855 279.138C189.855 279.721 190.022 279.888 190.022 279.888H190.105C190.439 279.555 191.773 278.637 193.774 278.637Z" fill="black"/>
<path d="M197.359 281.722C197.359 281.722 196.192 280.722 193.441 280.472C190.689 280.305 188.104 281.722 188.104 283.223C188.104 284.724 189.021 284.39 189.021 284.39C189.021 284.39 190.522 283.056 193.107 283.306C195.859 283.557 196.275 285.141 197.359 284.974C198.443 284.807 199.611 283.39 197.359 281.722Z" fill="white"/>
<path d="M197.276 285.391C196.776 285.391 196.359 285.141 195.942 284.807C195.358 284.39 194.608 283.89 193.19 283.723C190.856 283.557 189.438 284.724 189.438 284.724L189.271 284.807C189.188 284.807 188.771 284.974 188.271 284.64C187.854 284.39 187.687 283.89 187.687 283.14C187.687 282.556 188.021 281.972 188.521 281.389C189.605 280.388 191.606 279.805 193.44 279.888C196.192 280.055 197.443 281.055 197.609 281.222C199.11 282.389 199.11 283.39 198.943 283.89C198.777 284.557 198.11 285.141 197.359 285.224C197.359 285.391 197.276 285.391 197.276 285.391ZM192.607 282.806C192.773 282.806 193.024 282.806 193.19 282.806C194.858 282.973 195.775 283.557 196.442 284.057C196.859 284.39 197.109 284.474 197.359 284.474C197.693 284.39 198.11 284.14 198.193 283.807C198.36 283.306 197.943 282.723 197.109 282.056C197.109 282.056 196.025 281.139 193.44 280.972C191.523 280.805 189.938 281.472 189.188 282.223C188.938 282.473 188.604 282.806 188.604 283.306C188.604 283.89 188.771 284.057 188.771 284.057H188.855C189.271 283.723 190.522 282.806 192.607 282.806Z" fill="black"/>
<path d="M196.192 285.891C196.192 285.891 195.025 284.891 192.273 284.64C189.522 284.474 186.937 285.891 186.937 287.392C186.937 288.893 187.854 288.559 187.854 288.559C187.854 288.559 189.355 287.225 191.94 287.475C194.691 287.725 195.108 289.309 196.192 289.143C197.192 288.976 198.36 287.559 196.192 285.891Z" fill="white"/>
<path d="M196.025 289.559C195.525 289.559 195.108 289.309 194.691 288.976C194.107 288.559 193.357 288.059 191.94 287.892C189.605 287.725 188.187 288.892 188.187 288.892L188.021 288.976C187.937 288.976 187.52 289.143 187.02 288.809C186.603 288.559 186.437 288.059 186.437 287.308C186.437 286.725 186.77 286.141 187.27 285.558C188.354 284.557 190.355 283.973 192.19 284.057C194.941 284.224 196.192 285.224 196.359 285.391C197.86 286.558 197.86 287.559 197.693 288.059C197.526 288.726 196.859 289.309 196.109 289.393C196.192 289.559 196.109 289.559 196.025 289.559ZM191.356 286.975C191.523 286.975 191.773 286.975 191.94 286.975C193.607 287.142 194.524 287.725 195.191 288.226C195.608 288.559 195.858 288.642 196.109 288.642C196.442 288.559 196.859 288.309 196.942 287.975C197.109 287.475 196.692 286.892 195.858 286.225C195.858 286.225 194.774 285.307 192.19 285.141C190.355 284.974 188.688 285.641 187.937 286.391C187.687 286.641 187.354 286.975 187.354 287.475C187.354 288.059 187.52 288.226 187.52 288.226H187.604C188.021 287.892 189.355 286.975 191.356 286.975Z" fill="black"/>
<path d="M238.215 249.54L243.802 257.794C243.802 257.794 246.97 264.047 238.382 267.799C232.712 270.3 228.793 267.715 228.793 267.715L219.038 253.792L238.215 249.54Z" fill="white"/>
<path d="M233.546 269.299C230.544 269.299 228.71 268.132 228.543 268.049L228.376 267.882L218.204 253.458L238.465 248.956L244.218 257.46C244.302 257.627 245.469 259.961 244.469 262.713C243.635 264.964 241.634 266.798 238.549 268.132C236.714 269.049 234.963 269.299 233.546 269.299ZM229.127 267.298C229.71 267.632 233.296 269.466 238.215 267.298C241.05 266.048 242.884 264.38 243.635 262.379C244.469 259.961 243.468 257.96 243.468 257.877L238.048 249.957L219.788 253.959L229.127 267.298Z" fill="black"/>
<path d="M202.278 140.486C202.278 140.486 208.532 157.995 209.116 159.579C211.951 167.416 208.032 170.834 189.438 180.923C178.349 186.926 169.677 193.512 169.677 193.512L206.864 245.788C206.864 245.788 209.533 255.126 198.86 259.878C188.437 264.547 181.851 259.878 181.851 259.878C181.851 259.878 134.074 201.183 133.407 193.512C132.74 185.842 133.741 182.757 138.993 178.088C144.246 173.419 171.511 159.996 171.511 159.996L171.678 140.403H202.278V140.486Z" fill="#2F2E41"/>
<path d="M189.688 262.546C184.602 262.546 181.684 260.545 181.517 260.378L181.434 260.295C179.516 257.877 133.574 201.433 132.907 193.679C132.24 185.675 133.407 182.59 138.66 177.921C143.746 173.502 168.093 161.33 171.095 159.829L171.261 140.069H202.612L209.533 159.495C212.451 167.749 208.199 171.335 189.605 181.423C179.933 186.675 172.012 192.428 170.261 193.762L207.198 245.705V245.788C207.198 245.871 209.866 255.626 198.943 260.462C195.441 261.963 192.273 262.546 189.688 262.546ZM182.101 259.628C182.684 260.045 189.021 263.797 198.61 259.545C208.365 255.209 206.614 247.038 206.364 246.121L168.927 193.512L169.26 193.262C169.344 193.179 178.099 186.592 189.105 180.589C208.282 170.167 211.2 167.082 208.532 159.829L201.862 141.07H172.095L171.928 160.412L171.678 160.579C171.428 160.746 144.413 174.086 139.244 178.671C134.158 183.09 133.157 185.925 133.824 193.679C134.324 199.515 165.592 239.368 182.101 259.628Z" fill="black"/>
<path d="M102.39 120.81C102.39 120.81 100.305 123.227 99.7217 126.896C99.1381 130.564 100.556 137.818 105.392 140.486H112.312L102.39 120.81Z" fill="#FFB8B8"/>
<path d="M113.063 140.986H105.225L105.141 140.903C100.305 138.151 98.5545 130.815 99.2215 126.813C99.8052 123.144 101.89 120.643 101.973 120.476L102.473 119.892L113.063 140.986ZM105.558 140.069H111.562L102.39 121.81C101.806 122.727 100.639 124.645 100.305 127.063C99.6384 130.731 101.139 137.484 105.558 140.069Z" fill="black"/>
<path d="M109.311 138.068L91.3006 92.9624C90.3 90.3778 92.1344 87.6265 94.9693 87.6265H159.171C160.756 87.6265 162.173 88.627 162.84 90.0443L180.85 135.15C181.851 137.734 180.016 140.486 177.181 140.486H112.979C111.312 140.486 109.894 139.569 109.311 138.068Z" fill="#133386"/>
<path d="M177.182 140.986H112.979C111.145 140.986 109.561 139.902 108.894 138.235L90.8838 93.1292C90.3835 91.7952 90.4669 90.2111 91.3007 89.0438C92.1345 87.8766 93.4685 87.1262 94.9694 87.1262H159.172C161.006 87.1262 162.59 88.2101 163.257 89.8776L181.267 134.983C181.767 136.317 181.684 137.901 180.85 139.068C179.933 140.236 178.599 140.986 177.182 140.986ZM94.886 88.0433C93.7187 88.0433 92.7181 88.627 92.0511 89.5441C91.3841 90.4612 91.3007 91.6284 91.7176 92.7123L109.728 137.818C110.228 139.152 111.479 139.986 112.896 139.986H177.098C178.265 139.986 179.266 139.402 179.933 138.485C180.6 137.568 180.683 136.401 180.267 135.317L162.257 90.2111C161.756 88.8771 160.506 88.0433 159.088 88.0433H94.886Z" fill="black"/>
<path d="M144.83 114.723C146.581 120.559 143.246 125.312 137.576 125.312C132.073 125.312 126.404 120.893 124.653 115.39C122.902 109.804 125.82 105.052 131.24 104.635C136.909 104.301 143.079 108.804 144.83 114.723Z" fill="white"/>
<path d="M137.493 125.812C131.823 125.812 125.903 121.31 124.152 115.557C123.235 112.639 123.569 109.637 125.069 107.553C126.403 105.552 128.571 104.385 131.239 104.218C137.159 103.801 143.496 108.47 145.247 114.64C146.164 117.725 145.747 120.559 144.163 122.727C142.662 124.728 140.328 125.812 137.493 125.812ZM131.906 105.135C131.74 105.135 131.49 105.135 131.323 105.135C128.988 105.302 127.07 106.302 125.903 108.053C124.569 109.971 124.319 112.555 125.153 115.223C126.82 120.476 132.407 124.812 137.576 124.812C140.078 124.812 142.162 123.811 143.496 122.06C144.914 120.143 145.247 117.558 144.413 114.807C142.746 109.471 137.159 105.135 131.906 105.135Z" fill="black"/>
<path d="M119.233 55.2772C120.984 61.1134 117.649 65.8658 111.979 65.8658C106.476 65.8658 100.806 61.4469 99.0549 55.9442C97.3039 50.3581 100.222 45.6058 105.642 45.1889C111.312 44.8554 117.482 49.3576 119.233 55.2772Z" fill="#FFB8B8"/>
<path d="M111.895 66.3661C106.225 66.3661 100.306 61.8639 98.5545 56.111C97.6374 53.1929 97.9709 50.1914 99.4717 48.1071C100.806 46.1061 102.974 44.9388 105.642 44.7721C111.562 44.3552 117.899 49.0242 119.65 55.1939C120.567 58.2788 120.15 61.1135 118.566 63.2812C117.065 65.2822 114.73 66.3661 111.895 66.3661ZM106.309 45.6892C106.142 45.6892 105.892 45.6892 105.725 45.6892C103.391 45.856 101.473 46.8565 100.306 48.6073C98.9714 50.5249 98.7213 53.1095 99.5551 55.7775C101.223 61.1135 106.809 65.3656 111.979 65.3656C114.48 65.3656 116.565 64.3651 117.899 62.6142C119.316 60.6966 119.65 58.112 118.816 55.3607C117.148 50.0247 111.562 45.6892 106.309 45.6892Z" fill="black"/>
<path d="M24.2635 72.0355L17.6765 55.5273H112.312L118.899 72.0355H24.2635Z" fill="#A0616A"/>
<path d="M119.65 72.5357H23.9299L16.926 55.1105H112.562L119.65 72.5357ZM24.5969 71.5352H118.149L111.979 56.0276H18.4269L24.5969 71.5352Z" fill="black"/>
<path d="M61.5864 63.6163L60.6604 63.9952L69.3145 85.1379L70.2405 84.7589L61.5864 63.6163Z" fill="black"/>
<path d="M18.7605 125.895L0.75052 80.8732C-0.250034 78.2886 1.58432 75.4539 4.41922 75.4539H68.5381C70.1223 75.4539 71.6231 76.4544 72.2068 77.9551L90.2167 122.977C91.2173 125.562 89.3829 128.397 86.548 128.397H22.4292C20.845 128.313 19.3442 127.396 18.7605 125.895Z" fill="#133386"/>
<path d="M86.548 128.813H22.4291C20.5948 128.813 19.0106 127.73 18.3435 126.062L0.333573 81.0399C-0.250083 79.706 -0.0833241 78.1218 0.750471 76.9546C1.58427 75.704 2.91834 75.037 4.41917 75.037H68.538C70.3724 75.037 71.9566 76.1209 72.6236 77.7883L90.6336 122.811C91.2172 124.145 91.0505 125.729 90.2167 126.896C89.3829 128.063 88.0488 128.813 86.548 128.813ZM19.2607 125.645C19.761 126.979 21.0117 127.813 22.5125 127.813H86.6314C87.7987 127.813 88.8826 127.229 89.4663 126.312C90.0499 125.395 90.2167 124.145 89.7998 123.061L71.7898 78.0385C71.2895 76.7045 70.0388 75.8707 68.538 75.8707H4.41917C3.25186 75.8707 2.16792 76.4544 1.58427 77.3715C0.91723 78.372 0.83385 79.5392 1.25075 80.6231L19.2607 125.645Z" fill="black"/>
<path d="M13.4241 96.9645L11.1729 91.2117H19.0105L21.3452 96.9645H13.4241Z" fill="white"/>
<path d="M22.0122 97.3814H13.174L10.5059 90.7114H19.4275L22.0122 97.3814ZM13.7577 96.4643H20.5948L18.677 91.7119H11.8399L13.7577 96.4643Z" fill="black"/>
<path d="M24.6803 96.9645L22.3457 91.2117H30.1834L32.518 96.9645H24.6803Z" fill="white"/>
<path d="M33.1851 97.3814H24.3469L21.6787 90.7114H30.6003L33.1851 97.3814ZM24.9305 96.4643H31.7676L29.8499 91.7119H23.0128L24.9305 96.4643Z" fill="black"/>
<path d="M35.8532 96.9645L33.5186 91.2117H41.4396L43.6909 96.9645H35.8532Z" fill="white"/>
<path d="M44.4413 97.3814H35.5197L32.8516 90.7114H41.6898L44.4413 97.3814ZM36.1867 96.4643H43.0239L41.1061 91.7119H34.269L36.1867 96.4643Z" fill="black"/>
<path d="M47.1094 96.9645L44.8582 91.2117H52.6958L55.0305 96.9645H47.1094Z" fill="white"/>
<path d="M55.6974 97.3814H46.7758L44.1077 90.7114H53.0293L55.6974 97.3814ZM47.4428 96.4643H54.28L52.3622 91.7119H45.5251L47.4428 96.4643Z" fill="black"/>
<path d="M58.4489 96.9645L56.1143 91.2117H64.0353L66.2866 96.9645H58.4489Z" fill="white"/>
<path d="M67.037 97.3814H58.1154L55.4473 90.7114H64.3689L67.037 97.3814ZM58.7824 96.4643H65.6196L63.7018 91.7119H56.8647L58.7824 96.4643Z" fill="black"/>
<path d="M16.9261 105.219L14.6748 99.4657H22.5125L24.8471 105.219H16.9261Z" fill="white"/>
<path d="M25.5141 105.719H16.5925L13.9243 99.0488H22.8459L25.5141 105.719ZM17.2595 104.718H24.0966L22.1789 99.9659H15.3418L17.2595 104.718Z" fill="black"/>
<path d="M28.0989 105.219L25.8477 99.4657H33.6853L36.02 105.219H28.0989Z" fill="white"/>
<path d="M36.6869 105.719H27.7653L25.0972 99.0488H34.0188L36.6869 105.719ZM28.4323 104.718H35.2695L33.3517 99.9659H26.5146L28.4323 104.718Z" fill="black"/>
<path d="M39.3551 105.219L37.0205 99.4657H44.8582L47.1928 105.219H39.3551Z" fill="white"/>
<path d="M47.8599 105.719H39.0217L36.3535 99.0488H45.2751L47.8599 105.719ZM39.6053 104.718H46.4424L44.5247 99.9659H37.6876L39.6053 104.718Z" fill="black"/>
<path d="M50.6114 105.219L48.3601 99.4657H56.1978L58.449 105.219H50.6114Z" fill="white"/>
<path d="M59.1994 105.719H50.2778L47.6096 99.0488H56.5312L59.1994 105.719ZM50.9448 104.718H57.7819L55.8642 99.9659H49.0271L50.9448 104.718Z" fill="black"/>
<path d="M61.9508 105.219L59.6162 99.4657H67.5373L69.7885 105.219H61.9508Z" fill="white"/>
<path d="M70.539 105.719H61.6174L58.9492 99.0488H67.8708L70.539 105.719ZM62.2844 104.718H69.1215L67.2038 99.9659H60.3667L62.2844 104.718Z" fill="black"/>
<path d="M20.428 113.556L18.1768 107.803H26.0144L28.2657 113.556H20.428Z" fill="white"/>
<path d="M29.016 113.973H20.0944L17.4263 107.303H26.3479L29.016 113.973ZM20.7614 113.056H27.5986L25.6808 108.303H18.8437L20.7614 113.056Z" fill="black"/>
<path d="M31.6009 113.556L29.3496 107.803H37.1873L39.5219 113.556H31.6009Z" fill="white"/>
<path d="M40.1889 113.973H31.2673L28.5991 107.303H37.5207L40.1889 113.973ZM31.9343 113.056H38.7714L36.8537 108.303H30.0166L31.9343 113.056Z" fill="black"/>
<path d="M42.7737 113.556L40.5225 107.803H48.3601L50.6948 113.556H42.7737Z" fill="white"/>
<path d="M51.3617 113.973H42.4401L39.772 107.303H48.6936L51.3617 113.973ZM43.1072 113.056H49.9443L48.0265 108.303H41.1894L43.1072 113.056Z" fill="black"/>
<path d="M54.1132 113.556L51.7786 107.803H59.6996L61.9509 113.556H54.1132Z" fill="white"/>
<path d="M62.7013 113.973H53.7797L51.1116 107.303H60.0332L62.7013 113.973ZM54.4468 113.056H61.2839L59.3661 108.303H52.529L54.4468 113.056Z" fill="black"/>
<path d="M65.4528 113.556L63.1182 107.803H70.9558L73.2905 113.556H65.4528Z" fill="white"/>
<path d="M73.9575 113.973H65.1193L62.4512 107.303H71.3728L73.9575 113.973ZM65.703 113.056H72.5401L70.6224 108.303H63.7852L65.703 113.056Z" fill="black"/>
<path d="M23.9298 121.81L21.5952 116.057H29.5163L31.7675 121.81H23.9298Z" fill="white"/>
<path d="M32.518 122.31H23.5964L20.9282 115.64H29.8498L32.518 122.31ZM24.2634 121.31H31.1005L29.1828 116.558H22.3457L24.2634 121.31Z" fill="black"/>
<path d="M35.1028 121.81L32.8516 116.057H40.6892L42.9405 121.81H35.1028Z" fill="white"/>
<path d="M43.6908 122.31H34.7692L32.1011 115.64H41.0227L43.6908 122.31ZM35.4363 121.31H42.2734L40.3556 116.558H33.5185L35.4363 121.31Z" fill="black"/>
<path d="M46.2757 121.81L44.0244 116.057H51.8621L54.1133 121.81H46.2757Z" fill="white"/>
<path d="M54.8637 122.31H45.9421L43.2739 115.64H52.1955L54.8637 122.31ZM46.6091 121.31H53.4462L51.5285 116.558H44.6914L46.6091 121.31Z" fill="black"/>
<path d="M57.6151 121.81L55.2805 116.057H63.2016L65.4528 121.81H57.6151Z" fill="white"/>
<path d="M66.2033 122.31H57.2817L54.6135 115.64H63.5351L66.2033 122.31ZM57.9487 121.31H64.7858L62.8681 116.558H56.031L57.9487 121.31Z" fill="black"/>
<path d="M68.8716 121.81L66.6204 116.057H74.458L76.7927 121.81H68.8716Z" fill="white"/>
<path d="M77.4596 122.31H68.538L65.8699 115.64H74.7915L77.4596 122.31ZM69.2051 121.31H76.0422L74.1244 116.558H67.2873L69.2051 121.31Z" fill="black"/>
<path d="M188.438 76.2877C187.354 75.9542 177.182 73.1195 173.846 73.5364C170.511 74.0366 162.007 79.1225 162.173 81.2068C162.34 83.2912 162.507 85.709 166.509 84.5418C170.511 83.3746 175.014 81.2068 175.014 81.2068C175.014 81.2068 179.85 81.2902 181.267 84.8753C182.685 88.4604 185.686 100.466 184.519 101.55C183.352 102.634 178.349 102.384 178.516 104.468C178.682 106.553 180.433 106.636 184.102 106.97C187.771 107.303 192.607 105.636 195.692 104.302C198.777 103.051 202.612 106.386 205.281 106.553C208.032 106.719 212.201 101.383 211.367 95.1304C210.533 88.8773 209.116 88.7105 207.031 87.2932C204.947 85.8758 193.024 77.7051 188.438 76.2877Z" fill="#FFB8B8"/>
<path d="M185.103 107.553C184.769 107.553 184.436 107.553 184.102 107.47H183.768C180.35 107.136 178.265 106.969 178.099 104.552C177.932 102.884 180.016 102.467 181.851 102.05C182.851 101.884 183.852 101.634 184.185 101.3C184.936 100.3 182.518 89.3775 180.767 85.1254C179.6 82.2073 175.764 81.7904 175.097 81.7904C174.347 82.1239 170.261 84.1249 166.592 85.1254C165.008 85.5422 163.757 85.5422 163.007 84.9586C161.923 84.2083 161.756 82.7075 161.673 81.3735C161.506 78.7055 170.595 73.6197 173.763 73.1195C177.432 72.6192 188.438 75.7874 188.521 75.8708C192.773 77.1214 203.029 84.0415 207.281 86.9596C207.532 87.1264 207.782 87.2931 207.949 87.4599C209.783 88.6271 211.034 89.4608 211.784 95.2137C212.368 99.6325 210.617 103.301 208.699 105.302C207.532 106.553 206.281 107.22 205.114 107.136C203.946 107.053 202.696 106.553 201.362 105.886C199.36 105.052 197.359 104.135 195.692 104.802C192.857 106.052 188.604 107.553 185.103 107.553ZM174.847 80.7899H174.93C175.18 80.7899 180.1 80.9567 181.601 84.7085C182.768 87.6266 186.353 100.466 184.769 101.967C184.185 102.467 183.101 102.717 181.934 102.968C180.183 103.301 178.849 103.635 178.932 104.468C179.016 105.969 180.183 106.136 183.768 106.469H184.102C187.771 106.803 192.773 104.968 195.442 103.885C197.526 103.051 199.861 104.051 201.862 104.968C203.113 105.552 204.28 106.052 205.28 106.136C206.114 106.219 207.115 105.635 208.032 104.552C209.616 102.801 211.367 99.3824 210.867 95.2137C210.2 89.9611 209.116 89.2107 207.448 88.2102C207.198 88.0435 206.948 87.8767 206.698 87.71C202.529 84.7919 192.357 77.9552 188.271 76.7046C186.02 76.0376 176.931 73.5363 173.846 73.9532C170.428 74.4534 162.423 79.5393 162.59 81.1234C162.673 82.2906 162.757 83.5413 163.507 84.0415C164.091 84.4584 165.008 84.4584 166.342 84.0415C170.261 82.9576 174.68 80.7065 174.764 80.7065L174.847 80.7899Z" fill="black"/>
<path d="M181.267 81.1233C181.267 81.1233 178.015 81.29 176.931 82.1238C175.847 82.9575 173.763 90.7947 175.014 94.3798C175.014 94.3798 177.265 97.2145 177.932 98.0483C178.599 98.9654 180.517 99.6324 181.767 98.0483C183.018 96.4642 180.683 92.4622 180.517 91.962C180.266 91.3783 182.518 82.7074 182.518 82.7074" fill="#FFB8B8"/>
<path d="M179.933 99.4657C178.849 99.4657 177.932 98.882 177.515 98.2984C176.848 97.4647 174.597 94.6299 174.597 94.6299L174.513 94.4632C173.263 90.7947 175.347 82.624 176.598 81.6235C177.765 80.7898 180.85 80.5397 181.184 80.5397L181.267 81.5402C180.016 81.6235 177.849 81.8737 177.181 82.3739C176.431 82.9575 174.263 90.3779 175.431 94.0463C175.764 94.4632 177.682 96.8811 178.349 97.7148C178.599 98.0483 179.266 98.4652 179.933 98.4652C180.517 98.4652 181.017 98.215 181.434 97.7148C182.017 96.9644 181.684 95.1302 180.267 92.4622C180.183 92.2955 180.1 92.2121 180.1 92.1287C180.016 91.962 179.766 91.4617 182.101 82.5407L183.018 82.7908C182.017 86.7928 180.934 91.295 181.017 91.8786C181.017 91.8786 181.1 91.962 181.184 92.1287C181.851 93.3793 183.602 96.7977 182.268 98.4652C181.434 99.2155 180.6 99.4657 179.933 99.4657Z" fill="black"/>
<path d="M183.352 82.4573C183.352 82.4573 182.184 82.624 181.184 86.7927C180.183 91.0448 179.85 93.2126 179.85 93.2126C179.85 93.2126 183.268 98.0483 183.852 99.1322C184.435 100.216 187.937 99.9659 188.354 97.1312C188.771 94.2964 185.853 91.5451 185.853 91.5451C185.853 91.5451 186.937 87.7932 187.437 85.3754C187.937 82.9575 187.02 82.0404 187.02 82.0404" fill="#FFB8B8"/>
<path d="M185.269 100.216C184.435 100.216 183.685 99.8825 183.435 99.3823C183.018 98.5485 180.683 95.2136 179.516 93.5461L179.433 93.3793V93.2126C179.433 93.2126 179.766 90.8781 180.767 86.7094C181.767 82.4573 183.018 82.0404 183.351 81.957L183.435 82.4573L183.518 82.9575C183.518 82.9575 182.601 83.291 181.767 86.9595C180.933 90.4612 180.6 92.5456 180.517 93.2126C181.1 94.0463 183.935 98.0483 184.435 99.0488C184.519 99.2155 185.102 99.4657 185.936 99.2989C186.353 99.2155 187.854 98.882 188.104 97.2145C188.438 94.7133 185.769 92.0453 185.686 92.0453L185.436 91.8786L185.519 91.6285C185.519 91.6285 186.603 87.8766 187.02 85.5421C187.437 83.4578 186.77 82.7074 186.687 82.624L187.354 81.957C187.437 82.0404 188.438 83.1243 187.937 85.7089C187.52 87.7099 186.687 90.7113 186.437 91.6285C187.104 92.3788 189.271 94.7967 188.938 97.3813C188.688 99.2155 187.27 100.049 186.02 100.299C185.686 100.216 185.436 100.216 185.269 100.216Z" fill="black"/>
<path d="M188.438 83.1244C188.438 83.1244 188.104 83.6246 187.27 87.1264C186.436 90.6281 185.853 92.5457 185.853 92.5457C185.853 92.5457 189.605 98.3819 190.939 99.0489C192.273 99.7159 194.107 100.133 195.358 98.3819C196.609 96.6311 193.69 92.5457 193.023 91.8787C192.356 91.2117 192.273 90.7115 192.273 90.7115C192.273 90.7115 193.44 86.5427 193.274 85.1254" fill="#FFB8B8"/>
<path d="M193.023 100.133C192.273 100.133 191.523 99.966 190.689 99.4658C189.271 98.7988 185.769 93.3795 185.436 92.7958L185.353 92.6291L185.436 92.4623C185.436 92.4623 185.936 90.5447 186.853 87.043C187.687 83.6246 188.021 82.9576 188.104 82.8743L188.938 83.3745L188.521 83.1244L188.938 83.3745C188.938 83.3745 188.604 84.0415 187.854 87.2931C187.187 90.1278 186.687 91.9621 186.52 92.5457C187.937 94.7968 190.439 98.2985 191.272 98.7154C192.94 99.5492 194.274 99.3824 195.108 98.2152C196.025 96.8812 193.607 93.1293 192.773 92.379C192.023 91.6286 191.856 91.045 191.856 91.045V90.9616V90.8782C192.19 89.711 192.94 86.5427 192.773 85.4589L193.69 85.3755C193.857 86.7929 193.023 90.1278 192.773 91.045C192.857 91.2117 193.023 91.4618 193.357 91.8787C193.857 92.379 197.359 96.7978 195.775 98.9655C195.108 99.6325 194.191 100.133 193.023 100.133Z" fill="black"/>
<path d="M204.196 82.5406C204.196 82.5406 206.197 87.2096 204.28 95.3803C202.362 103.551 197.443 107.303 197.443 107.303L205.864 110.054C205.864 110.054 209.449 106.803 211.617 99.3823C213.952 91.3783 212.201 85.7923 212.201 85.7923L204.196 82.5406Z" fill="#F9A826"/>
<path d="M205.947 110.638L196.359 107.47L197.109 106.886C197.192 106.886 201.945 103.134 203.779 95.2136C205.614 87.293 203.779 82.7074 203.696 82.624L203.279 81.5402L212.534 85.292L212.618 85.5421C212.701 85.7923 214.452 91.3783 212.117 99.4657C209.866 106.969 206.364 110.221 206.197 110.388L205.947 110.638ZM198.36 107.136L205.697 109.554C206.448 108.72 209.282 105.469 211.117 99.2989C213.118 92.3788 212.034 87.293 211.7 86.2091L204.947 83.4578C205.447 85.292 206.197 89.4607 204.697 95.6304C203.196 102.05 199.777 105.802 198.36 107.136Z" fill="black"/>
<path d="M212.431 85.5586L212.087 86.498L234.635 94.7581L234.98 93.8186L212.431 85.5586Z" fill="black"/>
<path d="M206.797 109.573L206.43 110.503L226.986 118.608L227.353 117.677L206.797 109.573Z" fill="black"/>
<path d="M216.536 87.6265C216.536 87.6265 213.868 79.1223 212.284 74.0365C210.7 68.8673 210.2 54.4435 213.785 50.0247" fill="#F9A826"/>
<path d="M216.036 87.7099C216.036 87.7099 213.368 79.2057 211.784 74.1199C210.033 68.6172 209.783 54.1934 213.368 49.6078L214.118 50.1914C210.7 54.4435 211.033 68.6172 212.701 73.7864C214.285 78.9556 216.953 87.3764 216.953 87.3764L216.036 87.7099Z" fill="black"/>
<path d="M140.995 57.2782C140.995 57.2782 141.245 71.2017 147.248 87.5431L140.995 57.2782Z" fill="#F9A826"/>
<path d="M146.831 87.7939C140.828 71.5358 140.578 57.4456 140.578 57.3622H141.578C141.578 57.5289 141.912 71.4525 147.832 87.5437L146.831 87.7939Z" fill="black"/>
<path d="M187.354 41.437C187.354 41.437 183.685 30.3482 182.434 28.2638C181.184 26.1795 175.097 7.08673 167.76 2.58451C160.422 -1.9177 144.497 9.50459 143.413 14.4237C142.329 19.4262 143.413 27.2634 144.247 28.6807C145.08 30.0981 148.416 34.9338 148.416 34.9338C148.416 34.9338 153.752 47.1065 157.504 48.107C160.506 48.8573 166.259 45.1889 166.259 45.1889L168.677 50.7749C168.51 50.8583 180.6 57.2781 187.354 41.437Z" fill="#FFB8B8"/>
<path d="M174.18 52.6092C170.845 52.6092 168.427 51.3586 168.26 51.2753L168.093 51.1919L165.842 45.9393C164.341 46.8564 159.839 49.2743 157.17 48.6073C153.335 47.6068 148.416 36.6847 147.832 35.2674C147.498 34.7671 144.413 30.4316 143.663 29.0143C142.829 27.5135 141.662 19.593 142.829 14.4237C143.58 11.0888 150.083 5.50268 156.503 2.8347C159.839 1.41733 164.508 0.166716 167.926 2.25108C173.93 5.91955 179.016 18.6758 181.434 24.8456C182.018 26.4297 182.518 27.6803 182.768 28.0972C184.019 30.1815 187.604 40.8534 187.771 41.3537L187.854 41.5204L187.771 41.6872C185.52 47.1065 182.351 50.6083 178.349 52.0256C176.848 52.4425 175.431 52.6092 174.18 52.6092ZM168.844 50.5249C169.677 50.9418 173.68 52.6092 178.015 51.0251C181.684 49.6911 184.602 46.4395 186.77 41.4371C186.27 40.0197 183.018 30.4316 181.934 28.514C181.684 28.0138 181.184 26.9299 180.517 25.1791C178.099 19.0927 173.096 6.50317 167.426 3.00145C165.008 1.58408 161.256 1.75083 156.837 3.66844C150.25 6.50317 144.33 11.8391 143.746 14.5905C142.662 19.5096 143.746 27.18 144.497 28.514C145.247 29.9314 148.582 34.6837 148.666 34.6837L148.749 34.7671C150.167 38.1021 154.586 46.9398 157.504 47.6068C160.256 48.3571 165.842 44.8554 165.842 44.772L166.342 44.4385L168.844 50.5249Z" fill="black"/>
<path d="M166.092 45.2724C166.092 45.2724 171.345 41.6873 172.846 37.4352C172.846 37.4352 173.263 45.4391 168.093 49.9413L166.092 45.2724Z" fill="black"/>
<path d="M167.509 17.8421C167.509 17.8421 169.01 16.258 170.678 16.1746C172.345 16.0079 173.929 17.592 173.846 19.3428C173.763 21.0937 171.095 23.2614 172.512 24.7622C173.929 26.2629 175.013 25.179 175.013 25.179C175.013 25.179 178.682 29.9314 181.767 27.847C181.767 27.847 180.6 17.9255 178.682 13.59C176.681 9.25453 174.68 8.33741 173.096 6.0863C171.511 3.83519 170.844 2.08432 165.842 1.08383C160.839 0.0833372 154.752 -0.500284 146.498 4.41881C138.243 9.3379 132.823 17.2585 134.824 21.2604C136.826 25.2624 143.162 25.3458 143.162 25.3458C143.162 25.3458 142.579 20.9269 142.829 18.5091C142.829 18.5091 144.747 20.5935 150.917 20.6768C157.087 20.7602 163.674 19.6763 163.674 19.6763C163.674 19.6763 164.758 22.5111 167.009 21.5939C168.343 21.0937 167.509 17.8421 167.509 17.8421Z" fill="black"/>
<path d="M180.1 28.9309C177.848 28.9309 175.681 26.7632 174.93 25.846C174.68 26.0128 174.346 26.0962 173.93 26.0962C173.263 26.0962 172.679 25.7627 172.179 25.179C171.095 24.0118 171.928 22.5944 172.595 21.3438C173.012 20.6768 173.346 19.9265 173.429 19.3428C173.429 18.5925 173.179 17.8421 172.595 17.3418C172.095 16.8416 171.428 16.5915 170.761 16.6749C169.594 16.7582 168.51 17.6753 168.093 18.0922C168.26 19.0927 168.677 21.5939 167.259 22.1776C166.509 22.4277 165.842 22.4277 165.175 22.1776C164.258 21.7607 163.674 20.8436 163.424 20.3433C161.923 20.5934 156.253 21.3438 150.917 21.3438C146.664 21.2604 144.33 20.26 143.246 19.593C143.163 22.0108 143.579 25.4292 143.579 25.4292L143.663 26.0128H143.079C142.829 26.0128 136.409 25.9294 134.324 21.6773C132.24 17.4252 137.743 9.25452 146.164 4.25206C154.252 -0.58366 160.422 -0.250161 165.842 0.833706C170.511 1.75083 171.595 3.33494 172.929 5.4193C173.096 5.58605 173.179 5.83617 173.346 6.00292C173.846 6.75329 174.43 7.42029 175.097 8.00391C176.264 9.25453 177.682 10.6719 179.016 13.59C181.017 17.9255 182.101 27.5969 182.184 28.0138V28.3473L181.934 28.514C181.35 28.7641 180.683 28.9309 180.1 28.9309ZM175.013 24.512L175.347 24.9289C175.347 25.0123 178.599 29.0143 181.184 27.6803C180.933 26.0128 179.849 17.6753 178.182 13.8401C176.931 11.0888 175.681 9.83815 174.513 8.58753C173.846 7.92053 173.263 7.25354 172.679 6.41979C172.512 6.16967 172.429 6.00292 172.262 5.7528C171.011 3.83519 170.011 2.41782 165.758 1.58408C160.505 0.583583 154.502 0.250085 146.748 4.91905C138.91 9.58802 133.407 17.3418 135.241 21.0937C136.742 24.0952 141.078 24.7622 142.579 24.8455C142.412 23.5949 142.079 20.4267 142.329 18.4257L142.495 17.3418L143.162 18.0922C143.162 18.0922 144.997 20.0098 150.917 20.0932C157.003 20.1766 163.507 19.0927 163.59 19.0927L164.007 19.0093L164.174 19.3428C164.174 19.3428 164.674 20.5934 165.592 21.0103C166.008 21.1771 166.425 21.1771 166.926 21.0103C167.509 20.7602 167.426 19.0093 167.092 17.7587L167.009 17.5086L167.176 17.3418C167.259 17.2585 168.76 15.6744 170.594 15.5076C171.512 15.4242 172.429 15.7577 173.179 16.4247C173.93 17.1751 174.346 18.1756 174.346 19.1761C174.346 20.0098 173.846 20.7602 173.429 21.5939C172.679 22.8446 172.345 23.6783 172.846 24.2619C173.179 24.6788 173.596 24.9289 173.93 24.9289C174.346 24.9289 174.597 24.6788 174.597 24.6788L175.013 24.512Z" fill="black"/>
<path d="M102.89 126.896C102.89 126.896 103.224 117.308 103.641 116.557C104.058 115.724 106.642 111.889 107.81 111.305C109.06 110.721 110.228 111.555 110.561 112.389C110.895 113.223 108.06 117.558 108.06 117.558V122.144L102.89 126.896Z" fill="#FFB8B8"/>
<path d="M102.39 128.063V126.896C102.474 124.645 102.724 117.141 103.141 116.307C103.474 115.557 106.142 111.555 107.56 110.888C108.227 110.638 108.894 110.555 109.561 110.888C110.228 111.138 110.728 111.722 110.978 112.305C111.312 113.223 109.561 116.057 108.477 117.725V122.394L102.39 128.063ZM108.644 111.638C108.477 111.638 108.227 111.638 107.977 111.805C106.976 112.222 104.475 115.807 103.974 116.808C103.724 117.308 103.474 122.06 103.307 125.812L107.476 121.977V117.475L107.56 117.391C108.81 115.474 110.061 113.139 110.061 112.639C109.894 112.305 109.561 111.972 109.144 111.805C109.144 111.722 108.894 111.638 108.644 111.638Z" fill="black"/>
<path d="M101.389 130.731C101.389 130.731 104.391 123.061 105.308 121.727C106.309 120.476 113.063 112.639 114.647 112.389C116.148 112.139 117.648 115.307 116.314 117.141C114.98 118.975 111.061 122.31 110.061 124.645C109.06 127.063 105.975 133.482 105.975 133.482" fill="#FFB8B8"/>
<path d="M106.392 133.733L105.558 133.316C105.558 133.232 108.727 126.896 109.644 124.561C110.311 122.977 112.062 121.143 113.73 119.476C114.647 118.558 115.564 117.641 115.981 116.974C116.648 116.057 116.398 114.64 115.897 113.723C115.564 113.223 115.147 112.889 114.814 112.972C113.646 113.139 107.143 120.309 105.809 122.06C105.058 123.061 102.724 128.814 101.973 130.898L101.056 130.564C101.139 130.231 104.058 122.811 105.058 121.477C105.475 120.893 112.729 112.305 114.647 111.972C115.397 111.889 116.148 112.305 116.731 113.139C117.398 114.223 117.732 116.057 116.815 117.391C116.314 118.142 115.397 119.059 114.48 120.059C112.979 121.643 111.228 123.478 110.645 124.895C109.561 127.313 106.559 133.482 106.392 133.733Z" fill="black"/>
<path d="M110.228 132.899C110.394 132.649 115.397 129.731 117.398 128.563C119.399 127.396 120.65 126.979 121.484 127.646C122.318 128.313 122.901 130.148 120.4 132.565C117.899 134.983 112.979 137.985 112.062 138.735C111.312 139.235 108.143 140.152 107.476 140.236" fill="#FFB8B8"/>
<path d="M107.559 140.569L107.476 139.652C108.143 139.569 111.145 138.735 111.812 138.235C111.979 138.151 112.229 137.901 112.646 137.651C114.397 136.484 118.065 134.15 120.15 132.149C121.567 130.731 121.817 129.731 121.817 129.064C121.817 128.397 121.4 128.063 121.317 127.98C120.733 127.563 119.733 127.813 117.732 128.98L116.231 129.897C114.397 130.981 110.978 132.982 110.644 133.316L109.894 132.732C110.061 132.482 110.895 131.898 115.731 129.147L117.231 128.23C119.233 127.063 120.733 126.479 121.901 127.313C122.401 127.73 122.735 128.397 122.818 129.147C122.901 129.981 122.568 131.315 120.9 132.982C118.816 135.067 115.064 137.484 113.313 138.652C112.979 138.902 112.646 139.069 112.479 139.152C111.478 139.652 108.31 140.486 107.559 140.569Z" fill="black"/>
<path d="M108.06 137.735L113.313 130.231C113.313 130.231 118.649 124.645 120.066 123.061C121.401 121.477 120.984 119.892 118.983 119.142C116.981 118.308 109.394 126.479 109.394 126.479L104.725 133.649" fill="#FFB8B8"/>
<path d="M108.477 137.985L107.726 137.401L112.979 129.897C113.063 129.814 118.399 124.228 119.733 122.644C120.233 122.06 120.483 121.393 120.317 120.893C120.15 120.309 119.65 119.809 118.732 119.476C117.648 119.059 113.229 122.894 109.644 126.729L105.058 133.816L104.224 133.316L108.894 126.146C110.811 124.145 116.981 117.725 119.066 118.559C120.233 119.059 120.984 119.726 121.234 120.643C121.401 121.226 121.317 122.144 120.4 123.227C119.066 124.812 113.896 130.231 113.646 130.398L108.477 137.985Z" fill="black"/>
<path d="M167.676 145.322H156.67V337.416H167.676V145.322Z" fill="black"/>
<path d="M168.26 338H156.003V144.738H168.26V338ZM157.254 336.833H167.092V145.905H157.254V336.833Z" fill="black"/>
<path d="M234.797 140.486C234.797 140.486 239.132 156.827 238.966 161.997C238.799 170.334 237.131 171.751 221.873 180.923C211.034 187.426 202.112 193.512 202.112 193.512L239.299 245.788C239.299 245.788 242.468 256.71 231.295 259.878C220.039 263.046 214.285 259.878 214.285 259.878C214.285 259.878 166.509 201.183 165.842 193.512C165.175 185.842 166.175 182.757 171.428 178.088C176.681 173.419 203.946 159.996 203.946 159.996L204.113 140.403H234.797V140.486Z" fill="#2F2E41"/>
<path d="M221.956 261.879C216.953 261.879 214.285 260.462 214.119 260.378L213.952 260.295C212.034 257.877 166.092 201.433 165.425 193.679C164.758 185.675 165.925 182.59 171.178 177.921C176.264 173.502 200.611 161.33 203.613 159.829L203.779 140.069H235.214L235.297 140.403C235.464 141.07 239.633 156.911 239.549 162.08C239.383 170.751 237.381 172.252 222.206 181.423C212.784 187.092 204.78 192.512 202.862 193.762L239.799 245.705V245.788C239.883 245.955 241.217 250.79 238.882 255.042C237.465 257.627 234.963 259.461 231.461 260.462C227.709 261.546 224.458 261.879 221.956 261.879ZM214.702 259.545C215.453 259.878 221.039 262.379 231.295 259.461C234.547 258.544 236.798 256.877 238.132 254.459C240.133 250.79 239.132 246.622 238.966 245.955L201.528 193.429L201.945 193.179C202.028 193.095 211.033 187.009 221.706 180.506C236.714 171.418 238.382 170.167 238.549 161.997C238.632 157.411 235.047 143.404 234.463 140.986H204.78L204.613 160.329L204.363 160.496C204.113 160.663 177.098 174.002 171.928 178.588C166.842 183.09 165.842 185.842 166.509 193.595C166.926 199.515 198.193 239.285 214.702 259.545Z" fill="black"/>
<path d="M235.047 265.548C235.047 265.548 236.881 267.048 239.383 265.548C241.884 264.047 243.635 260.712 243.301 256.877L241.884 254.792C241.884 254.792 243.468 253.709 244.469 254.792C245.469 255.876 248.638 260.712 249.221 261.296C249.805 261.963 251.473 264.297 252.64 265.047C253.807 265.798 257.226 271.467 257.226 271.467C257.226 271.467 258.06 272.468 254.141 278.054C250.222 283.64 235.047 309.653 226.375 311.237C217.704 312.821 214.369 308.652 216.12 302.232C217.871 295.813 227.543 267.632 227.543 267.632C227.543 267.632 230.878 264.047 235.047 265.548Z" fill="black"/>
<path d="M222.957 312.071C220.205 312.071 218.121 311.32 216.787 309.903C215.119 308.152 214.786 305.484 215.703 302.149C217.454 295.813 227.042 267.799 227.126 267.549L227.209 267.382C227.376 267.215 230.794 263.547 235.214 265.131L235.38 265.214C235.464 265.298 236.965 266.465 239.132 265.214C241.634 263.713 243.051 260.462 242.801 257.127L241.217 254.792L241.634 254.542C242.301 254.125 243.885 253.542 244.802 254.626C245.386 255.293 246.637 257.127 247.804 258.711C248.638 259.878 249.388 260.962 249.555 261.212C249.722 261.379 249.888 261.629 250.139 261.963C250.889 262.88 252.056 264.38 252.89 264.881C254.141 265.631 257.309 270.884 257.643 271.467C257.893 271.801 258.226 273.218 254.558 278.554C253.974 279.388 253.14 280.722 252.056 282.473C245.803 292.311 234.046 310.57 226.542 311.987C225.208 311.987 224.041 312.071 222.957 312.071ZM227.96 267.965C227.293 269.883 218.288 296.313 216.537 302.483C215.703 305.401 216.036 307.818 217.454 309.319C219.121 311.07 222.123 311.654 226.292 310.903C233.379 309.569 245.386 290.81 251.139 281.806C252.223 280.138 253.057 278.804 253.724 277.887C257.059 272.968 256.725 271.884 256.725 271.801C256.725 271.801 256.725 271.801 256.809 271.884C255.475 269.633 253.14 266.048 252.39 265.548C251.389 264.964 250.222 263.38 249.388 262.379C249.138 262.046 248.971 261.796 248.804 261.712C248.554 261.462 247.971 260.545 246.97 259.128C245.886 257.627 244.635 255.709 244.052 255.126C243.635 254.626 242.968 254.792 242.551 254.959L243.718 256.71V256.793C244.052 260.629 242.468 264.214 239.633 265.965C237.131 267.465 235.214 266.298 234.88 265.965C231.378 264.797 228.46 267.465 227.96 267.965Z" fill="black"/>
<path d="M236.464 277.47C236.464 277.47 234.13 285.557 238.549 287.558C242.634 289.476 245.052 281.055 246.22 277.804C247.804 273.552 250.472 262.88 250.472 262.88L249.221 261.296C249.221 261.296 246.22 272.968 243.551 278.554C240.466 285.057 237.298 281.556 236.464 277.47Z" fill="white"/>
<path d="M239.716 288.309C239.299 288.309 238.799 288.225 238.382 287.975C233.629 285.808 235.964 277.637 236.047 277.303L236.631 275.386L237.048 277.303C237.548 279.638 238.715 281.472 239.883 281.555C240.967 281.722 242.134 280.472 243.218 278.22C245.803 272.801 248.804 261.212 248.804 261.045L249.055 260.128L251.056 262.629L250.972 262.88C250.889 263.296 248.304 273.635 246.72 277.887C246.553 278.22 246.47 278.637 246.303 279.054C245.219 282.139 243.551 286.808 240.967 287.975C240.466 288.225 240.133 288.309 239.716 288.309ZM236.548 279.471C236.131 281.889 235.964 285.891 238.715 287.225C239.299 287.475 239.883 287.558 240.466 287.308C242.718 286.391 244.302 281.722 245.302 278.971C245.469 278.554 245.636 278.137 245.719 277.72C247.137 273.885 249.471 264.63 249.888 263.046L249.305 262.379C248.554 265.297 246.053 274.135 243.885 278.804C242.301 282.222 240.633 282.806 239.549 282.639C238.299 282.473 237.215 281.055 236.548 279.471Z" fill="black"/>
<path d="M216.453 301.149C216.453 301.149 217.871 304.817 222.123 303.983C226.459 303.15 231.128 294.228 233.879 292.478C236.631 290.643 239.299 294.395 239.299 294.395C239.299 294.395 233.046 304.317 227.459 307.985C221.956 311.654 217.621 311.404 216.37 308.736C216.12 307.985 215.119 305.484 216.453 301.149Z" fill="white"/>
<path d="M220.205 311.154C219.622 311.154 219.121 311.07 218.621 310.987C217.454 310.653 216.537 309.986 216.036 308.902C215.453 307.735 214.702 305.151 216.036 300.982L216.453 299.648L216.954 300.982C217.037 301.149 218.288 304.233 222.123 303.483C224.624 302.983 227.459 299.314 229.794 296.396C231.295 294.395 232.629 292.728 233.713 291.977C236.214 290.393 238.799 292.644 239.8 294.062L239.966 294.312L239.8 294.562C239.549 294.979 233.379 304.567 227.876 308.319C225.041 310.153 222.373 311.154 220.205 311.154ZM216.62 302.316C215.87 305.484 216.453 307.485 216.87 308.402C217.204 309.152 217.954 309.736 218.871 309.986C220.956 310.57 224.041 309.653 227.293 307.485C232.129 304.233 237.715 295.979 238.799 294.312C238.215 293.561 236.214 291.477 234.213 292.728C233.213 293.395 231.878 295.062 230.461 296.896C227.96 300.148 225.125 303.817 222.206 304.317C219.205 304.984 217.454 303.483 216.62 302.316Z" fill="black"/>
<path d="M255.975 269.55C255.975 269.55 239.299 295.146 235.797 299.398C232.295 303.65 226.208 310.32 220.789 310.653C220.789 310.653 218.704 311.153 217.12 309.653C217.12 309.653 218.204 312.988 221.122 313.571C224.041 314.155 230.127 310.07 233.296 306.651C236.464 303.233 251.222 284.224 257.142 276.636C258.143 275.386 260.061 272.885 258.977 270.467C258.393 269.216 257.309 267.966 256.475 267.048C255.892 266.465 254.808 266.632 254.474 267.465L256.225 269.8" fill="white"/>
<path d="M221.873 314.072C221.623 314.072 221.373 314.072 221.122 313.988C217.954 313.321 216.787 309.903 216.703 309.736L216.12 307.985L217.454 309.236C218.871 310.57 220.622 310.153 220.705 310.153C224.624 309.903 229.544 306.151 235.38 298.981C238.632 295.062 253.974 271.467 255.391 269.383L253.974 267.465L254.057 267.215C254.307 266.715 254.724 266.298 255.308 266.215C255.892 266.131 256.475 266.298 256.892 266.715C257.726 267.549 258.893 268.883 259.477 270.217C260.644 272.885 258.56 275.553 257.559 276.803C254.224 281.139 237.215 303.15 233.713 306.901C230.878 310.07 225.291 314.072 221.873 314.072ZM218.371 310.903C218.955 311.82 219.872 312.821 221.289 313.071C223.874 313.571 229.71 309.819 233.046 306.234C236.464 302.483 253.474 280.555 256.809 276.22C257.726 274.969 259.56 272.718 258.643 270.55C258.059 269.299 257.059 268.132 256.225 267.299C256.058 267.132 255.808 267.048 255.558 267.132C255.391 267.132 255.225 267.215 255.141 267.382L256.642 269.466L256.225 269.8L256.309 269.883C255.641 270.967 239.549 295.562 236.131 299.731C229.961 307.152 224.958 310.903 220.789 311.237C220.872 311.153 219.705 311.404 218.371 310.903Z" fill="black"/>
<path d="M227.543 267.715L226.459 264.38C226.459 264.38 227.293 263.213 230.044 262.463C232.796 261.629 234.38 262.463 234.38 262.463L235.797 266.715C235.797 266.715 234.213 268.382 232.295 268.799C228.293 269.633 227.543 267.715 227.543 267.715Z" fill="white"/>
<path d="M230.461 269.466C227.793 269.466 227.126 267.882 227.126 267.799L225.958 264.297L226.125 264.13C226.125 264.047 227.126 262.88 229.961 262.046C232.796 261.212 234.547 262.046 234.63 262.046L234.797 262.129L236.381 266.798L236.214 267.048C236.131 267.132 234.547 268.883 232.462 269.299C231.628 269.383 230.961 269.466 230.461 269.466ZM228.043 267.549C228.126 267.715 228.877 269.049 232.212 268.382C233.629 268.049 234.797 267.048 235.297 266.631L234.046 262.88C233.629 262.713 232.212 262.379 230.211 262.963C228.293 263.547 227.376 264.214 227.042 264.547L228.043 267.549Z" fill="black"/>
<path d="M235.297 267.965C235.297 267.965 234.13 266.882 231.128 266.631C228.21 266.381 225.458 267.965 225.458 269.55C225.458 271.134 226.459 270.8 226.459 270.8C226.459 270.8 228.043 269.383 230.795 269.633C233.713 269.883 234.13 271.551 235.297 271.384C236.464 271.217 237.632 269.716 235.297 267.965Z" fill="white"/>
<path d="M235.13 271.884C234.547 271.884 234.13 271.55 233.713 271.217C233.046 270.8 232.295 270.217 230.795 270.05C228.377 269.883 226.876 271.05 226.876 271.134L226.709 271.217C226.626 271.217 226.125 271.384 225.708 271.05C225.292 270.8 225.125 270.217 225.125 269.466C225.125 268.799 225.458 268.216 226.042 267.632C227.209 266.548 229.294 265.881 231.295 266.048C234.213 266.298 235.547 267.298 235.714 267.465C237.298 268.716 237.298 269.8 237.131 270.3C236.965 271.05 236.214 271.634 235.464 271.717C235.297 271.884 235.214 271.884 235.13 271.884ZM230.211 269.133C230.378 269.133 230.628 269.133 230.878 269.133C232.712 269.299 233.629 269.966 234.296 270.467C234.713 270.8 234.964 270.967 235.214 270.883C235.547 270.8 235.964 270.55 236.131 270.133C236.298 269.633 235.881 268.966 235.047 268.299C235.047 268.299 233.88 267.298 231.211 267.132C229.21 266.965 227.543 267.715 226.709 268.466C226.459 268.716 226.125 269.133 226.125 269.55C226.125 270.05 226.209 270.217 226.292 270.3H226.375C226.626 270.133 228.043 269.133 230.211 269.133Z" fill="black"/>
<path d="M233.963 272.384C233.963 272.384 232.796 271.3 229.794 271.05C226.876 270.8 224.124 272.384 224.124 273.968C224.124 275.553 225.125 275.219 225.125 275.219C225.125 275.219 226.709 273.802 229.461 274.052C232.379 274.302 232.796 275.969 233.963 275.803C235.13 275.636 236.298 274.135 233.963 272.384Z" fill="white"/>
<path d="M233.88 276.303C233.296 276.303 232.879 275.969 232.462 275.636C231.795 275.219 231.045 274.635 229.544 274.469C227.042 274.302 225.625 275.469 225.625 275.553L225.458 275.636C225.375 275.636 224.875 275.803 224.458 275.469C224.041 275.219 223.874 274.635 223.874 273.885C223.874 273.218 224.208 272.634 224.791 272.051C225.959 270.967 228.043 270.3 230.044 270.467C232.962 270.717 234.296 271.717 234.463 271.884C236.047 273.135 236.047 274.219 235.881 274.719C235.714 275.469 234.964 276.053 234.213 276.136C233.963 276.303 233.88 276.303 233.88 276.303ZM228.877 273.552C229.044 273.552 229.294 273.552 229.544 273.552C231.378 273.718 232.295 274.385 232.962 274.886C233.379 275.219 233.629 275.386 233.88 275.302C234.213 275.219 234.63 274.969 234.797 274.552C234.964 274.052 234.547 273.385 233.713 272.718C233.713 272.718 232.546 271.717 229.877 271.551C227.876 271.384 226.209 272.134 225.375 272.885C225.125 273.135 224.791 273.552 224.791 273.968C224.791 274.552 224.958 274.719 224.958 274.719H225.041C225.375 274.469 226.792 273.552 228.877 273.552Z" fill="black"/>
<path d="M232.712 276.803C232.712 276.803 231.545 275.719 228.543 275.469C225.625 275.219 222.873 276.803 222.873 278.387C222.873 279.971 223.874 279.638 223.874 279.638C223.874 279.638 225.458 278.22 228.21 278.471C231.128 278.721 231.545 280.388 232.712 280.221C233.879 280.055 235.047 278.554 232.712 276.803Z" fill="white"/>
<path d="M232.545 280.722C231.962 280.722 231.545 280.388 231.128 280.055C230.461 279.638 229.71 279.054 228.21 278.888C225.792 278.721 224.291 279.888 224.291 279.971L224.124 280.055C224.041 280.055 223.54 280.222 223.123 279.888C222.707 279.638 222.54 279.054 222.54 278.304C222.54 277.637 222.873 277.053 223.457 276.47C224.624 275.386 226.709 274.719 228.71 274.886C231.628 275.136 232.962 276.136 233.129 276.303C234.713 277.554 234.713 278.637 234.546 279.138C234.38 279.888 233.629 280.472 232.879 280.555C232.712 280.722 232.629 280.722 232.545 280.722ZM227.626 277.97C227.793 277.97 228.043 277.97 228.293 277.97C230.127 278.137 231.045 278.804 231.712 279.304C232.128 279.638 232.379 279.805 232.629 279.721C232.962 279.638 233.379 279.388 233.546 278.971C233.713 278.471 233.296 277.804 232.462 277.137C232.462 277.137 231.295 276.136 228.627 275.969C226.625 275.803 224.958 276.553 224.124 277.303C223.874 277.554 223.54 277.97 223.54 278.387C223.54 278.888 223.624 279.054 223.707 279.138H223.79C224.124 278.888 225.458 277.97 227.626 277.97Z" fill="black"/>
<path d="M231.461 281.222C231.461 281.222 230.294 280.138 227.292 279.888C224.374 279.638 221.623 281.222 221.623 282.806C221.623 284.39 222.623 284.057 222.623 284.057C222.623 284.057 224.207 282.639 226.959 282.889C229.877 283.14 230.294 284.807 231.461 284.64C232.629 284.474 233.796 282.973 231.461 281.222Z" fill="white"/>
<path d="M231.295 285.141C230.711 285.141 230.294 284.807 229.877 284.474C229.21 284.057 228.46 283.473 226.959 283.306C224.541 283.14 223.04 284.307 223.04 284.39L222.873 284.474C222.79 284.474 222.29 284.64 221.873 284.307C221.456 284.057 221.289 283.473 221.289 282.723C221.289 282.056 221.623 281.472 222.206 280.888C223.374 279.805 225.458 279.138 227.459 279.304C230.377 279.554 231.711 280.555 231.878 280.722C233.462 281.972 233.462 283.056 233.296 283.556C233.129 284.307 232.379 284.89 231.628 284.974C231.461 285.141 231.378 285.141 231.295 285.141ZM226.375 282.389C226.542 282.389 226.792 282.389 227.042 282.389C228.877 282.556 229.794 283.223 230.461 283.723C230.878 284.057 231.128 284.223 231.378 284.14C231.711 284.057 232.128 283.807 232.295 283.39C232.462 282.889 232.045 282.222 231.211 281.555C231.211 281.555 230.044 280.555 227.376 280.388C225.375 280.221 223.707 280.972 222.873 281.722C222.623 281.972 222.29 282.389 222.29 282.806C222.29 283.306 222.373 283.473 222.456 283.556H222.54C222.79 283.306 224.207 282.389 226.375 282.389Z" fill="black"/>
<path d="M230.127 285.641C230.127 285.641 228.96 284.557 225.958 284.307C223.04 284.057 220.289 285.641 220.289 287.225C220.289 288.809 221.289 288.476 221.289 288.476C221.289 288.476 222.873 287.058 225.625 287.308C228.543 287.558 228.96 289.226 230.127 289.059C231.295 288.892 232.462 287.392 230.127 285.641Z" fill="white"/>
<path d="M229.961 289.559C229.377 289.559 228.96 289.226 228.543 288.892C227.876 288.476 227.126 287.892 225.625 287.725C223.207 287.475 221.706 288.726 221.706 288.809L221.539 288.892C221.456 288.892 220.956 289.059 220.539 288.726C220.122 288.476 219.955 287.892 219.955 287.142C219.955 286.475 220.289 285.891 220.872 285.307C222.04 284.224 224.124 283.557 226.125 283.723C229.043 283.973 230.378 284.974 230.544 285.141C232.128 286.391 232.128 287.475 231.962 287.975C231.795 288.726 231.045 289.309 230.294 289.393C230.127 289.559 230.044 289.559 229.961 289.559ZM225.041 286.808C225.208 286.808 225.458 286.808 225.708 286.808C227.543 286.975 228.46 287.642 229.127 288.142C229.544 288.476 229.794 288.642 230.044 288.559C230.378 288.476 230.794 288.225 230.961 287.809C231.128 287.308 230.711 286.641 229.877 285.974C229.877 285.974 228.71 284.974 226.042 284.807C224.041 284.64 222.373 285.391 221.539 286.141C221.289 286.391 220.956 286.808 220.956 287.225C220.956 287.809 221.122 287.975 221.122 287.975H221.206C221.539 287.725 222.873 286.808 225.041 286.808Z" fill="black"/>
<path d="M217.871 266.965C217.871 266.965 215.703 269.8 215.369 273.468C215.036 277.137 216.62 279.471 216.62 279.471L221.706 272.134L217.871 266.965Z" fill="white"/>
<path d="M216.537 280.221L216.203 279.638C216.12 279.554 214.536 277.137 214.869 273.385C215.203 269.633 217.37 266.715 217.454 266.631L217.787 266.131L222.123 272.051L216.537 280.221ZM217.871 267.715C217.287 268.716 216.036 270.884 215.786 273.468C215.619 275.886 216.203 277.637 216.62 278.554L221.123 272.134L217.871 267.715Z" fill="black"/>
<path d="M202.195 193.595C202.195 193.595 196.109 197.431 190.772 198.014C190.772 198.014 199.027 202.266 207.448 200.932L202.195 193.595Z" fill="#2F2E41"/>
<path d="M165.758 194.596C165.758 194.596 159.171 197.347 152.584 194.596H165.758Z" fill="white"/>
<path d="M158.921 196.347C156.92 196.347 154.669 196.013 152.334 195.096L152.668 194.262C159.005 196.93 165.425 194.262 165.508 194.262L165.842 195.096C165.758 195.096 162.84 196.347 158.921 196.347Z" fill="black"/>
<path d="M209.616 189.01C209.616 189.01 212.701 182.09 219.538 177.838C226.292 173.586 244.052 171.084 248.137 168.75C252.223 166.332 252.14 159.746 251.222 152.992C250.305 146.239 248.554 137.568 248.554 137.568C248.554 137.568 252.473 135.567 254.891 139.736C257.309 143.904 259.727 165.915 259.31 169.917C258.56 177.171 254.641 181.089 245.219 185.091C235.797 189.093 207.448 193.762 207.448 193.762L209.616 189.01Z" fill="black"/>
<path d="M206.531 194.513L209.199 188.843C209.366 188.51 212.451 181.756 219.288 177.504C223.29 175.003 230.711 173.169 237.298 171.585C242.051 170.417 246.22 169.417 247.887 168.416C251.889 166.082 251.473 158.995 250.722 153.159C249.805 146.572 248.054 137.901 248.054 137.818L247.971 137.484L248.304 137.318C248.388 137.318 252.64 135.15 255.308 139.652C257.893 144.071 260.144 166.249 259.727 170.167C258.977 177.504 255.225 181.59 245.386 185.758C235.964 189.76 208.615 194.262 207.448 194.513H206.531ZM248.971 137.985C249.305 139.736 250.806 147.156 251.639 152.992C252.473 159.162 252.807 166.582 248.304 169.167C246.553 170.251 242.301 171.251 237.465 172.418C230.961 174.002 223.54 175.837 219.705 178.255C213.118 182.34 210.033 189.093 210.033 189.177L208.115 193.179C213.035 192.345 236.548 188.259 244.886 184.674C254.307 180.672 257.976 176.754 258.643 169.834C259.06 165.748 256.725 143.988 254.307 139.902C252.557 136.984 249.972 137.568 248.971 137.985Z" fill="black"/>
<path d="M82.2954 145.322H71.2893V337.416H82.2954V145.322Z" fill="black"/>
<path d="M82.8791 338H70.6223V144.738H82.8791V338ZM71.873 336.833H81.7118V145.905H71.873V336.833Z" fill="black"/>
<path d="M216.62 153.993H49.1105C47.1094 153.993 45.5251 152.408 45.5251 150.408V144.154C45.5251 142.153 47.1094 140.569 49.1105 140.569H216.62C218.621 140.569 220.205 142.153 220.205 144.154V150.408C220.205 152.408 218.538 153.993 216.62 153.993Z" fill="black"/>
<path d="M216.62 154.493H49.1105C46.8593 154.493 45.0249 152.659 45.0249 150.408V144.154C45.0249 141.903 46.8593 140.069 49.1105 140.069H216.62C218.871 140.069 220.706 141.903 220.706 144.154V150.408C220.706 152.659 218.871 154.493 216.62 154.493ZM49.1105 140.986C47.4429 140.986 46.0255 142.404 46.0255 144.071V150.324C46.0255 151.992 47.4429 153.409 49.1105 153.409H216.62C218.287 153.409 219.705 151.992 219.705 150.324V144.071C219.705 142.404 218.287 140.986 216.62 140.986H49.1105Z" fill="black"/>
<path d="M158.838 117.141C158.838 117.141 161.089 116.641 162.59 118.975C164.091 121.31 171.261 138.985 171.261 138.985C171.261 138.985 171.011 140.069 169.594 140.069C168.176 140.069 152.584 140.069 152.584 140.069L158.838 117.141Z" fill="#133386"/>
<path d="M169.594 140.569H151.917L158.421 116.724L158.671 116.641C158.755 116.641 161.339 116.057 162.924 118.642C164.341 120.976 171.345 137.985 171.678 138.735L171.762 138.902V139.069C171.595 139.652 171.011 140.569 169.594 140.569ZM153.168 139.652H169.594C170.344 139.652 170.678 139.235 170.761 139.069C170.011 137.318 163.507 121.393 162.173 119.309C161.173 117.808 159.839 117.641 159.255 117.725L153.168 139.652Z" fill="black"/>
<path d="M118.983 117.141L112.729 140.486H152.585L158.838 117.141H118.983Z" fill="#133386"/>
<path d="M152.918 140.986H112.146L118.649 116.724H159.422L152.918 140.986ZM113.396 140.069H152.168L158.171 117.725H119.4L113.396 140.069Z" fill="black"/>
<path d="M146.915 87.6266H104.891C104.224 87.6266 103.724 87.1263 103.724 86.4594V86.1259C103.724 85.4589 104.224 84.9586 104.891 84.9586H146.915C147.582 84.9586 148.082 85.4589 148.082 86.1259V86.4594C148.165 87.043 147.582 87.6266 146.915 87.6266Z" fill="#133386"/>
<path d="M146.915 88.0435H104.891C103.974 88.0435 103.224 87.2931 103.224 86.376V86.0425C103.224 85.1254 103.974 84.375 104.891 84.375H146.915C147.832 84.375 148.582 85.1254 148.582 86.0425V86.376C148.582 87.2931 147.832 88.0435 146.915 88.0435ZM104.891 85.3755C104.475 85.3755 104.224 85.709 104.224 86.0425V86.376C104.224 86.7929 104.558 87.043 104.891 87.043H146.915C147.332 87.043 147.582 86.7095 147.582 86.376V86.0425C147.582 85.6256 147.248 85.3755 146.915 85.3755H104.891Z" fill="black"/>
<path d="M147.582 84.9586L151.167 85.6256C151.584 85.709 151.667 86.2926 151.167 86.4594L147.582 87.4599C147.331 87.5432 147.081 87.2931 147.081 87.043V85.3755C147.081 85.1254 147.248 84.8752 147.582 84.9586Z" fill="white"/>
<path d="M147.498 87.9601C147.331 87.9601 147.081 87.8767 146.915 87.7933C146.664 87.6266 146.581 87.3765 146.581 87.043V85.3755C146.581 85.1254 146.664 84.8752 146.915 84.7085C147.081 84.5417 147.415 84.4584 147.665 84.5417L151.25 85.2087C151.667 85.2921 152.001 85.6256 152.001 86.0425C152.001 86.4593 151.751 86.8762 151.334 86.9596L147.748 87.9601C147.665 87.9601 147.582 87.9601 147.498 87.9601ZM147.498 85.4589V86.9596L150.75 86.0425L147.498 85.4589Z" fill="black"/>
<path d="M298.249 55.2772C300 61.1134 296.664 65.8658 290.995 65.8658C285.492 65.8658 279.822 61.4469 278.071 55.9442C276.32 50.3581 279.238 45.6058 284.658 45.1889C290.328 44.8554 296.498 49.3576 298.249 55.2772Z" fill="#FFB8B8"/>
<path d="M290.911 66.3661C285.241 66.3661 279.321 61.8639 277.57 56.111C276.653 53.1929 276.987 50.1914 278.488 48.1071C279.822 46.1061 281.99 44.9388 284.658 44.7721C290.578 44.3552 296.914 49.0242 298.665 55.1939C299.583 58.2788 299.166 61.1135 297.582 63.2812C296.164 65.2822 293.746 66.3661 290.911 66.3661ZM285.325 45.6892C285.158 45.6892 284.908 45.6892 284.741 45.6892C282.406 45.856 280.489 46.8565 279.321 48.6073C277.987 50.5249 277.737 53.1095 278.571 55.7775C280.239 61.1135 285.825 65.3656 290.995 65.3656C293.496 65.3656 295.58 64.3651 296.914 62.6142C298.332 60.6966 298.665 58.112 297.832 55.3607C296.164 50.0247 290.578 45.6892 285.325 45.6892Z" fill="black"/>
<path d="M205.697 72.0355L199.11 55.5273H293.746L300.333 72.0355H205.697Z" fill="#A0616A"/>
<path d="M301 72.5357H205.364L198.36 55.1105H293.996L301 72.5357ZM206.031 71.5352H299.583L293.413 56.0276H199.777L206.031 71.5352Z" fill="black"/>
<path d="M28.0991 52.1924L25.2642 45.0222H66.2035L69.0384 52.1924H28.0991Z" fill="#A0616A"/>
<path d="M69.7887 52.6927H27.7655L24.5137 44.6053H66.5369L69.7887 52.6927ZM28.4325 51.6922H68.3713L65.8699 45.5225H26.0145L28.4325 51.6922Z" fill="black"/>
<path d="M106.809 106.552H76.7925V107.553H106.809V106.552Z" fill="black"/>
<path d="M242.885 60.113C244.957 60.113 246.637 58.4332 246.637 56.3611C246.637 54.289 244.957 52.6093 242.885 52.6093C240.812 52.6093 239.133 54.289 239.133 56.3611C239.133 58.4332 240.812 60.113 242.885 60.113Z" fill="white"/>
<path d="M242.885 60.5298C240.55 60.5298 238.716 58.6122 238.716 56.3611C238.716 54.11 240.633 52.1924 242.885 52.1924C245.136 52.1924 247.054 54.11 247.054 56.3611C247.054 58.6122 245.219 60.5298 242.885 60.5298ZM242.885 53.1095C241.134 53.1095 239.633 54.5269 239.633 56.3611C239.633 58.1953 241.05 59.6127 242.885 59.6127C244.719 59.6127 246.136 58.1953 246.136 56.3611C246.136 54.5269 244.636 53.1095 242.885 53.1095Z" fill="black"/>
<path d="M156.67 153.993C156.67 153.993 159.172 159.745 167.676 159.745V153.993H156.67Z" fill="black"/>
<path d="M71.2896 153.993C71.2896 153.993 73.7909 159.745 82.2956 159.745V153.993H71.2896Z" fill="black"/>
<path d="M175.847 153.993C175.847 153.993 185.77 162.58 199.11 162.58L204.113 160.079V153.993H175.847Z" fill="black"/>
<path d="M160.922 30.9319C161.613 30.9319 162.173 30.372 162.173 29.6813C162.173 28.9906 161.613 28.4307 160.922 28.4307C160.232 28.4307 159.672 28.9906 159.672 29.6813C159.672 30.372 160.232 30.9319 160.922 30.9319Z" fill="black"/>
<path d="M149.833 32.1825C150.524 32.1825 151.084 31.6226 151.084 30.9319C151.084 30.2412 150.524 29.6813 149.833 29.6813C149.142 29.6813 148.582 30.2412 148.582 30.9319C148.582 31.6226 149.142 32.1825 149.833 32.1825Z" fill="black"/>
<path d="M156.67 38.6857C156.086 38.6857 155.419 38.519 154.919 38.1021C154.335 37.6019 154.085 36.8515 154.252 35.851C154.502 33.5999 153.251 29.7646 153.251 29.6813L154.169 29.3478C154.252 29.5145 155.503 33.4331 155.253 35.851C155.169 36.518 155.336 36.9349 155.586 37.2684C156.003 37.6019 156.92 37.6852 158.004 37.4351C159.422 37.0182 160.589 35.5175 160.589 35.5175L161.339 36.1011C161.256 36.1845 160.005 37.9353 158.254 38.3522C157.837 38.6023 157.254 38.6857 156.67 38.6857Z" fill="black"/>
<path d="M146.498 27.847L145.581 27.5135C145.664 27.2634 146.081 26.513 148.499 26.4297C150.667 26.3463 151.25 26.7632 151.417 27.0133L150.583 27.5135L151 27.2634L150.667 27.5969C150.667 27.5969 150.25 27.2634 148.499 27.3468C146.831 27.4302 146.498 27.847 146.498 27.847Z" fill="black"/>
<path d="M156.837 27.4302L156.003 27.0133C156.086 26.9299 157.17 24.5121 160.089 24.5121C162.84 24.5121 163.757 25.3458 163.841 25.4292L163.174 26.0962C163.174 26.0962 162.423 25.4292 160.089 25.4292C157.754 25.5126 156.837 27.3468 156.837 27.4302Z" fill="black"/>
<path d="M158.671 42.3541C157.254 42.3541 156.67 41.8539 156.587 41.7705L157.254 41.1035C157.254 41.1035 158.087 41.7705 160.339 41.1869C162.59 40.6033 163.007 39.6862 163.007 39.6862L163.924 40.0197C163.841 40.1864 163.34 41.5204 160.505 42.1874C159.838 42.2708 159.171 42.3541 158.671 42.3541Z" fill="black"/>
</g>
<defs>
<clipPath id="clip0_1_920">
<rect width="301" height="338" fill="white"/>
</clipPath>
</defs>
</svg>
