<svg width="156" height="47" viewBox="0 0 156 47" fill="none" xmlns="http://www.w3.org/2000/svg">
<path d="M76.3759 18.5712V37.2225C76.3759 38.4433 76.6446 39.3293 77.1818 39.8807C77.7574 40.3926 78.7168 40.6486 80.0599 40.6486H84.0893V46.2602H78.9087C75.9538 46.2602 73.6897 45.5514 72.1163 44.1337C70.5429 42.716 69.7562 40.4123 69.7562 37.2225V18.5712H66.0146V11.9258H69.7562V1.95776H76.3759V11.9258H84.0893V18.5712H76.3759Z" fill="#133386"/>
<path d="M140.816 18.5712H134.945V46.2602H128.325V18.5712H124.584V11.9258H128.325V11.4089C128.325 7.66784 129.285 4.95062 131.203 3.25728C133.161 1.52456 136.211 0.658203 140.356 0.658203V6.26985C138.36 6.26985 136.96 6.66365 136.154 7.45125C135.348 8.19947 134.945 9.5187 134.945 11.4089V11.9258H140.816V18.5712Z" fill="#133386"/>
<path d="M153.194 18.5712V46.2602H146.632V18.5712H153.194Z" fill="#133386"/>
<path d="M118.858 11.9258V46.2602H112.296V41.9211C111.26 43.2684 109.898 44.3383 108.209 45.1309C106.559 45.8838 104.794 46.2602 102.913 46.2602C100.419 46.2602 98.174 45.7253 96.1784 44.6554C94.2213 43.5854 92.6671 42.0004 91.5159 39.9002C90.403 37.8 89.8466 35.2639 89.8466 32.2919V11.9258H96.3511V31.2814C96.3511 34.2138 97.0611 36.4725 98.481 38.0575C99.9008 39.603 101.839 40.3757 104.295 40.3757C106.751 40.3757 108.689 39.603 110.109 38.0575C111.567 36.4725 112.296 34.2138 112.296 31.2814V11.9258H118.858Z" fill="#133386"/>
<path d="M62.2616 28.3751C62.2616 29.6155 62.1848 30.7358 62.0313 31.7361H37.7974C37.9893 34.3768 38.9295 36.4974 40.618 38.0979C42.3065 39.6984 44.3788 40.4986 46.8348 40.4986C50.3653 40.4986 52.8597 38.9581 54.3179 35.8773H61.3981C60.4387 38.9181 58.6927 41.4188 56.1599 43.3794C53.6655 45.3 50.5571 46.2602 46.8348 46.2602C43.8031 46.2602 41.0785 45.56 38.6609 44.1596C36.2816 42.7192 34.4012 40.7186 33.0197 38.1579C31.6766 35.5572 31.005 32.5563 31.005 29.1553C31.005 25.7543 31.6574 22.7735 32.9622 20.2127C34.3053 17.612 36.1665 15.6114 38.5457 14.211C40.9634 12.8106 43.7264 12.1104 46.8348 12.1104C49.828 12.1104 52.4951 12.7906 54.836 14.151C57.1769 15.5114 58.9997 17.4319 60.3044 19.9127C61.6092 22.3534 62.2616 25.1742 62.2616 28.3751ZM55.4116 26.2145C55.3732 23.6937 54.5098 21.6732 52.8213 20.1527C51.1328 18.6323 49.0413 17.8721 46.5469 17.8721C44.2828 17.8721 42.3449 18.6323 40.7331 20.1527C39.1214 21.6332 38.162 23.6537 37.855 26.2145H55.4116Z" fill="#133386"/>
<path d="M13.9594 46.2602C11.465 46.2602 9.22006 45.8001 7.22455 44.8798C5.26742 43.9196 3.71323 42.6392 2.56198 41.0387C1.41072 39.3983 0.796721 37.5777 0.719971 35.5772H7.51237C7.62749 36.9776 8.26068 38.1579 9.41194 39.1182C10.6016 40.0384 12.079 40.4986 13.8443 40.4986C15.6863 40.4986 17.1061 40.1385 18.1039 39.4183C19.14 38.6581 19.6581 37.6978 19.6581 36.5374C19.6581 35.2971 19.0825 34.3768 17.9312 33.7766C16.8183 33.1765 15.0339 32.5163 12.5779 31.7961C10.1986 31.1159 8.26068 30.4557 6.76405 29.8155C5.26742 29.1753 3.96267 28.195 2.84979 26.8747C1.77529 25.5543 1.23803 23.8138 1.23803 21.6532C1.23803 19.8927 1.73691 18.2922 2.73466 16.8518C3.73242 15.3714 5.1523 14.211 6.9943 13.3708C8.87468 12.5305 11.0237 12.1104 13.4413 12.1104C17.0486 12.1104 19.9459 13.0707 22.1333 14.9912C24.359 16.8718 25.5487 19.4525 25.7022 22.7335H19.14C19.0249 21.253 18.4493 20.0727 17.4131 19.1925C16.377 18.3122 14.9763 17.8721 13.2111 17.8721C11.4842 17.8721 10.1602 18.2122 9.23925 18.8924C8.31824 19.5726 7.85774 20.4728 7.85774 21.5931C7.85774 22.4734 8.16474 23.2136 8.77875 23.8138C9.39275 24.414 10.1411 24.8941 11.0237 25.2542C11.9063 25.5743 13.2111 25.9944 14.938 26.5146C17.2405 27.1547 19.1208 27.8149 20.5791 28.4951C22.0757 29.1353 23.3613 30.0956 24.4358 31.376C25.5103 32.6563 26.0667 34.3568 26.1051 36.4774C26.1051 38.358 25.6062 40.0385 24.6085 41.5189C23.6107 42.9993 22.1909 44.1596 20.3488 44.9999C18.5452 45.8401 16.4154 46.2602 13.9594 46.2602Z" fill="#133386"/>
<path d="M146.294 11.0458C147.336 12.0636 148.627 12.5725 150.165 12.5725C151.654 12.5725 152.919 12.0636 153.961 11.0458C155.003 10.028 155.524 8.7679 155.524 7.26544C155.524 5.76298 155.003 4.50286 153.961 3.48507C152.919 2.46727 151.654 1.95837 150.165 1.95837C148.627 1.95837 147.336 2.46727 146.294 3.48507C145.252 4.50286 144.731 5.76298 144.731 7.26544C144.731 8.7679 145.252 10.028 146.294 11.0458Z" fill="#3FE3C4"/>
</svg>
