<svg width="38" height="72" viewBox="0 0 38 72" fill="none" xmlns="http://www.w3.org/2000/svg">
<path d="M30.4396 70.408L28.8287 70.4079L28.0624 64.5217L30.4399 64.5219L30.4396 70.408Z" fill="#A0616A"/>
<path d="M30.4963 72L25.5424 71.9998V71.9405C25.5425 70.9318 26.4057 70.114 27.4706 70.114H27.4707L28.3756 69.4637L30.0639 70.1141L30.4963 70.1141L30.4963 72H30.4963Z" fill="#2F2E41"/>
<path d="M20.5949 70.408L18.984 70.4079L18.2176 64.5217L20.5952 64.5219L20.5949 70.408Z" fill="#A0616A"/>
<path d="M20.6515 72L15.6977 71.9998V71.9405C15.6978 70.9318 16.561 70.114 17.6259 70.114H17.626L18.5309 69.4637L20.2192 70.1141L20.6516 70.1141L20.6515 72H20.6515Z" fill="#2F2E41"/>
<path d="M31.8627 32.9622L17.1307 32.5742L17.2251 40.4474L18.0023 49.6506C18.0023 49.6506 16.1888 56.3996 17.7432 63.1486L17.8728 68.3024L22.0179 68.057C22.0179 68.057 22.7304 57.9335 21.8236 54.1295L24.5439 40.3861L27.1346 53.7614C27.1346 53.7614 26.746 61.4921 27.7823 64.5598V67.4512H30.7132C30.7132 67.4512 33.8705 57.32 31.5388 52.1662L31.8627 32.9622L31.8627 32.9622Z" fill="#2F2E41"/>
<path d="M21.2665 10.0832C21.2665 10.0832 21.6641 9.13826 21.9609 8.71649C24.0386 8.71649 24.3026 8.85167 26.1164 8.71649L31.1509 34.322C31.1509 34.322 33.9188 36.5316 30.8794 36.5316C27.8401 36.5316 23.4577 35.7281 22.2561 36.3308C21.0545 36.9334 17.2376 35.996 17.2376 35.996L21.2665 10.0832Z" fill="#F9A826"/>
<path d="M26.0335 8.66571L27.8974 10.5442L29.1283 10.5596C30.2668 10.5738 31.1792 11.4566 31.1704 12.5351L30.7844 23.2953C30.7844 23.2953 34.2725 33.5318 31.9399 33.9335L32.364 35.4735L27.8895 38.0849C27.8895 38.0849 26.5325 31.2085 26.3205 29.6684C26.1084 28.1284 25.0546 19.4494 25.0546 19.4494C25.0546 19.4494 25.2602 12.3099 25.4016 11.6485L26.0335 8.66571H26.0335Z" fill="#2F2E41"/>
<path d="M21.9026 8.74402L22.8215 13.2302L20.489 25.0818C20.489 25.0818 21.0545 36.0629 19.2874 37.1343L16.5025 36.4513L16.7146 34.3087C16.7146 34.3087 16.46 33.7864 16.6014 31.7776C16.7428 29.7689 17.5758 26.1071 17.5758 26.1071L16.342 12.7615C16.342 12.7615 19.4287 10.0162 20.7717 10.351L21.9027 8.74402H21.9026Z" fill="#2F2E41"/>
<path d="M37.1343 33.9675L36.8469 30.3146L34.6211 30.179L35.07 34.0308C34.9981 34.1275 34.9396 34.2357 34.8985 34.3539C34.675 34.9971 35.0443 35.6902 35.7233 35.9019C36.4023 36.1135 37.1339 35.7637 37.3573 35.1205C37.4998 34.7103 37.4005 34.2804 37.1343 33.9675L37.1343 33.9675Z" fill="#A0616A"/>
<path d="M28.5636 10.6035L29.7361 10.6218C30.6028 10.6354 31.3688 11.1593 31.6552 11.9343L36.0491 23.8241L36.5052 26.0412C36.5052 26.0412 38.613 30.8289 37.8227 31.5532L37.4459 32.8866L34.651 32.8428L34.6701 31.7502C34.6701 31.7502 33.8166 31.6744 33.8207 30.7118C33.8207 30.7118 31.6088 27.1028 32.1941 25.9736L30.6873 23.2043L28.5636 10.6035Z" fill="#2F2E41"/>
<path d="M1.11095 29.3285L3.94744 26.8389L5.6748 28.1755L2.57704 30.7065C2.56017 30.8238 2.5253 30.9407 2.47037 31.0538C2.17162 31.669 1.40298 31.9382 0.753592 31.6552C0.104201 31.3722 -0.180048 30.6441 0.118706 30.0289C0.309235 29.6366 0.691023 29.3859 1.11095 29.3285Z" fill="#A0616A"/>
<path d="M18.1339 11.4356L19.5566 16.6418L14.5743 23.1282L12.9521 24.7836C12.9521 24.7836 5.96543 29.9543 4.88205 29.7762L3.52274 30.2735L1.91323 28.1085L2.85631 27.4794C2.85631 27.4794 2.41814 26.7815 3.24147 26.2174C3.24147 26.2174 9.16144 21.6616 10.4695 21.4442L11.9435 18.6591L16.4478 12.7151L18.1339 11.4356Z" fill="#2F2E41"/>
<path d="M21.5238 7.59198C21.5432 7.60673 21.5614 7.61778 21.5809 7.62885C21.7313 7.72347 21.8883 7.80826 22.0531 7.88076C22.0556 7.88322 22.0595 7.88445 22.0634 7.88567C22.3605 8.01839 22.6809 8.11793 23.0195 8.17692C23.3658 8.23713 23.7096 8.25311 24.0443 8.2273C25.7683 8.09827 27.2523 6.8903 27.5818 5.20308C27.6921 4.64026 27.661 4.08481 27.5144 3.56746C27.1343 2.23046 25.9759 1.15152 24.4425 0.882397C22.3164 0.510057 20.2746 1.84091 19.8815 3.85501C19.5909 5.34439 20.2836 6.79076 21.5238 7.59198L21.5238 7.59198Z" fill="#A0616A"/>
<path d="M26.1162 7.50137L25.88 6.46812C25.88 6.46812 26.5229 5.93804 25.88 5.44513L25.5301 5.22982H24.9959L24.651 3.5642L22.4531 3.42539C22.4531 3.42539 20.2552 3.00899 19.9622 2.31497C19.9622 2.31497 20.6948 2.17617 20.5483 1.62096C20.5483 1.62096 22.3066 -0.461074 23.9184 0.0941358C25.5301 0.649345 26.1162 1.20455 26.1162 1.20455C26.1162 1.20455 28.7537 0.788146 28.7537 3.8418C28.7537 6.89545 26.1162 7.50136 26.1162 7.50136V7.50137Z" fill="#2F2E41"/>
<path d="M2.02586 34.1597H6.45385C6.93391 34.1597 7.32446 33.7897 7.32446 33.335V25.3199C7.32446 24.8651 6.93391 24.4952 6.45385 24.4952H2.02586C1.54582 24.4952 1.15526 24.8652 1.15526 25.3199V33.335C1.15526 33.7897 1.54582 34.1597 2.02586 34.1597Z" fill="#3F3D56"/>
<path d="M1.15531 27.4434C1.17562 27.4434 1.19214 27.459 1.19214 27.4782V28.5947C1.19214 28.614 1.17562 28.6296 1.15531 28.6296C1.135 28.6296 1.11849 28.614 1.11849 28.5947V27.4782C1.11849 27.459 1.135 27.4434 1.15531 27.4434Z" fill="#3F3D56"/>
<path d="M1.23799 25.3199V33.3348C1.23799 33.7307 1.56321 34.0544 1.97442 34.0796H1.97461C1.98069 34.0799 1.98676 34.0803 1.99303 34.0804C2.00389 34.081 2.01476 34.0811 2.02581 34.0811C2.02581 34.0811 2.06632 34.0783 2.14035 34.0731C2.21512 34.0679 2.32395 34.06 2.45968 34.0497C2.50038 34.0468 2.54328 34.0435 2.58859 34.04C2.67882 34.033 2.7779 34.0253 2.88416 34.0166C2.92651 34.0133 2.97034 34.0096 3.01509 34.0059C3.24381 33.9873 3.49997 33.9655 3.77013 33.9407C3.8158 33.9367 3.86184 33.9325 3.90824 33.9281C3.9204 33.9269 3.93274 33.9259 3.94507 33.9247C4.1377 33.9067 4.33567 33.8873 4.53437 33.8667C4.54671 33.8655 4.55905 33.8643 4.57121 33.8631C4.91355 33.8273 5.25718 33.7884 5.57872 33.7465C5.82604 33.7144 6.06028 33.6806 6.27059 33.6455C6.33909 33.634 6.40502 33.6225 6.468 33.6108C6.48034 33.6085 6.49268 33.6063 6.50483 33.6038C6.94994 33.5194 7.24146 33.4283 7.24146 33.3348V25.3199C7.24146 24.9077 6.8888 24.5736 6.45364 24.5736H5.98331C5.90817 24.5736 5.84777 24.6291 5.84132 24.7001C5.84077 24.7048 5.84022 24.7095 5.8393 24.7142C5.82567 24.7856 5.75661 24.8353 5.68 24.8353H2.79944C2.72284 24.8353 2.65378 24.7856 2.64015 24.7142C2.63923 24.7095 2.63868 24.7048 2.63813 24.7001C2.63168 24.6291 2.57128 24.5736 2.49614 24.5736H2.02581C1.59065 24.5736 1.23799 24.9077 1.23799 25.3199Z" fill="#F9A826"/>
<path d="M7.34281 26.606C7.36312 26.606 7.37964 26.6217 7.37964 26.6409V26.92C7.37964 26.9393 7.36312 26.9549 7.34281 26.9549C7.3225 26.9549 7.30599 26.9393 7.30599 26.92V26.6409C7.30599 26.6217 7.3225 26.606 7.34281 26.606Z" fill="#3F3D56"/>
<path d="M7.34281 27.4434C7.36312 27.4434 7.37964 27.459 7.37964 27.4782V28.019C7.37964 28.0383 7.36312 28.0539 7.34281 28.0539C7.3225 28.0539 7.30599 28.0383 7.30599 28.019V27.4782C7.30599 27.459 7.3225 27.4434 7.34281 27.4434Z" fill="#3F3D56"/>
<path d="M7.34281 28.2109C7.36312 28.2109 7.37964 28.2266 7.37964 28.2458V28.7866C7.37964 28.8059 7.36312 28.8215 7.34281 28.8215C7.3225 28.8215 7.30599 28.8059 7.30599 28.7866V28.2458C7.30599 28.2266 7.3225 28.2109 7.34281 28.2109Z" fill="#3F3D56"/>
<path d="M6.03543 24.6958H6.66149C6.68691 24.6958 6.70752 24.7153 6.70752 24.7394C6.70752 24.7635 6.68691 24.783 6.66149 24.783H6.03543C6.01 24.783 5.98939 24.7635 5.98939 24.7394C5.98939 24.7153 6.01 24.6958 6.03543 24.6958Z" fill="#3F3D56"/>
<path d="M2.37996 24.7831C2.33928 24.7831 2.30631 24.7518 2.30631 24.7133C2.30631 24.6747 2.33928 24.6435 2.37996 24.6435C2.42064 24.6435 2.45361 24.6747 2.45361 24.7133C2.45361 24.7518 2.42064 24.7831 2.37996 24.7831Z" fill="#3F3D56"/>
<path d="M2.17732 24.7831C2.13664 24.7831 2.10367 24.7518 2.10367 24.7133C2.10367 24.6747 2.13664 24.6435 2.17732 24.6435C2.218 24.6435 2.25098 24.6747 2.25098 24.7133C2.25098 24.7518 2.218 24.7831 2.17732 24.7831Z" fill="#3F3D56"/>
<path d="M1.97469 24.7831C1.93401 24.7831 1.90103 24.7518 1.90103 24.7133C1.90103 24.6747 1.93401 24.6435 1.97469 24.6435C2.01536 24.6435 2.04834 24.6747 2.04834 24.7133C2.04834 24.7518 2.01536 24.7831 1.97469 24.7831Z" fill="#3F3D56"/>
<path d="M4.14198 31.6123C2.85425 31.6123 1.81033 30.6234 1.81033 29.4035C1.81033 28.1837 2.85425 27.1948 4.14198 27.1948C5.42972 27.1948 6.47363 28.1837 6.47363 29.4035C6.47363 30.6234 5.42972 31.6123 4.14198 31.6123Z" fill="white"/>
<path d="M3.57083 28.6951C3.75732 28.482 4.06865 28.3562 4.35792 28.4363C4.62287 28.5097 4.84338 28.7474 4.81866 29.0186C4.80719 29.1445 4.75305 29.2654 4.65997 29.3568C4.55484 29.46 4.42085 29.4956 4.27385 29.5074C4.11701 29.5199 3.98241 29.542 3.87796 29.6645C3.78712 29.7709 3.75876 29.9122 3.8108 30.0409C3.93447 30.347 4.37192 30.3826 4.5548 30.1074C4.62658 29.9994 4.80821 30.0991 4.73598 30.2077C4.58686 30.4321 4.28369 30.5556 4.0112 30.4717C3.74616 30.3901 3.55152 30.1298 3.57617 29.8635C3.60177 29.587 3.83411 29.3592 4.12285 29.3217C4.27494 29.3019 4.43407 29.3177 4.53697 29.1888C4.61738 29.088 4.63464 28.9487 4.57386 28.8357C4.49969 28.6979 4.33835 28.6113 4.17684 28.611C3.99346 28.6106 3.83326 28.7053 3.7192 28.8357C3.63294 28.9342 3.48522 28.7929 3.57083 28.6951V28.6951Z" fill="#F9A826"/>
<path d="M4.38716 28.0368L4.48799 30.8171C4.49108 30.9024 4.35119 30.9023 4.3481 30.8171L4.24727 28.0368C4.24418 27.9515 4.38407 27.9516 4.38716 28.0368Z" fill="#F9A826"/>
<path d="M4.06099 28.0368L4.16181 30.8171C4.16491 30.9024 4.02502 30.9023 4.02193 30.8171L3.9211 28.0368C3.91801 27.9515 4.0579 27.9516 4.06099 28.0368Z" fill="#F9A826"/>
</svg>
